{
    "asset" : {
        "generator" : "Khronos glTF Blender I/O v3.4.50",
        "version" : "2.0"
    },
    "scene" : 0,
    "scenes" : [
        {
            "name" : "Scene",
            "nodes" : [
                0,
                1
            ]
        }
    ],
    "nodes" : [
        {
            "mesh" : 0,
            "name" : "Bridge"
        },
        {
            "mesh" : 1,
            "name" : "Col-colonly",
            "rotation" : [
                -0.7071068286895752,
                0,
                0,
                0.7071068286895752
            ],
            "scale" : [
                4.696061134338379,
                4.696061134338379,
                4.696061134338379
            ],
            "translation" : [
                0,
                -2.463252544403076,
                0
            ]
        }
    ],
    "materials" : [
        {
            "doubleSided" : true,
            "name" : "Spikes5",
            "pbrMetallicRoughness" : {
                "baseColorFactor" : [
                    0.13013634085655212,
                    0.12213865667581558,
                    0.16513220965862274,
                    1
                ],
                "metallicFactor" : 0.5663716793060303,
                "roughnessFactor" : 0.5
            }
        },
        {
            "doubleSided" : true,
            "name" : "Material.005",
            "pbrMetallicRoughness" : {
                "baseColorFactor" : [
                    0.19461780786514282,
                    0.10946163535118103,
                    0.03310480713844299,
                    1
                ],
                "metallicFactor" : 0,
                "roughnessFactor" : 0.5
            }
        },
        {
            "doubleSided" : true,
            "name" : "Material.007",
            "pbrMetallicRoughness" : {
                "baseColorFactor" : [
                    0.13563333451747894,
                    0.07818735390901566,
                    0.024157647043466568,
                    1
                ],
                "metallicFactor" : 0,
                "roughnessFactor" : 0.5
            }
        },
        {
            "doubleSided" : true,
            "name" : "Material.006",
            "pbrMetallicRoughness" : {
                "baseColorFactor" : [
                    0.19461780786514282,
                    0.10946163535118103,
                    0.03310480713844299,
                    1
                ],
                "metallicFactor" : 0,
                "roughnessFactor" : 0.5
            }
        },
        {
            "doubleSided" : true,
            "name" : "Material.001",
            "pbrMetallicRoughness" : {
                "baseColorFactor" : [
                    0.09758733212947845,
                    0.056128453463315964,
                    0.018500233069062233,
                    1
                ],
                "metallicFactor" : 0,
                "roughnessFactor" : 0.5
            }
        },
        {
            "doubleSided" : true,
            "name" : "Material.002",
            "pbrMetallicRoughness" : {
                "baseColorFactor" : [
                    0.09758733212947845,
                    0.056128453463315964,
                    0.018500233069062233,
                    1
                ],
                "metallicFactor" : 0,
                "roughnessFactor" : 0.5
            }
        },
        {
            "doubleSided" : true,
            "name" : "Material.003",
            "pbrMetallicRoughness" : {
                "baseColorFactor" : [
                    0.13563333451747894,
                    0.07818735390901566,
                    0.024157647043466568,
                    1
                ],
                "metallicFactor" : 0,
                "roughnessFactor" : 0.5
            }
        },
        {
            "doubleSided" : true,
            "name" : "Material.004",
            "pbrMetallicRoughness" : {
                "baseColorFactor" : [
                    0.13563333451747894,
                    0.07818735390901566,
                    0.024157647043466568,
                    1
                ],
                "metallicFactor" : 0,
                "roughnessFactor" : 0.5
            }
        }
    ],
    "meshes" : [
        {
            "name" : "Cube.035",
            "primitives" : [
                {
                    "attributes" : {
                        "POSITION" : 0,
                        "TEXCOORD_0" : 1,
                        "NORMAL" : 2
                    },
                    "indices" : 3,
                    "material" : 0
                },
                {
                    "attributes" : {
                        "POSITION" : 4,
                        "TEXCOORD_0" : 5,
                        "NORMAL" : 6
                    },
                    "indices" : 7,
                    "material" : 1
                },
                {
                    "attributes" : {
                        "POSITION" : 8,
                        "TEXCOORD_0" : 9,
                        "NORMAL" : 10
                    },
                    "indices" : 11,
                    "material" : 2
                },
                {
                    "attributes" : {
                        "POSITION" : 12,
                        "TEXCOORD_0" : 13,
                        "NORMAL" : 14
                    },
                    "indices" : 15,
                    "material" : 3
                },
                {
                    "attributes" : {
                        "POSITION" : 16,
                        "TEXCOORD_0" : 17,
                        "NORMAL" : 18
                    },
                    "indices" : 19,
                    "material" : 4
                },
                {
                    "attributes" : {
                        "POSITION" : 20,
                        "TEXCOORD_0" : 21,
                        "NORMAL" : 22
                    },
                    "indices" : 23,
                    "material" : 5
                },
                {
                    "attributes" : {
                        "POSITION" : 24,
                        "TEXCOORD_0" : 25,
                        "NORMAL" : 26
                    },
                    "indices" : 27,
                    "material" : 6
                },
                {
                    "attributes" : {
                        "POSITION" : 28,
                        "TEXCOORD_0" : 29,
                        "NORMAL" : 30
                    },
                    "indices" : 31,
                    "material" : 7
                }
            ]
        },
        {
            "name" : "Cylinder.001",
            "primitives" : [
                {
                    "attributes" : {
                        "POSITION" : 32,
                        "TEXCOORD_0" : 33,
                        "NORMAL" : 34,
                        "TANGENT" : 35
                    },
                    "indices" : 36
                }
            ]
        }
    ],
    "accessors" : [
        {
            "bufferView" : 0,
            "componentType" : 5126,
            "count" : 2400,
            "max" : [
                3.9860422611236572,
                1.758499264717102,
                2.432231903076172
            ],
            "min" : [
                -3.9433045387268066,
                0.6737754940986633,
                -2.432231903076172
            ],
            "type" : "VEC3"
        },
        {
            "bufferView" : 1,
            "componentType" : 5126,
            "count" : 2400,
            "type" : "VEC2"
        },
        {
            "bufferView" : 2,
            "componentType" : 5126,
            "count" : 2400,
            "type" : "VEC3"
        },
        {
            "bufferView" : 3,
            "componentType" : 5123,
            "count" : 2880,
            "type" : "SCALAR"
        },
        {
            "bufferView" : 4,
            "componentType" : 5126,
            "count" : 1950,
            "max" : [
                2.413529634475708,
                0.7117627859115601,
                1.8374598026275635
            ],
            "min" : [
                -2.41733455657959,
                0.44122377038002014,
                -1.8374592065811157
            ],
            "type" : "VEC3"
        },
        {
            "bufferView" : 5,
            "componentType" : 5126,
            "count" : 1950,
            "type" : "VEC2"
        },
        {
            "bufferView" : 6,
            "componentType" : 5126,
            "count" : 1950,
            "type" : "VEC3"
        },
        {
            "bufferView" : 7,
            "componentType" : 5123,
            "count" : 2892,
            "type" : "SCALAR"
        },
        {
            "bufferView" : 8,
            "componentType" : 5126,
            "count" : 958,
            "max" : [
                4.611883640289307,
                0.7901698350906372,
                2.1756153106689453
            ],
            "min" : [
                -4.483935356140137,
                -0.7238731980323792,
                -2.175615072250366
            ],
            "type" : "VEC3"
        },
        {
            "bufferView" : 9,
            "componentType" : 5126,
            "count" : 958,
            "type" : "VEC2"
        },
        {
            "bufferView" : 10,
            "componentType" : 5126,
            "count" : 958,
            "type" : "VEC3"
        },
        {
            "bufferView" : 11,
            "componentType" : 5123,
            "count" : 1416,
            "type" : "SCALAR"
        },
        {
            "bufferView" : 12,
            "componentType" : 5126,
            "count" : 1614,
            "max" : [
                4.07525634765625,
                0.6529436111450195,
                1.837459921836853
            ],
            "min" : [
                -4.075255393981934,
                -0.7302491664886475,
                -1.8374593257904053
            ],
            "type" : "VEC3"
        },
        {
            "bufferView" : 13,
            "componentType" : 5126,
            "count" : 1614,
            "type" : "VEC2"
        },
        {
            "bufferView" : 14,
            "componentType" : 5126,
            "count" : 1614,
            "type" : "VEC3"
        },
        {
            "bufferView" : 15,
            "componentType" : 5123,
            "count" : 2376,
            "type" : "SCALAR"
        },
        {
            "bufferView" : 16,
            "componentType" : 5126,
            "count" : 1100,
            "max" : [
                4.239398002624512,
                1.38474702835083,
                2.303701877593994
            ],
            "min" : [
                -4.19642972946167,
                -0.5486418008804321,
                -2.2968709468841553
            ],
            "type" : "VEC3"
        },
        {
            "bufferView" : 17,
            "componentType" : 5126,
            "count" : 1100,
            "type" : "VEC2"
        },
        {
            "bufferView" : 18,
            "componentType" : 5126,
            "count" : 1100,
            "type" : "VEC3"
        },
        {
            "bufferView" : 19,
            "componentType" : 5123,
            "count" : 1608,
            "type" : "SCALAR"
        },
        {
            "bufferView" : 20,
            "componentType" : 5126,
            "count" : 636,
            "max" : [
                2.4575207233428955,
                1.854814052581787,
                2.2213094234466553
            ],
            "min" : [
                -2.380303144454956,
                -0.47658488154411316,
                -2.2431092262268066
            ],
            "type" : "VEC3"
        },
        {
            "bufferView" : 21,
            "componentType" : 5126,
            "count" : 636,
            "type" : "VEC2"
        },
        {
            "bufferView" : 22,
            "componentType" : 5126,
            "count" : 636,
            "type" : "VEC3"
        },
        {
            "bufferView" : 23,
            "componentType" : 5123,
            "count" : 936,
            "type" : "SCALAR"
        },
        {
            "bufferView" : 24,
            "componentType" : 5126,
            "count" : 846,
            "max" : [
                4.28119421005249,
                1.7794147729873657,
                2.3663840293884277
            ],
            "min" : [
                -4.274834632873535,
                0.5396962761878967,
                -2.3668031692504883
            ],
            "type" : "VEC3"
        },
        {
            "bufferView" : 25,
            "componentType" : 5126,
            "count" : 846,
            "type" : "VEC2"
        },
        {
            "bufferView" : 26,
            "componentType" : 5126,
            "count" : 846,
            "type" : "VEC3"
        },
        {
            "bufferView" : 27,
            "componentType" : 5123,
            "count" : 1218,
            "type" : "SCALAR"
        },
        {
            "bufferView" : 28,
            "componentType" : 5126,
            "count" : 618,
            "max" : [
                2.065314292907715,
                1.8013578653335571,
                2.3475563526153564
            ],
            "min" : [
                -2.068946599960327,
                1.2937438488006592,
                -2.3478152751922607
            ],
            "type" : "VEC3"
        },
        {
            "bufferView" : 29,
            "componentType" : 5126,
            "count" : 618,
            "type" : "VEC2"
        },
        {
            "bufferView" : 30,
            "componentType" : 5126,
            "count" : 618,
            "type" : "VEC3"
        },
        {
            "bufferView" : 31,
            "componentType" : 5123,
            "count" : 876,
            "type" : "SCALAR"
        },
        {
            "bufferView" : 32,
            "componentType" : 5126,
            "count" : 122,
            "max" : [
                0.982305109500885,
                0.5221800208091736,
                0.926877498626709
            ],
            "min" : [
                -0.982305109500885,
                -0.5221800208091736,
                0.3738940954208374
            ],
            "type" : "VEC3"
        },
        {
            "bufferView" : 33,
            "componentType" : 5126,
            "count" : 122,
            "type" : "VEC2"
        },
        {
            "bufferView" : 34,
            "componentType" : 5126,
            "count" : 122,
            "type" : "VEC3"
        },
        {
            "bufferView" : 35,
            "componentType" : 5126,
            "count" : 122,
            "type" : "VEC4"
        },
        {
            "bufferView" : 36,
            "componentType" : 5123,
            "count" : 198,
            "type" : "SCALAR"
        }
    ],
    "bufferViews" : [
        {
            "buffer" : 0,
            "byteLength" : 28800,
            "byteOffset" : 0,
            "target" : 34962
        },
        {
            "buffer" : 0,
            "byteLength" : 19200,
            "byteOffset" : 28800,
            "target" : 34962
        },
        {
            "buffer" : 0,
            "byteLength" : 28800,
            "byteOffset" : 48000,
            "target" : 34962
        },
        {
            "buffer" : 0,
            "byteLength" : 5760,
            "byteOffset" : 76800,
            "target" : 34963
        },
        {
            "buffer" : 0,
            "byteLength" : 23400,
            "byteOffset" : 82560,
            "target" : 34962
        },
        {
            "buffer" : 0,
            "byteLength" : 15600,
            "byteOffset" : 105960,
            "target" : 34962
        },
        {
            "buffer" : 0,
            "byteLength" : 23400,
            "byteOffset" : 121560,
            "target" : 34962
        },
        {
            "buffer" : 0,
            "byteLength" : 5784,
            "byteOffset" : 144960,
            "target" : 34963
        },
        {
            "buffer" : 0,
            "byteLength" : 11496,
            "byteOffset" : 150744,
            "target" : 34962
        },
        {
            "buffer" : 0,
            "byteLength" : 7664,
            "byteOffset" : 162240,
            "target" : 34962
        },
        {
            "buffer" : 0,
            "byteLength" : 11496,
            "byteOffset" : 169904,
            "target" : 34962
        },
        {
            "buffer" : 0,
            "byteLength" : 2832,
            "byteOffset" : 181400,
            "target" : 34963
        },
        {
            "buffer" : 0,
            "byteLength" : 19368,
            "byteOffset" : 184232,
            "target" : 34962
        },
        {
            "buffer" : 0,
            "byteLength" : 12912,
            "byteOffset" : 203600,
            "target" : 34962
        },
        {
            "buffer" : 0,
            "byteLength" : 19368,
            "byteOffset" : 216512,
            "target" : 34962
        },
        {
            "buffer" : 0,
            "byteLength" : 4752,
            "byteOffset" : 235880,
            "target" : 34963
        },
        {
            "buffer" : 0,
            "byteLength" : 13200,
            "byteOffset" : 240632,
            "target" : 34962
        },
        {
            "buffer" : 0,
            "byteLength" : 8800,
            "byteOffset" : 253832,
            "target" : 34962
        },
        {
            "buffer" : 0,
            "byteLength" : 13200,
            "byteOffset" : 262632,
            "target" : 34962
        },
        {
            "buffer" : 0,
            "byteLength" : 3216,
            "byteOffset" : 275832,
            "target" : 34963
        },
        {
            "buffer" : 0,
            "byteLength" : 7632,
            "byteOffset" : 279048,
            "target" : 34962
        },
        {
            "buffer" : 0,
            "byteLength" : 5088,
            "byteOffset" : 286680,
            "target" : 34962
        },
        {
            "buffer" : 0,
            "byteLength" : 7632,
            "byteOffset" : 291768,
            "target" : 34962
        },
        {
            "buffer" : 0,
            "byteLength" : 1872,
            "byteOffset" : 299400,
            "target" : 34963
        },
        {
            "buffer" : 0,
            "byteLength" : 10152,
            "byteOffset" : 301272,
            "target" : 34962
        },
        {
            "buffer" : 0,
            "byteLength" : 6768,
            "byteOffset" : 311424,
            "target" : 34962
        },
        {
            "buffer" : 0,
            "byteLength" : 10152,
            "byteOffset" : 318192,
            "target" : 34962
        },
        {
            "buffer" : 0,
            "byteLength" : 2436,
            "byteOffset" : 328344,
            "target" : 34963
        },
        {
            "buffer" : 0,
            "byteLength" : 7416,
            "byteOffset" : 330780,
            "target" : 34962
        },
        {
            "buffer" : 0,
            "byteLength" : 4944,
            "byteOffset" : 338196,
            "target" : 34962
        },
        {
            "buffer" : 0,
            "byteLength" : 7416,
            "byteOffset" : 343140,
            "target" : 34962
        },
        {
            "buffer" : 0,
            "byteLength" : 1752,
            "byteOffset" : 350556,
            "target" : 34963
        },
        {
            "buffer" : 0,
            "byteLength" : 1464,
            "byteOffset" : 352308,
            "target" : 34962
        },
        {
            "buffer" : 0,
            "byteLength" : 976,
            "byteOffset" : 353772,
            "target" : 34962
        },
        {
            "buffer" : 0,
            "byteLength" : 1464,
            "byteOffset" : 354748,
            "target" : 34962
        },
        {
            "buffer" : 0,
            "byteLength" : 1952,
            "byteOffset" : 356212,
            "target" : 34962
        },
        {
            "buffer" : 0,
            "byteLength" : 396,
            "byteOffset" : 358164,
            "target" : 34963
        }
    ],
    "buffers" : [
        {
            "byteLength" : 358560,
            "uri" : "Bridge-d26b0594d249fcc4e3f376542e3efaba.bin"
        }
    ]
}
