{
    "asset" : {
        "generator" : "Khronos glTF Blender I/O v3.4.50",
        "version" : "2.0"
    },
    "scene" : 0,
    "scenes" : [
        {
            "extras" : {
                "vseqf" : {
                    "vu" : -60.0,
                    "vu_max" : -60.0
                }
            },
            "name" : "Scene",
            "nodes" : [
                0
            ]
        }
    ],
    "nodes" : [
        {
            "mesh" : 0,
            "name" : "Cave-col"
        }
    ],
    "materials" : [
        {
            "doubleSided" : true,
            "name" : "Planks0",
            "pbrMetallicRoughness" : {
                "baseColorFactor" : [
                    0.19461780786514282,
                    0.10946163535118103,
                    0.03310480713844299,
                    1
                ],
                "metallicFactor" : 0,
                "roughnessFactor" : 0.5
            }
        },
        {
            "doubleSided" : true,
            "name" : "Beams1",
            "pbrMetallicRoughness" : {
                "baseColorFactor" : [
                    0.13563333451747894,
                    0.07818735390901566,
                    0.024157647043466568,
                    1
                ],
                "metallicFactor" : 0,
                "roughnessFactor" : 0.5
            }
        },
        {
            "doubleSided" : true,
            "name" : "Hole2",
            "pbrMetallicRoughness" : {
                "baseColorFactor" : [
                    0,
                    0,
                    0,
                    1
                ],
                "metallicFactor" : 0,
                "roughnessFactor" : 0.5
            }
        },
        {
            "doubleSided" : true,
            "name" : "Caverock3",
            "pbrMetallicRoughness" : {
                "baseColorFactor" : [
                    0.12477165460586548,
                    0.1328682154417038,
                    0.14126330614089966,
                    1
                ],
                "metallicFactor" : 0,
                "roughnessFactor" : 0.5
            }
        },
        {
            "doubleSided" : true,
            "name" : "Rocks4",
            "pbrMetallicRoughness" : {
                "baseColorFactor" : [
                    0.19806909561157227,
                    0.21223054826259613,
                    0.22322796285152435,
                    1
                ],
                "metallicFactor" : 0,
                "roughnessFactor" : 0.5
            }
        },
        {
            "doubleSided" : true,
            "name" : "Spikes5",
            "pbrMetallicRoughness" : {
                "baseColorFactor" : [
                    0.13013634085655212,
                    0.12213865667581558,
                    0.16513220965862274,
                    1
                ],
                "metallicFactor" : 0.5663716793060303,
                "roughnessFactor" : 0.5
            }
        }
    ],
    "meshes" : [
        {
            "name" : "Cube.001",
            "primitives" : [
                {
                    "attributes" : {
                        "POSITION" : 0,
                        "TEXCOORD_0" : 1,
                        "NORMAL" : 2
                    },
                    "indices" : 3,
                    "material" : 0
                },
                {
                    "attributes" : {
                        "POSITION" : 4,
                        "TEXCOORD_0" : 5,
                        "NORMAL" : 6
                    },
                    "indices" : 7,
                    "material" : 1
                },
                {
                    "attributes" : {
                        "POSITION" : 8,
                        "TEXCOORD_0" : 9,
                        "NORMAL" : 10
                    },
                    "indices" : 11,
                    "material" : 2
                },
                {
                    "attributes" : {
                        "POSITION" : 12,
                        "TEXCOORD_0" : 13,
                        "NORMAL" : 14
                    },
                    "indices" : 15,
                    "material" : 3
                },
                {
                    "attributes" : {
                        "POSITION" : 16,
                        "TEXCOORD_0" : 17,
                        "NORMAL" : 18
                    },
                    "indices" : 19,
                    "material" : 4
                },
                {
                    "attributes" : {
                        "POSITION" : 20,
                        "TEXCOORD_0" : 21,
                        "NORMAL" : 22
                    },
                    "indices" : 23,
                    "material" : 5
                }
            ]
        }
    ],
    "accessors" : [
        {
            "bufferView" : 0,
            "componentType" : 5126,
            "count" : 2096,
            "max" : [
                6.141559600830078,
                2.1893248558044434,
                -0.9861869812011719
            ],
            "min" : [
                -5.981391906738281,
                1.5082573890686035,
                -10.044431686401367
            ],
            "type" : "VEC3"
        },
        {
            "bufferView" : 1,
            "componentType" : 5126,
            "count" : 2096,
            "type" : "VEC2"
        },
        {
            "bufferView" : 2,
            "componentType" : 5126,
            "count" : 2096,
            "type" : "VEC3"
        },
        {
            "bufferView" : 3,
            "componentType" : 5123,
            "count" : 3072,
            "type" : "SCALAR"
        },
        {
            "bufferView" : 4,
            "componentType" : 5126,
            "count" : 700,
            "max" : [
                5.832155227661133,
                1.6460824012756348,
                -7.656829357147217
            ],
            "min" : [
                -5.880071640014648,
                -7.037796497344971,
                -9.481553077697754
            ],
            "type" : "VEC3"
        },
        {
            "bufferView" : 5,
            "componentType" : 5126,
            "count" : 700,
            "type" : "VEC2"
        },
        {
            "bufferView" : 6,
            "componentType" : 5126,
            "count" : 700,
            "type" : "VEC3"
        },
        {
            "bufferView" : 7,
            "componentType" : 5123,
            "count" : 1032,
            "type" : "SCALAR"
        },
        {
            "bufferView" : 8,
            "componentType" : 5126,
            "count" : 23,
            "max" : [
                5.334315299987793,
                1.7559058666229248,
                -3.851804494857788
            ],
            "min" : [
                -5.334315299987793,
                -6.781435012817383,
                -3.8877055644989014
            ],
            "type" : "VEC3"
        },
        {
            "bufferView" : 9,
            "componentType" : 5126,
            "count" : 23,
            "type" : "VEC2"
        },
        {
            "bufferView" : 10,
            "componentType" : 5126,
            "count" : 23,
            "type" : "VEC3"
        },
        {
            "bufferView" : 11,
            "componentType" : 5123,
            "count" : 42,
            "type" : "SCALAR"
        },
        {
            "bufferView" : 12,
            "componentType" : 5126,
            "count" : 2220,
            "max" : [
                13.699015617370605,
                6.945945739746094,
                4.0224738121032715
            ],
            "min" : [
                -13.699015617370605,
                -6.945945739746094,
                -9.724815368652344
            ],
            "type" : "VEC3"
        },
        {
            "bufferView" : 13,
            "componentType" : 5126,
            "count" : 2220,
            "type" : "VEC2"
        },
        {
            "bufferView" : 14,
            "componentType" : 5126,
            "count" : 2220,
            "type" : "VEC3"
        },
        {
            "bufferView" : 15,
            "componentType" : 5123,
            "count" : 3372,
            "type" : "SCALAR"
        },
        {
            "bufferView" : 16,
            "componentType" : 5126,
            "count" : 1016,
            "max" : [
                18.498153686523438,
                7.851746082305908,
                1.5805258750915527
            ],
            "min" : [
                -23.131668090820312,
                -7.736590385437012,
                -10.690574645996094
            ],
            "type" : "VEC3"
        },
        {
            "bufferView" : 17,
            "componentType" : 5126,
            "count" : 1016,
            "type" : "VEC2"
        },
        {
            "bufferView" : 18,
            "componentType" : 5126,
            "count" : 1016,
            "type" : "VEC3"
        },
        {
            "bufferView" : 19,
            "componentType" : 5123,
            "count" : 1398,
            "type" : "SCALAR"
        },
        {
            "bufferView" : 20,
            "componentType" : 5126,
            "count" : 800,
            "max" : [
                5.66278600692749,
                2.376295566558838,
                -4.031232833862305
            ],
            "min" : [
                -5.547268867492676,
                1.8345073461532593,
                -9.001012802124023
            ],
            "type" : "VEC3"
        },
        {
            "bufferView" : 21,
            "componentType" : 5126,
            "count" : 800,
            "type" : "VEC2"
        },
        {
            "bufferView" : 22,
            "componentType" : 5126,
            "count" : 800,
            "type" : "VEC3"
        },
        {
            "bufferView" : 23,
            "componentType" : 5123,
            "count" : 960,
            "type" : "SCALAR"
        }
    ],
    "bufferViews" : [
        {
            "buffer" : 0,
            "byteLength" : 25152,
            "byteOffset" : 0,
            "target" : 34962
        },
        {
            "buffer" : 0,
            "byteLength" : 16768,
            "byteOffset" : 25152,
            "target" : 34962
        },
        {
            "buffer" : 0,
            "byteLength" : 25152,
            "byteOffset" : 41920,
            "target" : 34962
        },
        {
            "buffer" : 0,
            "byteLength" : 6144,
            "byteOffset" : 67072,
            "target" : 34963
        },
        {
            "buffer" : 0,
            "byteLength" : 8400,
            "byteOffset" : 73216,
            "target" : 34962
        },
        {
            "buffer" : 0,
            "byteLength" : 5600,
            "byteOffset" : 81616,
            "target" : 34962
        },
        {
            "buffer" : 0,
            "byteLength" : 8400,
            "byteOffset" : 87216,
            "target" : 34962
        },
        {
            "buffer" : 0,
            "byteLength" : 2064,
            "byteOffset" : 95616,
            "target" : 34963
        },
        {
            "buffer" : 0,
            "byteLength" : 276,
            "byteOffset" : 97680,
            "target" : 34962
        },
        {
            "buffer" : 0,
            "byteLength" : 184,
            "byteOffset" : 97956,
            "target" : 34962
        },
        {
            "buffer" : 0,
            "byteLength" : 276,
            "byteOffset" : 98140,
            "target" : 34962
        },
        {
            "buffer" : 0,
            "byteLength" : 84,
            "byteOffset" : 98416,
            "target" : 34963
        },
        {
            "buffer" : 0,
            "byteLength" : 26640,
            "byteOffset" : 98500,
            "target" : 34962
        },
        {
            "buffer" : 0,
            "byteLength" : 17760,
            "byteOffset" : 125140,
            "target" : 34962
        },
        {
            "buffer" : 0,
            "byteLength" : 26640,
            "byteOffset" : 142900,
            "target" : 34962
        },
        {
            "buffer" : 0,
            "byteLength" : 6744,
            "byteOffset" : 169540,
            "target" : 34963
        },
        {
            "buffer" : 0,
            "byteLength" : 12192,
            "byteOffset" : 176284,
            "target" : 34962
        },
        {
            "buffer" : 0,
            "byteLength" : 8128,
            "byteOffset" : 188476,
            "target" : 34962
        },
        {
            "buffer" : 0,
            "byteLength" : 12192,
            "byteOffset" : 196604,
            "target" : 34962
        },
        {
            "buffer" : 0,
            "byteLength" : 2796,
            "byteOffset" : 208796,
            "target" : 34963
        },
        {
            "buffer" : 0,
            "byteLength" : 9600,
            "byteOffset" : 211592,
            "target" : 34962
        },
        {
            "buffer" : 0,
            "byteLength" : 6400,
            "byteOffset" : 221192,
            "target" : 34962
        },
        {
            "buffer" : 0,
            "byteLength" : 9600,
            "byteOffset" : 227592,
            "target" : 34962
        },
        {
            "buffer" : 0,
            "byteLength" : 1920,
            "byteOffset" : 237192,
            "target" : 34963
        }
    ],
    "buffers" : [
        {
            "byteLength" : 239112,
            "uri" : "Cave-14df551ba31e894b0c51b19b75c9427e.bin"
        }
    ]
}
