{
    "asset" : {
        "generator" : "Khronos glTF Blender I/O v3.4.50",
        "version" : "2.0"
    },
    "scene" : 0,
    "scenes" : [
        {
            "name" : "Scene",
            "nodes" : [
                0
            ]
        }
    ],
    "nodes" : [
        {
            "mesh" : 0,
            "name" : "Sphere",
            "scale" : [
                1,
                1.1153866052627563,
                0.8750981092453003
            ]
        }
    ],
    "materials" : [
        {
            "doubleSided" : true,
            "name" : "Material.001",
            "pbrMetallicRoughness" : {
                "baseColorFactor" : [
                    0.16513201594352722,
                    0.1651320606470108,
                    0.16513220965862274,
                    1
                ],
                "metallicFactor" : 0,
                "roughnessFactor" : 0.5
            }
        }
    ],
    "meshes" : [
        {
            "name" : "Sphere",
            "primitives" : [
                {
                    "attributes" : {
                        "POSITION" : 0,
                        "TEXCOORD_0" : 1,
                        "NORMAL" : 2
                    },
                    "indices" : 3,
                    "material" : 0
                }
            ]
        }
    ],
    "accessors" : [
        {
            "bufferView" : 0,
            "componentType" : 5126,
            "count" : 268,
            "max" : [
                0.9714205861091614,
                0.9465402960777283,
                0.9834219217300415
            ],
            "min" : [
                -0.9655292630195618,
                -0.9669755101203918,
                -0.9851304292678833
            ],
            "type" : "VEC3"
        },
        {
            "bufferView" : 1,
            "componentType" : 5126,
            "count" : 268,
            "type" : "VEC2"
        },
        {
            "bufferView" : 2,
            "componentType" : 5126,
            "count" : 268,
            "type" : "VEC3"
        },
        {
            "bufferView" : 3,
            "componentType" : 5123,
            "count" : 516,
            "type" : "SCALAR"
        }
    ],
    "bufferViews" : [
        {
            "buffer" : 0,
            "byteLength" : 3216,
            "byteOffset" : 0,
            "target" : 34962
        },
        {
            "buffer" : 0,
            "byteLength" : 2144,
            "byteOffset" : 3216,
            "target" : 34962
        },
        {
            "buffer" : 0,
            "byteLength" : 3216,
            "byteOffset" : 5360,
            "target" : 34962
        },
        {
            "buffer" : 0,
            "byteLength" : 1032,
            "byteOffset" : 8576,
            "target" : 34963
        }
    ],
    "buffers" : [
        {
            "byteLength" : 9608,
            "uri" : "rock4-d84155f242cb775ffbe47372b265cbe3.bin"
        }
    ]
}
