{
    "asset" : {
        "generator" : "Khronos glTF Blender I/O v3.4.50",
        "version" : "2.0"
    },
    "extensionsUsed" : [
        "KHR_materials_specular",
        "KHR_materials_ior"
    ],
    "scene" : 0,
    "scenes" : [
        {
            "extras" : {
                "snow" : {
                    "coverage" : 80
                }
            },
            "name" : "Scene",
            "nodes" : [
                1
            ]
        }
    ],
    "nodes" : [
        {
            "mesh" : 0,
            "name" : "SnowBall.001",
            "translation" : [
                0,
                -0.8928513526916504,
                1.0997856855392456
            ]
        },
        {
            "children" : [
                0
            ],
            "mesh" : 1,
            "name" : "Fence-col",
            "translation" : [
                0,
                0.6434580087661743,
                -0.023456573486328125
            ]
        }
    ],
    "materials" : [
        {
            "doubleSided" : true,
            "extensions" : {
                "KHR_materials_specular" : {
                    "specularColorFactor" : [
                        0.5311841220307688,
                        0.5311841220307688,
                        0.5311841220307688
                    ]
                },
                "KHR_materials_ior" : {
                    "ior" : 1.4500000476837158
                }
            },
            "name" : "Snow",
            "pbrMetallicRoughness" : {
                "baseColorFactor" : [
                    0.9039999842643738,
                    0.9039999842643738,
                    0.9039999842643738,
                    1
                ],
                "metallicFactor" : 0,
                "roughnessFactor" : 0.6000000238418579
            }
        },
        {
            "doubleSided" : true,
            "name" : "Material.001",
            "pbrMetallicRoughness" : {
                "baseColorFactor" : [
                    0.09398867189884186,
                    0.03085395321249962,
                    0.0031093258876353502,
                    1
                ],
                "metallicFactor" : 0,
                "roughnessFactor" : 0.5
            }
        }
    ],
    "meshes" : [
        {
            "name" : "SnowBall",
            "primitives" : [
                {
                    "attributes" : {
                        "POSITION" : 0,
                        "NORMAL" : 1
                    },
                    "indices" : 2,
                    "material" : 0
                }
            ]
        },
        {
            "name" : "Cube.001",
            "primitives" : [
                {
                    "attributes" : {
                        "POSITION" : 3,
                        "TEXCOORD_0" : 4,
                        "NORMAL" : 5,
                        "TANGENT" : 6
                    },
                    "indices" : 7,
                    "material" : 1
                }
            ]
        }
    ],
    "accessors" : [
        {
            "bufferView" : 0,
            "componentType" : 5126,
            "count" : 60308,
            "max" : [
                0.1768859624862671,
                1.4413325786590576,
                0.05613093823194504
            ],
            "min" : [
                -0.17823728919029236,
                0.7578257322311401,
                -2.2699196338653564
            ],
            "type" : "VEC3"
        },
        {
            "bufferView" : 1,
            "componentType" : 5126,
            "count" : 60308,
            "type" : "VEC3"
        },
        {
            "bufferView" : 2,
            "componentType" : 5123,
            "count" : 361800,
            "type" : "SCALAR"
        },
        {
            "bufferView" : 3,
            "componentType" : 5126,
            "count" : 1064,
            "max" : [
                0.16590462625026703,
                0.5287710428237915,
                1.1498854160308838
            ],
            "min" : [
                -0.16590462625026703,
                -0.6287243366241455,
                -1.1595860719680786
            ],
            "type" : "VEC3"
        },
        {
            "bufferView" : 4,
            "componentType" : 5126,
            "count" : 1064,
            "type" : "VEC2"
        },
        {
            "bufferView" : 5,
            "componentType" : 5126,
            "count" : 1064,
            "type" : "VEC3"
        },
        {
            "bufferView" : 6,
            "componentType" : 5126,
            "count" : 1064,
            "type" : "VEC4"
        },
        {
            "bufferView" : 7,
            "componentType" : 5123,
            "count" : 1632,
            "type" : "SCALAR"
        }
    ],
    "bufferViews" : [
        {
            "buffer" : 0,
            "byteLength" : 723696,
            "byteOffset" : 0,
            "target" : 34962
        },
        {
            "buffer" : 0,
            "byteLength" : 723696,
            "byteOffset" : 723696,
            "target" : 34962
        },
        {
            "buffer" : 0,
            "byteLength" : 723600,
            "byteOffset" : 1447392,
            "target" : 34963
        },
        {
            "buffer" : 0,
            "byteLength" : 12768,
            "byteOffset" : 2170992,
            "target" : 34962
        },
        {
            "buffer" : 0,
            "byteLength" : 8512,
            "byteOffset" : 2183760,
            "target" : 34962
        },
        {
            "buffer" : 0,
            "byteLength" : 12768,
            "byteOffset" : 2192272,
            "target" : 34962
        },
        {
            "buffer" : 0,
            "byteLength" : 17024,
            "byteOffset" : 2205040,
            "target" : 34962
        },
        {
            "buffer" : 0,
            "byteLength" : 3264,
            "byteOffset" : 2222064,
            "target" : 34963
        }
    ],
    "buffers" : [
        {
            "byteLength" : 2225328,
            "uri" : "SnowFence-d2411ee3ce77c85f6fa7c0d839c99695.bin"
        }
    ]
}
