{
    "asset" : {
        "generator" : "Khronos glTF Blender I/O v3.4.50",
        "version" : "2.0"
    },
    "scene" : 0,
    "scenes" : [
        {
            "name" : "Scene",
            "nodes" : [
                0
            ]
        }
    ],
    "nodes" : [
        {
            "mesh" : 0,
            "name" : "CandyCane-col",
            "scale" : [
                0.15725204348564148,
                0.26153939962387085,
                0.15725204348564148
            ],
            "translation" : [
                0,
                -3.14931058883667,
                0
            ]
        }
    ],
    "materials" : [
        {
            "doubleSided" : true,
            "name" : "Material.001",
            "pbrMetallicRoughness" : {
                "baseColorFactor" : [
                    0.800000011920929,
                    0.800000011920929,
                    0.800000011920929,
                    1
                ],
                "metallicFactor" : 0,
                "roughnessFactor" : 0.5
            }
        },
        {
            "doubleSided" : true,
            "name" : "Material.002",
            "pbrMetallicRoughness" : {
                "baseColorFactor" : [
                    0.8000000715255737,
                    0.004933404270559549,
                    0.005978649482131004,
                    1
                ],
                "metallicFactor" : 0,
                "roughnessFactor" : 0.5
            }
        }
    ],
    "meshes" : [
        {
            "name" : "Circle",
            "primitives" : [
                {
                    "attributes" : {
                        "POSITION" : 0,
                        "TEXCOORD_0" : 1,
                        "NORMAL" : 2
                    },
                    "indices" : 3,
                    "material" : 0
                },
                {
                    "attributes" : {
                        "POSITION" : 4,
                        "TEXCOORD_0" : 5,
                        "NORMAL" : 6
                    },
                    "indices" : 7,
                    "material" : 1
                }
            ]
        }
    ],
    "accessors" : [
        {
            "bufferView" : 0,
            "componentType" : 5126,
            "count" : 535,
            "max" : [
                1.1121817827224731,
                11.705836296081543,
                5.775956153869629
            ],
            "min" : [
                -1.0046225786209106,
                2.850050687789917,
                -2.3284361362457275
            ],
            "type" : "VEC3"
        },
        {
            "bufferView" : 1,
            "componentType" : 5126,
            "count" : 535,
            "type" : "VEC2"
        },
        {
            "bufferView" : 2,
            "componentType" : 5126,
            "count" : 535,
            "type" : "VEC3"
        },
        {
            "bufferView" : 3,
            "componentType" : 5123,
            "count" : 2139,
            "type" : "SCALAR"
        },
        {
            "bufferView" : 4,
            "componentType" : 5126,
            "count" : 529,
            "max" : [
                1.1121817827224731,
                11.7056245803833,
                5.775956153869629
            ],
            "min" : [
                -1.0046225786209106,
                2.85015606880188,
                -2.3284361362457275
            ],
            "type" : "VEC3"
        },
        {
            "bufferView" : 5,
            "componentType" : 5126,
            "count" : 529,
            "type" : "VEC2"
        },
        {
            "bufferView" : 6,
            "componentType" : 5126,
            "count" : 529,
            "type" : "VEC3"
        },
        {
            "bufferView" : 7,
            "componentType" : 5123,
            "count" : 2073,
            "type" : "SCALAR"
        }
    ],
    "bufferViews" : [
        {
            "buffer" : 0,
            "byteLength" : 6420,
            "byteOffset" : 0,
            "target" : 34962
        },
        {
            "buffer" : 0,
            "byteLength" : 4280,
            "byteOffset" : 6420,
            "target" : 34962
        },
        {
            "buffer" : 0,
            "byteLength" : 6420,
            "byteOffset" : 10700,
            "target" : 34962
        },
        {
            "buffer" : 0,
            "byteLength" : 4278,
            "byteOffset" : 17120,
            "target" : 34963
        },
        {
            "buffer" : 0,
            "byteLength" : 6348,
            "byteOffset" : 21400,
            "target" : 34962
        },
        {
            "buffer" : 0,
            "byteLength" : 4232,
            "byteOffset" : 27748,
            "target" : 34962
        },
        {
            "buffer" : 0,
            "byteLength" : 6348,
            "byteOffset" : 31980,
            "target" : 34962
        },
        {
            "buffer" : 0,
            "byteLength" : 4146,
            "byteOffset" : 38328,
            "target" : 34963
        }
    ],
    "buffers" : [
        {
            "byteLength" : 42476,
            "uri" : "CandyCane-cf89e63f4edac507447f71c18e3024a8.bin"
        }
    ]
}
