{
    "asset" : {
        "generator" : "Khronos glTF Blender I/O v3.4.50",
        "version" : "2.0"
    },
    "scene" : 0,
    "scenes" : [
        {
            "extras" : {
                "vseqf" : {
                    "vu" : -60.0,
                    "vu_max" : -60.0
                }
            },
            "name" : "Scene",
            "nodes" : [
                0,
                1
            ]
        }
    ],
    "nodes" : [
        {
            "mesh" : 0,
            "name" : "Cave"
        },
        {
            "mesh" : 1,
            "name" : "col-colonly"
        }
    ],
    "materials" : [
        {
            "doubleSided" : true,
            "name" : "Planks0",
            "pbrMetallicRoughness" : {
                "baseColorFactor" : [
                    0.19461780786514282,
                    0.10946163535118103,
                    0.03310480713844299,
                    1
                ],
                "metallicFactor" : 0,
                "roughnessFactor" : 0.5
            }
        },
        {
            "doubleSided" : true,
            "name" : "Beams1",
            "pbrMetallicRoughness" : {
                "baseColorFactor" : [
                    0.13563333451747894,
                    0.07818735390901566,
                    0.024157647043466568,
                    1
                ],
                "metallicFactor" : 0,
                "roughnessFactor" : 0.5
            }
        },
        {
            "doubleSided" : true,
            "name" : "Hole2",
            "pbrMetallicRoughness" : {
                "baseColorFactor" : [
                    0,
                    0,
                    0,
                    1
                ],
                "metallicFactor" : 0,
                "roughnessFactor" : 0.5
            }
        },
        {
            "doubleSided" : true,
            "name" : "Caverock3",
            "pbrMetallicRoughness" : {
                "baseColorFactor" : [
                    0.12477165460586548,
                    0.1328682154417038,
                    0.14126330614089966,
                    1
                ],
                "metallicFactor" : 0,
                "roughnessFactor" : 0.5
            }
        },
        {
            "doubleSided" : true,
            "name" : "Rocks4",
            "pbrMetallicRoughness" : {
                "baseColorFactor" : [
                    0.19806909561157227,
                    0.21223054826259613,
                    0.22322796285152435,
                    1
                ],
                "metallicFactor" : 0,
                "roughnessFactor" : 0.5
            }
        },
        {
            "doubleSided" : true,
            "name" : "Spikes5",
            "pbrMetallicRoughness" : {
                "baseColorFactor" : [
                    0.13013634085655212,
                    0.12213865667581558,
                    0.16513220965862274,
                    1
                ],
                "metallicFactor" : 0.5663716793060303,
                "roughnessFactor" : 0.5
            }
        }
    ],
    "meshes" : [
        {
            "name" : "Cube.001",
            "primitives" : [
                {
                    "attributes" : {
                        "POSITION" : 0,
                        "TEXCOORD_0" : 1,
                        "NORMAL" : 2
                    },
                    "indices" : 3,
                    "material" : 0
                },
                {
                    "attributes" : {
                        "POSITION" : 4,
                        "TEXCOORD_0" : 5,
                        "NORMAL" : 6
                    },
                    "indices" : 7,
                    "material" : 1
                },
                {
                    "attributes" : {
                        "POSITION" : 8,
                        "TEXCOORD_0" : 9,
                        "NORMAL" : 10
                    },
                    "indices" : 11,
                    "material" : 2
                },
                {
                    "attributes" : {
                        "POSITION" : 12,
                        "TEXCOORD_0" : 13,
                        "NORMAL" : 14
                    },
                    "indices" : 15,
                    "material" : 3
                },
                {
                    "attributes" : {
                        "POSITION" : 16,
                        "TEXCOORD_0" : 17,
                        "NORMAL" : 18
                    },
                    "indices" : 19,
                    "material" : 4
                },
                {
                    "attributes" : {
                        "POSITION" : 20,
                        "TEXCOORD_0" : 21,
                        "NORMAL" : 22
                    },
                    "indices" : 23,
                    "material" : 5
                }
            ]
        },
        {
            "name" : "Cube.003",
            "primitives" : [
                {
                    "attributes" : {
                        "POSITION" : 24,
                        "TEXCOORD_0" : 25,
                        "NORMAL" : 26
                    },
                    "indices" : 27
                }
            ]
        }
    ],
    "accessors" : [
        {
            "bufferView" : 0,
            "componentType" : 5126,
            "count" : 2090,
            "max" : [
                1.8424679040908813,
                0.656797468662262,
                -0.2958561182022095
            ],
            "min" : [
                -1.7944176197052002,
                0.45247724652290344,
                -3.0133297443389893
            ],
            "type" : "VEC3"
        },
        {
            "bufferView" : 1,
            "componentType" : 5126,
            "count" : 2090,
            "type" : "VEC2"
        },
        {
            "bufferView" : 2,
            "componentType" : 5126,
            "count" : 2090,
            "type" : "VEC3"
        },
        {
            "bufferView" : 3,
            "componentType" : 5123,
            "count" : 3072,
            "type" : "SCALAR"
        },
        {
            "bufferView" : 4,
            "componentType" : 5126,
            "count" : 696,
            "max" : [
                1.7496466636657715,
                0.4938247501850128,
                -2.297048807144165
            ],
            "min" : [
                -1.7640215158462524,
                -2.1113390922546387,
                -2.844465970993042
            ],
            "type" : "VEC3"
        },
        {
            "bufferView" : 5,
            "componentType" : 5126,
            "count" : 696,
            "type" : "VEC2"
        },
        {
            "bufferView" : 6,
            "componentType" : 5126,
            "count" : 696,
            "type" : "VEC3"
        },
        {
            "bufferView" : 7,
            "componentType" : 5123,
            "count" : 1032,
            "type" : "SCALAR"
        },
        {
            "bufferView" : 8,
            "componentType" : 5126,
            "count" : 23,
            "max" : [
                1.6002947092056274,
                0.5267717838287354,
                -1.1555414199829102
            ],
            "min" : [
                -1.6002947092056274,
                -2.034430503845215,
                -1.1663117408752441
            ],
            "type" : "VEC3"
        },
        {
            "bufferView" : 9,
            "componentType" : 5126,
            "count" : 23,
            "type" : "VEC2"
        },
        {
            "bufferView" : 10,
            "componentType" : 5126,
            "count" : 23,
            "type" : "VEC3"
        },
        {
            "bufferView" : 11,
            "componentType" : 5123,
            "count" : 42,
            "type" : "SCALAR"
        },
        {
            "bufferView" : 12,
            "componentType" : 5126,
            "count" : 2098,
            "max" : [
                4.109704971313477,
                2.0837838649749756,
                1.2067421674728394
            ],
            "min" : [
                -4.109704971313477,
                -2.0837838649749756,
                -2.9174447059631348
            ],
            "type" : "VEC3"
        },
        {
            "bufferView" : 13,
            "componentType" : 5126,
            "count" : 2098,
            "type" : "VEC2"
        },
        {
            "bufferView" : 14,
            "componentType" : 5126,
            "count" : 2098,
            "type" : "VEC3"
        },
        {
            "bufferView" : 15,
            "componentType" : 5123,
            "count" : 3138,
            "type" : "SCALAR"
        },
        {
            "bufferView" : 16,
            "componentType" : 5126,
            "count" : 1016,
            "max" : [
                5.549446105957031,
                2.3555238246917725,
                0.47415778040885925
            ],
            "min" : [
                -6.93950080871582,
                -2.320977210998535,
                -3.2071726322174072
            ],
            "type" : "VEC3"
        },
        {
            "bufferView" : 17,
            "componentType" : 5126,
            "count" : 1016,
            "type" : "VEC2"
        },
        {
            "bufferView" : 18,
            "componentType" : 5126,
            "count" : 1016,
            "type" : "VEC3"
        },
        {
            "bufferView" : 19,
            "componentType" : 5123,
            "count" : 1398,
            "type" : "SCALAR"
        },
        {
            "bufferView" : 20,
            "componentType" : 5126,
            "count" : 800,
            "max" : [
                1.698835849761963,
                0.7128887176513672,
                -1.2093698978424072
            ],
            "min" : [
                -1.6641807556152344,
                0.5503522157669067,
                -2.7003040313720703
            ],
            "type" : "VEC3"
        },
        {
            "bufferView" : 21,
            "componentType" : 5126,
            "count" : 800,
            "type" : "VEC2"
        },
        {
            "bufferView" : 22,
            "componentType" : 5126,
            "count" : 800,
            "type" : "VEC3"
        },
        {
            "bufferView" : 23,
            "componentType" : 5123,
            "count" : 960,
            "type" : "SCALAR"
        },
        {
            "bufferView" : 24,
            "componentType" : 5126,
            "count" : 242,
            "max" : [
                4.099414825439453,
                2.078526735305786,
                1.2138471603393555
            ],
            "min" : [
                -4.118462562561035,
                -2.0778374671936035,
                -2.8904287815093994
            ],
            "type" : "VEC3"
        },
        {
            "bufferView" : 25,
            "componentType" : 5126,
            "count" : 242,
            "type" : "VEC2"
        },
        {
            "bufferView" : 26,
            "componentType" : 5126,
            "count" : 242,
            "type" : "VEC3"
        },
        {
            "bufferView" : 27,
            "componentType" : 5123,
            "count" : 384,
            "type" : "SCALAR"
        }
    ],
    "bufferViews" : [
        {
            "buffer" : 0,
            "byteLength" : 25080,
            "byteOffset" : 0,
            "target" : 34962
        },
        {
            "buffer" : 0,
            "byteLength" : 16720,
            "byteOffset" : 25080,
            "target" : 34962
        },
        {
            "buffer" : 0,
            "byteLength" : 25080,
            "byteOffset" : 41800,
            "target" : 34962
        },
        {
            "buffer" : 0,
            "byteLength" : 6144,
            "byteOffset" : 66880,
            "target" : 34963
        },
        {
            "buffer" : 0,
            "byteLength" : 8352,
            "byteOffset" : 73024,
            "target" : 34962
        },
        {
            "buffer" : 0,
            "byteLength" : 5568,
            "byteOffset" : 81376,
            "target" : 34962
        },
        {
            "buffer" : 0,
            "byteLength" : 8352,
            "byteOffset" : 86944,
            "target" : 34962
        },
        {
            "buffer" : 0,
            "byteLength" : 2064,
            "byteOffset" : 95296,
            "target" : 34963
        },
        {
            "buffer" : 0,
            "byteLength" : 276,
            "byteOffset" : 97360,
            "target" : 34962
        },
        {
            "buffer" : 0,
            "byteLength" : 184,
            "byteOffset" : 97636,
            "target" : 34962
        },
        {
            "buffer" : 0,
            "byteLength" : 276,
            "byteOffset" : 97820,
            "target" : 34962
        },
        {
            "buffer" : 0,
            "byteLength" : 84,
            "byteOffset" : 98096,
            "target" : 34963
        },
        {
            "buffer" : 0,
            "byteLength" : 25176,
            "byteOffset" : 98180,
            "target" : 34962
        },
        {
            "buffer" : 0,
            "byteLength" : 16784,
            "byteOffset" : 123356,
            "target" : 34962
        },
        {
            "buffer" : 0,
            "byteLength" : 25176,
            "byteOffset" : 140140,
            "target" : 34962
        },
        {
            "buffer" : 0,
            "byteLength" : 6276,
            "byteOffset" : 165316,
            "target" : 34963
        },
        {
            "buffer" : 0,
            "byteLength" : 12192,
            "byteOffset" : 171592,
            "target" : 34962
        },
        {
            "buffer" : 0,
            "byteLength" : 8128,
            "byteOffset" : 183784,
            "target" : 34962
        },
        {
            "buffer" : 0,
            "byteLength" : 12192,
            "byteOffset" : 191912,
            "target" : 34962
        },
        {
            "buffer" : 0,
            "byteLength" : 2796,
            "byteOffset" : 204104,
            "target" : 34963
        },
        {
            "buffer" : 0,
            "byteLength" : 9600,
            "byteOffset" : 206900,
            "target" : 34962
        },
        {
            "buffer" : 0,
            "byteLength" : 6400,
            "byteOffset" : 216500,
            "target" : 34962
        },
        {
            "buffer" : 0,
            "byteLength" : 9600,
            "byteOffset" : 222900,
            "target" : 34962
        },
        {
            "buffer" : 0,
            "byteLength" : 1920,
            "byteOffset" : 232500,
            "target" : 34963
        },
        {
            "buffer" : 0,
            "byteLength" : 2904,
            "byteOffset" : 234420,
            "target" : 34962
        },
        {
            "buffer" : 0,
            "byteLength" : 1936,
            "byteOffset" : 237324,
            "target" : 34962
        },
        {
            "buffer" : 0,
            "byteLength" : 2904,
            "byteOffset" : 239260,
            "target" : 34962
        },
        {
            "buffer" : 0,
            "byteLength" : 768,
            "byteOffset" : 242164,
            "target" : 34963
        }
    ],
    "buffers" : [
        {
            "byteLength" : 242932,
            "uri" : "Cave-ea037a979e54e0e169f0c630311c7a57.bin"
        }
    ]
}
