{
    "asset" : {
        "generator" : "Khronos glTF Blender I/O v3.4.50",
        "version" : "2.0"
    },
    "scene" : 0,
    "scenes" : [
        {
            "name" : "Scene",
            "nodes" : [
                0
            ]
        }
    ],
    "nodes" : [
        {
            "mesh" : 0,
            "name" : "Gifts-col"
        }
    ],
    "materials" : [
        {
            "doubleSided" : true,
            "name" : "Material.001",
            "pbrMetallicRoughness" : {
                "baseColorFactor" : [
                    0.015810765326023102,
                    0.20530928671360016,
                    0.8000000715255737,
                    1
                ],
                "metallicFactor" : 0,
                "roughnessFactor" : 0.5
            }
        },
        {
            "doubleSided" : true,
            "name" : "Material.002",
            "pbrMetallicRoughness" : {
                "baseColorFactor" : [
                    0.8000000715255737,
                    0.037697046995162964,
                    0.07864385843276978,
                    1
                ],
                "metallicFactor" : 0,
                "roughnessFactor" : 0.5
            }
        },
        {
            "doubleSided" : true,
            "name" : "Material.003",
            "pbrMetallicRoughness" : {
                "baseColorFactor" : [
                    0.8000000715255737,
                    0.37392887473106384,
                    0.02982185408473015,
                    1
                ],
                "metallicFactor" : 0,
                "roughnessFactor" : 0.5
            }
        },
        {
            "doubleSided" : true,
            "name" : "Material.004",
            "pbrMetallicRoughness" : {
                "baseColorFactor" : [
                    0.8000000715255737,
                    0.25046658515930176,
                    0.7400840520858765,
                    1
                ],
                "metallicFactor" : 0,
                "roughnessFactor" : 0.5
            }
        },
        {
            "doubleSided" : true,
            "name" : "Material.005",
            "pbrMetallicRoughness" : {
                "baseColorFactor" : [
                    0.1943364292383194,
                    0.8000000715255737,
                    0.09575042128562927,
                    1
                ],
                "metallicFactor" : 0,
                "roughnessFactor" : 0.5
            }
        },
        {
            "doubleSided" : true,
            "name" : "Material.006",
            "pbrMetallicRoughness" : {
                "baseColorFactor" : [
                    0.0030385481659322977,
                    0.3658318817615509,
                    0.040963392704725266,
                    1
                ],
                "metallicFactor" : 0,
                "roughnessFactor" : 0.5
            }
        }
    ],
    "meshes" : [
        {
            "name" : "Cube.004",
            "primitives" : [
                {
                    "attributes" : {
                        "POSITION" : 0,
                        "TEXCOORD_0" : 1,
                        "NORMAL" : 2,
                        "TANGENT" : 3
                    },
                    "indices" : 4,
                    "material" : 0
                },
                {
                    "attributes" : {
                        "POSITION" : 5,
                        "TEXCOORD_0" : 6,
                        "NORMAL" : 7,
                        "TANGENT" : 8
                    },
                    "indices" : 9,
                    "material" : 1
                },
                {
                    "attributes" : {
                        "POSITION" : 10,
                        "TEXCOORD_0" : 11,
                        "NORMAL" : 12,
                        "TANGENT" : 13
                    },
                    "indices" : 14,
                    "material" : 2
                },
                {
                    "attributes" : {
                        "POSITION" : 15,
                        "TEXCOORD_0" : 16,
                        "NORMAL" : 17,
                        "TANGENT" : 18
                    },
                    "indices" : 19,
                    "material" : 3
                },
                {
                    "attributes" : {
                        "POSITION" : 20,
                        "TEXCOORD_0" : 21,
                        "NORMAL" : 22,
                        "TANGENT" : 23
                    },
                    "indices" : 24,
                    "material" : 4
                },
                {
                    "attributes" : {
                        "POSITION" : 25,
                        "TEXCOORD_0" : 26,
                        "NORMAL" : 27,
                        "TANGENT" : 28
                    },
                    "indices" : 29,
                    "material" : 5
                }
            ]
        }
    ],
    "accessors" : [
        {
            "bufferView" : 0,
            "componentType" : 5126,
            "count" : 485,
            "max" : [
                2.710829257965088,
                1.488648772239685,
                0.9958199262619019
            ],
            "min" : [
                1.0096811056137085,
                -0.5088592767715454,
                -0.7436809539794922
            ],
            "type" : "VEC3"
        },
        {
            "bufferView" : 1,
            "componentType" : 5126,
            "count" : 485,
            "type" : "VEC2"
        },
        {
            "bufferView" : 2,
            "componentType" : 5126,
            "count" : 485,
            "type" : "VEC3"
        },
        {
            "bufferView" : 3,
            "componentType" : 5126,
            "count" : 485,
            "type" : "VEC4"
        },
        {
            "bufferView" : 4,
            "componentType" : 5123,
            "count" : 687,
            "type" : "SCALAR"
        },
        {
            "bufferView" : 5,
            "componentType" : 5126,
            "count" : 861,
            "max" : [
                2.582979917526245,
                0.7290821075439453,
                2.3423120975494385
            ],
            "min" : [
                0.053934842348098755,
                -0.5467068552970886,
                0.8844856023788452
            ],
            "type" : "VEC3"
        },
        {
            "bufferView" : 6,
            "componentType" : 5126,
            "count" : 861,
            "type" : "VEC2"
        },
        {
            "bufferView" : 7,
            "componentType" : 5126,
            "count" : 861,
            "type" : "VEC3"
        },
        {
            "bufferView" : 8,
            "componentType" : 5126,
            "count" : 861,
            "type" : "VEC4"
        },
        {
            "bufferView" : 9,
            "componentType" : 5123,
            "count" : 1173,
            "type" : "SCALAR"
        },
        {
            "bufferView" : 10,
            "componentType" : 5126,
            "count" : 1172,
            "max" : [
                2.7446117401123047,
                1.5366569757461548,
                2.4208695888519287
            ],
            "min" : [
                -0.058705512434244156,
                -0.5476430058479309,
                -0.777438759803772
            ],
            "type" : "VEC3"
        },
        {
            "bufferView" : 11,
            "componentType" : 5126,
            "count" : 1172,
            "type" : "VEC2"
        },
        {
            "bufferView" : 12,
            "componentType" : 5126,
            "count" : 1172,
            "type" : "VEC3"
        },
        {
            "bufferView" : 13,
            "componentType" : 5126,
            "count" : 1172,
            "type" : "VEC4"
        },
        {
            "bufferView" : 14,
            "componentType" : 5123,
            "count" : 1620,
            "type" : "SCALAR"
        },
        {
            "bufferView" : 15,
            "componentType" : 5126,
            "count" : 262,
            "max" : [
                2.626150131225586,
                0.7040148973464966,
                2.3517799377441406
            ],
            "min" : [
                1.1840540170669556,
                -0.5088592767715454,
                0.8453565239906311
            ],
            "type" : "VEC3"
        },
        {
            "bufferView" : 16,
            "componentType" : 5126,
            "count" : 262,
            "type" : "VEC2"
        },
        {
            "bufferView" : 17,
            "componentType" : 5126,
            "count" : 262,
            "type" : "VEC3"
        },
        {
            "bufferView" : 18,
            "componentType" : 5126,
            "count" : 262,
            "type" : "VEC4"
        },
        {
            "bufferView" : 19,
            "componentType" : 5123,
            "count" : 372,
            "type" : "SCALAR"
        },
        {
            "bufferView" : 20,
            "componentType" : 5126,
            "count" : 294,
            "max" : [
                0.8333632349967957,
                0.5078305602073669,
                1.0093342065811157
            ],
            "min" : [
                -1.185305118560791,
                -0.5078305602073669,
                -1.0093342065811157
            ],
            "type" : "VEC3"
        },
        {
            "bufferView" : 21,
            "componentType" : 5126,
            "count" : 294,
            "type" : "VEC2"
        },
        {
            "bufferView" : 22,
            "componentType" : 5126,
            "count" : 294,
            "type" : "VEC3"
        },
        {
            "bufferView" : 23,
            "componentType" : 5126,
            "count" : 294,
            "type" : "VEC4"
        },
        {
            "bufferView" : 24,
            "componentType" : 5123,
            "count" : 414,
            "type" : "SCALAR"
        },
        {
            "bufferView" : 25,
            "componentType" : 5126,
            "count" : 810,
            "max" : [
                0.875296950340271,
                0.5674346685409546,
                1.0512678623199463
            ],
            "min" : [
                -1.2272387742996216,
                -0.5674346685409546,
                -1.0512678623199463
            ],
            "type" : "VEC3"
        },
        {
            "bufferView" : 26,
            "componentType" : 5126,
            "count" : 810,
            "type" : "VEC2"
        },
        {
            "bufferView" : 27,
            "componentType" : 5126,
            "count" : 810,
            "type" : "VEC3"
        },
        {
            "bufferView" : 28,
            "componentType" : 5126,
            "count" : 810,
            "type" : "VEC4"
        },
        {
            "bufferView" : 29,
            "componentType" : 5123,
            "count" : 1158,
            "type" : "SCALAR"
        }
    ],
    "bufferViews" : [
        {
            "buffer" : 0,
            "byteLength" : 5820,
            "byteOffset" : 0,
            "target" : 34962
        },
        {
            "buffer" : 0,
            "byteLength" : 3880,
            "byteOffset" : 5820,
            "target" : 34962
        },
        {
            "buffer" : 0,
            "byteLength" : 5820,
            "byteOffset" : 9700,
            "target" : 34962
        },
        {
            "buffer" : 0,
            "byteLength" : 7760,
            "byteOffset" : 15520,
            "target" : 34962
        },
        {
            "buffer" : 0,
            "byteLength" : 1374,
            "byteOffset" : 23280,
            "target" : 34963
        },
        {
            "buffer" : 0,
            "byteLength" : 10332,
            "byteOffset" : 24656,
            "target" : 34962
        },
        {
            "buffer" : 0,
            "byteLength" : 6888,
            "byteOffset" : 34988,
            "target" : 34962
        },
        {
            "buffer" : 0,
            "byteLength" : 10332,
            "byteOffset" : 41876,
            "target" : 34962
        },
        {
            "buffer" : 0,
            "byteLength" : 13776,
            "byteOffset" : 52208,
            "target" : 34962
        },
        {
            "buffer" : 0,
            "byteLength" : 2346,
            "byteOffset" : 65984,
            "target" : 34963
        },
        {
            "buffer" : 0,
            "byteLength" : 14064,
            "byteOffset" : 68332,
            "target" : 34962
        },
        {
            "buffer" : 0,
            "byteLength" : 9376,
            "byteOffset" : 82396,
            "target" : 34962
        },
        {
            "buffer" : 0,
            "byteLength" : 14064,
            "byteOffset" : 91772,
            "target" : 34962
        },
        {
            "buffer" : 0,
            "byteLength" : 18752,
            "byteOffset" : 105836,
            "target" : 34962
        },
        {
            "buffer" : 0,
            "byteLength" : 3240,
            "byteOffset" : 124588,
            "target" : 34963
        },
        {
            "buffer" : 0,
            "byteLength" : 3144,
            "byteOffset" : 127828,
            "target" : 34962
        },
        {
            "buffer" : 0,
            "byteLength" : 2096,
            "byteOffset" : 130972,
            "target" : 34962
        },
        {
            "buffer" : 0,
            "byteLength" : 3144,
            "byteOffset" : 133068,
            "target" : 34962
        },
        {
            "buffer" : 0,
            "byteLength" : 4192,
            "byteOffset" : 136212,
            "target" : 34962
        },
        {
            "buffer" : 0,
            "byteLength" : 744,
            "byteOffset" : 140404,
            "target" : 34963
        },
        {
            "buffer" : 0,
            "byteLength" : 3528,
            "byteOffset" : 141148,
            "target" : 34962
        },
        {
            "buffer" : 0,
            "byteLength" : 2352,
            "byteOffset" : 144676,
            "target" : 34962
        },
        {
            "buffer" : 0,
            "byteLength" : 3528,
            "byteOffset" : 147028,
            "target" : 34962
        },
        {
            "buffer" : 0,
            "byteLength" : 4704,
            "byteOffset" : 150556,
            "target" : 34962
        },
        {
            "buffer" : 0,
            "byteLength" : 828,
            "byteOffset" : 155260,
            "target" : 34963
        },
        {
            "buffer" : 0,
            "byteLength" : 9720,
            "byteOffset" : 156088,
            "target" : 34962
        },
        {
            "buffer" : 0,
            "byteLength" : 6480,
            "byteOffset" : 165808,
            "target" : 34962
        },
        {
            "buffer" : 0,
            "byteLength" : 9720,
            "byteOffset" : 172288,
            "target" : 34962
        },
        {
            "buffer" : 0,
            "byteLength" : 12960,
            "byteOffset" : 182008,
            "target" : 34962
        },
        {
            "buffer" : 0,
            "byteLength" : 2316,
            "byteOffset" : 194968,
            "target" : 34963
        }
    ],
    "buffers" : [
        {
            "byteLength" : 197284,
            "uri" : "Gifts-117c3a223dbd8ef62eaeaaf3730046a4.bin"
        }
    ]
}
