{
    "asset" : {
        "generator" : "Khronos glTF Blender I/O v3.4.50",
        "version" : "2.0"
    },
    "scene" : 0,
    "scenes" : [
        {
            "extras" : {
                "vseqf" : {
                    "vu" : -60.0
                }
            },
            "name" : "Scene",
            "nodes" : [
                0
            ]
        }
    ],
    "nodes" : [
        {
            "mesh" : 0,
            "name" : "TrainHouse-col"
        }
    ],
    "materials" : [
        {
            "doubleSided" : true,
            "name" : "Dark0",
            "pbrMetallicRoughness" : {
                "baseColorFactor" : [
                    0.09084168821573257,
                    0.043734997510910034,
                    0.00856813881546259,
                    1
                ],
                "metallicFactor" : 0,
                "roughnessFactor" : 0.5
            }
        },
        {
            "doubleSided" : true,
            "name" : "Mid1",
            "pbrMetallicRoughness" : {
                "baseColorFactor" : [
                    0.13563333451747894,
                    0.07818735390901566,
                    0.024157647043466568,
                    1
                ],
                "metallicFactor" : 0,
                "roughnessFactor" : 0.5
            }
        },
        {
            "doubleSided" : true,
            "name" : "Light2",
            "pbrMetallicRoughness" : {
                "baseColorFactor" : [
                    0.19461780786514282,
                    0.10946163535118103,
                    0.03310480713844299,
                    1
                ],
                "metallicFactor" : 0,
                "roughnessFactor" : 0.5
            }
        },
        {
            "doubleSided" : true,
            "name" : "Windows3",
            "pbrMetallicRoughness" : {
                "baseColorFactor" : [
                    1,
                    0.04091494157910347,
                    0.017641989514231682,
                    1
                ],
                "metallicFactor" : 0,
                "roughnessFactor" : 0.5
            }
        },
        {
            "doubleSided" : true,
            "name" : "Green4",
            "pbrMetallicRoughness" : {
                "baseColorFactor" : [
                    0.09758708626031876,
                    0.26225051283836365,
                    0.14995986223220825,
                    1
                ],
                "metallicFactor" : 0,
                "roughnessFactor" : 0.5
            }
        },
        {
            "doubleSided" : true,
            "name" : "BlackHole5",
            "pbrMetallicRoughness" : {
                "baseColorFactor" : [
                    0,
                    0,
                    0,
                    1
                ],
                "metallicFactor" : 0,
                "roughnessFactor" : 0.5
            }
        }
    ],
    "meshes" : [
        {
            "name" : "Cube.001",
            "primitives" : [
                {
                    "attributes" : {
                        "POSITION" : 0,
                        "TEXCOORD_0" : 1,
                        "NORMAL" : 2
                    },
                    "indices" : 3,
                    "material" : 0
                },
                {
                    "attributes" : {
                        "POSITION" : 4,
                        "TEXCOORD_0" : 5,
                        "NORMAL" : 6
                    },
                    "indices" : 7,
                    "material" : 1
                },
                {
                    "attributes" : {
                        "POSITION" : 8,
                        "TEXCOORD_0" : 9,
                        "NORMAL" : 10
                    },
                    "indices" : 11,
                    "material" : 2
                },
                {
                    "attributes" : {
                        "POSITION" : 12,
                        "TEXCOORD_0" : 13,
                        "NORMAL" : 14
                    },
                    "indices" : 15,
                    "material" : 3
                },
                {
                    "attributes" : {
                        "POSITION" : 16,
                        "TEXCOORD_0" : 17,
                        "NORMAL" : 18
                    },
                    "indices" : 19,
                    "material" : 4
                },
                {
                    "attributes" : {
                        "POSITION" : 20,
                        "TEXCOORD_0" : 21,
                        "NORMAL" : 22
                    },
                    "indices" : 23,
                    "material" : 5
                }
            ]
        }
    ],
    "accessors" : [
        {
            "bufferView" : 0,
            "componentType" : 5126,
            "count" : 414,
            "max" : [
                6.380966663360596,
                9.051916122436523,
                -29.891773223876953
            ],
            "min" : [
                -10.101134300231934,
                -1.8361387252807617,
                -59.3454704284668
            ],
            "type" : "VEC3"
        },
        {
            "bufferView" : 1,
            "componentType" : 5126,
            "count" : 414,
            "type" : "VEC2"
        },
        {
            "bufferView" : 2,
            "componentType" : 5126,
            "count" : 414,
            "type" : "VEC3"
        },
        {
            "bufferView" : 3,
            "componentType" : 5123,
            "count" : 654,
            "type" : "SCALAR"
        },
        {
            "bufferView" : 4,
            "componentType" : 5126,
            "count" : 5397,
            "max" : [
                8.703185081481934,
                16.524505615234375,
                -24.555612564086914
            ],
            "min" : [
                -13.343048095703125,
                -2.0339739322662354,
                -64.93731689453125
            ],
            "type" : "VEC3"
        },
        {
            "bufferView" : 5,
            "componentType" : 5126,
            "count" : 5397,
            "type" : "VEC2"
        },
        {
            "bufferView" : 6,
            "componentType" : 5126,
            "count" : 5397,
            "type" : "VEC3"
        },
        {
            "bufferView" : 7,
            "componentType" : 5123,
            "count" : 8160,
            "type" : "SCALAR"
        },
        {
            "bufferView" : 8,
            "componentType" : 5126,
            "count" : 122,
            "max" : [
                0.702602207660675,
                14.29947280883789,
                -29.63018035888672
            ],
            "min" : [
                -12.753710746765137,
                -1.041846513748169,
                -59.193809509277344
            ],
            "type" : "VEC3"
        },
        {
            "bufferView" : 9,
            "componentType" : 5126,
            "count" : 122,
            "type" : "VEC2"
        },
        {
            "bufferView" : 10,
            "componentType" : 5126,
            "count" : 122,
            "type" : "VEC3"
        },
        {
            "bufferView" : 11,
            "componentType" : 5123,
            "count" : 192,
            "type" : "SCALAR"
        },
        {
            "bufferView" : 12,
            "componentType" : 5126,
            "count" : 40,
            "max" : [
                6.123354434967041,
                5.392248153686523,
                -30.09546661376953
            ],
            "min" : [
                -9.428174018859863,
                1.6951751708984375,
                -59.14177703857422
            ],
            "type" : "VEC3"
        },
        {
            "bufferView" : 13,
            "componentType" : 5126,
            "count" : 40,
            "type" : "VEC2"
        },
        {
            "bufferView" : 14,
            "componentType" : 5126,
            "count" : 40,
            "type" : "VEC3"
        },
        {
            "bufferView" : 15,
            "componentType" : 5123,
            "count" : 60,
            "type" : "SCALAR"
        },
        {
            "bufferView" : 16,
            "componentType" : 5126,
            "count" : 828,
            "max" : [
                7.874673843383789,
                14.902381896972656,
                -25.384124755859375
            ],
            "min" : [
                -11.122542381286621,
                8.739891052246094,
                -64.10880279541016
            ],
            "type" : "VEC3"
        },
        {
            "bufferView" : 17,
            "componentType" : 5126,
            "count" : 828,
            "type" : "VEC2"
        },
        {
            "bufferView" : 18,
            "componentType" : 5126,
            "count" : 828,
            "type" : "VEC3"
        },
        {
            "bufferView" : 19,
            "componentType" : 5123,
            "count" : 1326,
            "type" : "SCALAR"
        },
        {
            "bufferView" : 20,
            "componentType" : 5126,
            "count" : 7,
            "max" : [
                -9.631868362426758,
                4.066251277923584,
                -41.28997802734375
            ],
            "min" : [
                -9.631868362426758,
                -1.8103816509246826,
                -47.947265625
            ],
            "type" : "VEC3"
        },
        {
            "bufferView" : 21,
            "componentType" : 5126,
            "count" : 7,
            "type" : "VEC2"
        },
        {
            "bufferView" : 22,
            "componentType" : 5126,
            "count" : 7,
            "type" : "VEC3"
        },
        {
            "bufferView" : 23,
            "componentType" : 5123,
            "count" : 15,
            "type" : "SCALAR"
        }
    ],
    "bufferViews" : [
        {
            "buffer" : 0,
            "byteLength" : 4968,
            "byteOffset" : 0,
            "target" : 34962
        },
        {
            "buffer" : 0,
            "byteLength" : 3312,
            "byteOffset" : 4968,
            "target" : 34962
        },
        {
            "buffer" : 0,
            "byteLength" : 4968,
            "byteOffset" : 8280,
            "target" : 34962
        },
        {
            "buffer" : 0,
            "byteLength" : 1308,
            "byteOffset" : 13248,
            "target" : 34963
        },
        {
            "buffer" : 0,
            "byteLength" : 64764,
            "byteOffset" : 14556,
            "target" : 34962
        },
        {
            "buffer" : 0,
            "byteLength" : 43176,
            "byteOffset" : 79320,
            "target" : 34962
        },
        {
            "buffer" : 0,
            "byteLength" : 64764,
            "byteOffset" : 122496,
            "target" : 34962
        },
        {
            "buffer" : 0,
            "byteLength" : 16320,
            "byteOffset" : 187260,
            "target" : 34963
        },
        {
            "buffer" : 0,
            "byteLength" : 1464,
            "byteOffset" : 203580,
            "target" : 34962
        },
        {
            "buffer" : 0,
            "byteLength" : 976,
            "byteOffset" : 205044,
            "target" : 34962
        },
        {
            "buffer" : 0,
            "byteLength" : 1464,
            "byteOffset" : 206020,
            "target" : 34962
        },
        {
            "buffer" : 0,
            "byteLength" : 384,
            "byteOffset" : 207484,
            "target" : 34963
        },
        {
            "buffer" : 0,
            "byteLength" : 480,
            "byteOffset" : 207868,
            "target" : 34962
        },
        {
            "buffer" : 0,
            "byteLength" : 320,
            "byteOffset" : 208348,
            "target" : 34962
        },
        {
            "buffer" : 0,
            "byteLength" : 480,
            "byteOffset" : 208668,
            "target" : 34962
        },
        {
            "buffer" : 0,
            "byteLength" : 120,
            "byteOffset" : 209148,
            "target" : 34963
        },
        {
            "buffer" : 0,
            "byteLength" : 9936,
            "byteOffset" : 209268,
            "target" : 34962
        },
        {
            "buffer" : 0,
            "byteLength" : 6624,
            "byteOffset" : 219204,
            "target" : 34962
        },
        {
            "buffer" : 0,
            "byteLength" : 9936,
            "byteOffset" : 225828,
            "target" : 34962
        },
        {
            "buffer" : 0,
            "byteLength" : 2652,
            "byteOffset" : 235764,
            "target" : 34963
        },
        {
            "buffer" : 0,
            "byteLength" : 84,
            "byteOffset" : 238416,
            "target" : 34962
        },
        {
            "buffer" : 0,
            "byteLength" : 56,
            "byteOffset" : 238500,
            "target" : 34962
        },
        {
            "buffer" : 0,
            "byteLength" : 84,
            "byteOffset" : 238556,
            "target" : 34962
        },
        {
            "buffer" : 0,
            "byteLength" : 30,
            "byteOffset" : 238640,
            "target" : 34963
        }
    ],
    "buffers" : [
        {
            "byteLength" : 238672,
            "uri" : "TrainHouse-5d2d335b8bf47b8f1c5420aeda21b17e.bin"
        }
    ]
}
