{
    "asset" : {
        "generator" : "Khronos glTF Blender I/O v3.4.50",
        "version" : "2.0"
    },
    "scene" : 0,
    "scenes" : [
        {
            "extras" : {
                "vseqf" : {
                    "vu" : -60.0
                }
            },
            "name" : "Scene",
            "nodes" : [
                0
            ]
        }
    ],
    "nodes" : [
        {
            "mesh" : 0,
            "name" : "TrainHouse-col",
            "scale" : [
                0.30000001192092896,
                0.30000001192092896,
                0.30000001192092896
            ]
        }
    ],
    "materials" : [
        {
            "doubleSided" : true,
            "name" : "Dark0",
            "pbrMetallicRoughness" : {
                "baseColorFactor" : [
                    0.09084168821573257,
                    0.043734997510910034,
                    0.00856813881546259,
                    1
                ],
                "metallicFactor" : 0,
                "roughnessFactor" : 0.5
            }
        },
        {
            "doubleSided" : true,
            "name" : "Mid1",
            "pbrMetallicRoughness" : {
                "baseColorFactor" : [
                    0.13563333451747894,
                    0.07818735390901566,
                    0.024157647043466568,
                    1
                ],
                "metallicFactor" : 0,
                "roughnessFactor" : 0.5
            }
        },
        {
            "doubleSided" : true,
            "name" : "Light2",
            "pbrMetallicRoughness" : {
                "baseColorFactor" : [
                    0.19461780786514282,
                    0.10946163535118103,
                    0.03310480713844299,
                    1
                ],
                "metallicFactor" : 0,
                "roughnessFactor" : 0.5
            }
        },
        {
            "doubleSided" : true,
            "name" : "Windows3",
            "pbrMetallicRoughness" : {
                "baseColorFactor" : [
                    1,
                    0.04091494157910347,
                    0.017641989514231682,
                    1
                ],
                "metallicFactor" : 0,
                "roughnessFactor" : 0.5
            }
        },
        {
            "doubleSided" : true,
            "name" : "Green4",
            "pbrMetallicRoughness" : {
                "baseColorFactor" : [
                    0.09758708626031876,
                    0.26225051283836365,
                    0.14995986223220825,
                    1
                ],
                "metallicFactor" : 0,
                "roughnessFactor" : 0.5
            }
        },
        {
            "doubleSided" : true,
            "name" : "BlackHole5",
            "pbrMetallicRoughness" : {
                "baseColorFactor" : [
                    0,
                    0,
                    0,
                    1
                ],
                "metallicFactor" : 0,
                "roughnessFactor" : 0.5
            }
        }
    ],
    "meshes" : [
        {
            "name" : "Cube.001",
            "primitives" : [
                {
                    "attributes" : {
                        "POSITION" : 0,
                        "TEXCOORD_0" : 1,
                        "NORMAL" : 2
                    },
                    "indices" : 3,
                    "material" : 0
                },
                {
                    "attributes" : {
                        "POSITION" : 4,
                        "TEXCOORD_0" : 5,
                        "NORMAL" : 6
                    },
                    "indices" : 7,
                    "material" : 1
                },
                {
                    "attributes" : {
                        "POSITION" : 8,
                        "TEXCOORD_0" : 9,
                        "NORMAL" : 10
                    },
                    "indices" : 11,
                    "material" : 2
                },
                {
                    "attributes" : {
                        "POSITION" : 12,
                        "TEXCOORD_0" : 13,
                        "NORMAL" : 14
                    },
                    "indices" : 15,
                    "material" : 3
                },
                {
                    "attributes" : {
                        "POSITION" : 16,
                        "TEXCOORD_0" : 17,
                        "NORMAL" : 18
                    },
                    "indices" : 19,
                    "material" : 4
                },
                {
                    "attributes" : {
                        "POSITION" : 20,
                        "TEXCOORD_0" : 21,
                        "NORMAL" : 22
                    },
                    "indices" : 23,
                    "material" : 5
                }
            ]
        }
    ],
    "accessors" : [
        {
            "bufferView" : 0,
            "componentType" : 5126,
            "count" : 407,
            "max" : [
                9.919633865356445,
                1.358309268951416,
                14.616752624511719
            ],
            "min" : [
                -6.562467575073242,
                -9.529745101928711,
                -14.836944580078125
            ],
            "type" : "VEC3"
        },
        {
            "bufferView" : 1,
            "componentType" : 5126,
            "count" : 407,
            "type" : "VEC2"
        },
        {
            "bufferView" : 2,
            "componentType" : 5126,
            "count" : 407,
            "type" : "VEC3"
        },
        {
            "bufferView" : 3,
            "componentType" : 5123,
            "count" : 654,
            "type" : "SCALAR"
        },
        {
            "bufferView" : 4,
            "componentType" : 5126,
            "count" : 5420,
            "max" : [
                12.241851806640625,
                8.83089828491211,
                19.952913284301758
            ],
            "min" : [
                -9.804381370544434,
                -9.727581024169922,
                -20.428791046142578
            ],
            "type" : "VEC3"
        },
        {
            "bufferView" : 5,
            "componentType" : 5126,
            "count" : 5420,
            "type" : "VEC2"
        },
        {
            "bufferView" : 6,
            "componentType" : 5126,
            "count" : 5420,
            "type" : "VEC3"
        },
        {
            "bufferView" : 7,
            "componentType" : 5123,
            "count" : 8160,
            "type" : "SCALAR"
        },
        {
            "bufferView" : 8,
            "componentType" : 5126,
            "count" : 120,
            "max" : [
                4.241269111633301,
                6.605865955352783,
                14.878345489501953
            ],
            "min" : [
                -9.215044021606445,
                -8.735453605651855,
                -14.685283660888672
            ],
            "type" : "VEC3"
        },
        {
            "bufferView" : 9,
            "componentType" : 5126,
            "count" : 120,
            "type" : "VEC2"
        },
        {
            "bufferView" : 10,
            "componentType" : 5126,
            "count" : 120,
            "type" : "VEC3"
        },
        {
            "bufferView" : 11,
            "componentType" : 5123,
            "count" : 192,
            "type" : "SCALAR"
        },
        {
            "bufferView" : 12,
            "componentType" : 5126,
            "count" : 40,
            "max" : [
                9.66202163696289,
                -2.301358699798584,
                14.41305923461914
            ],
            "min" : [
                -5.889507293701172,
                -5.99843168258667,
                -14.633251190185547
            ],
            "type" : "VEC3"
        },
        {
            "bufferView" : 13,
            "componentType" : 5126,
            "count" : 40,
            "type" : "VEC2"
        },
        {
            "bufferView" : 14,
            "componentType" : 5126,
            "count" : 40,
            "type" : "VEC3"
        },
        {
            "bufferView" : 15,
            "componentType" : 5123,
            "count" : 60,
            "type" : "SCALAR"
        },
        {
            "bufferView" : 16,
            "componentType" : 5126,
            "count" : 820,
            "max" : [
                11.41334056854248,
                7.208775043487549,
                19.124401092529297
            ],
            "min" : [
                -7.58387565612793,
                1.0462841987609863,
                -19.600276947021484
            ],
            "type" : "VEC3"
        },
        {
            "bufferView" : 17,
            "componentType" : 5126,
            "count" : 820,
            "type" : "VEC2"
        },
        {
            "bufferView" : 18,
            "componentType" : 5126,
            "count" : 820,
            "type" : "VEC3"
        },
        {
            "bufferView" : 19,
            "componentType" : 5123,
            "count" : 1326,
            "type" : "SCALAR"
        },
        {
            "bufferView" : 20,
            "componentType" : 5126,
            "count" : 7,
            "max" : [
                -6.093201637268066,
                -3.6273555755615234,
                3.218547821044922
            ],
            "min" : [
                -6.093201637268066,
                -9.503988265991211,
                -3.438739776611328
            ],
            "type" : "VEC3"
        },
        {
            "bufferView" : 21,
            "componentType" : 5126,
            "count" : 7,
            "type" : "VEC2"
        },
        {
            "bufferView" : 22,
            "componentType" : 5126,
            "count" : 7,
            "type" : "VEC3"
        },
        {
            "bufferView" : 23,
            "componentType" : 5123,
            "count" : 15,
            "type" : "SCALAR"
        }
    ],
    "bufferViews" : [
        {
            "buffer" : 0,
            "byteLength" : 4884,
            "byteOffset" : 0,
            "target" : 34962
        },
        {
            "buffer" : 0,
            "byteLength" : 3256,
            "byteOffset" : 4884,
            "target" : 34962
        },
        {
            "buffer" : 0,
            "byteLength" : 4884,
            "byteOffset" : 8140,
            "target" : 34962
        },
        {
            "buffer" : 0,
            "byteLength" : 1308,
            "byteOffset" : 13024,
            "target" : 34963
        },
        {
            "buffer" : 0,
            "byteLength" : 65040,
            "byteOffset" : 14332,
            "target" : 34962
        },
        {
            "buffer" : 0,
            "byteLength" : 43360,
            "byteOffset" : 79372,
            "target" : 34962
        },
        {
            "buffer" : 0,
            "byteLength" : 65040,
            "byteOffset" : 122732,
            "target" : 34962
        },
        {
            "buffer" : 0,
            "byteLength" : 16320,
            "byteOffset" : 187772,
            "target" : 34963
        },
        {
            "buffer" : 0,
            "byteLength" : 1440,
            "byteOffset" : 204092,
            "target" : 34962
        },
        {
            "buffer" : 0,
            "byteLength" : 960,
            "byteOffset" : 205532,
            "target" : 34962
        },
        {
            "buffer" : 0,
            "byteLength" : 1440,
            "byteOffset" : 206492,
            "target" : 34962
        },
        {
            "buffer" : 0,
            "byteLength" : 384,
            "byteOffset" : 207932,
            "target" : 34963
        },
        {
            "buffer" : 0,
            "byteLength" : 480,
            "byteOffset" : 208316,
            "target" : 34962
        },
        {
            "buffer" : 0,
            "byteLength" : 320,
            "byteOffset" : 208796,
            "target" : 34962
        },
        {
            "buffer" : 0,
            "byteLength" : 480,
            "byteOffset" : 209116,
            "target" : 34962
        },
        {
            "buffer" : 0,
            "byteLength" : 120,
            "byteOffset" : 209596,
            "target" : 34963
        },
        {
            "buffer" : 0,
            "byteLength" : 9840,
            "byteOffset" : 209716,
            "target" : 34962
        },
        {
            "buffer" : 0,
            "byteLength" : 6560,
            "byteOffset" : 219556,
            "target" : 34962
        },
        {
            "buffer" : 0,
            "byteLength" : 9840,
            "byteOffset" : 226116,
            "target" : 34962
        },
        {
            "buffer" : 0,
            "byteLength" : 2652,
            "byteOffset" : 235956,
            "target" : 34963
        },
        {
            "buffer" : 0,
            "byteLength" : 84,
            "byteOffset" : 238608,
            "target" : 34962
        },
        {
            "buffer" : 0,
            "byteLength" : 56,
            "byteOffset" : 238692,
            "target" : 34962
        },
        {
            "buffer" : 0,
            "byteLength" : 84,
            "byteOffset" : 238748,
            "target" : 34962
        },
        {
            "buffer" : 0,
            "byteLength" : 30,
            "byteOffset" : 238832,
            "target" : 34963
        }
    ],
    "buffers" : [
        {
            "byteLength" : 238864,
            "uri" : "TrainHouse-8ac9c777b3cff4ee258f754bac2f15eb.bin"
        }
    ]
}
