{
    "asset" : {
        "generator" : "Khronos glTF Blender I/O v3.4.50",
        "version" : "2.0"
    },
    "extensionsUsed" : [
        "KHR_materials_emissive_strength"
    ],
    "scene" : 0,
    "scenes" : [
        {
            "extras" : {
                "vseqf" : {
                    "vu" : -60.0
                }
            },
            "name" : "Scene",
            "nodes" : [
                0
            ]
        }
    ],
    "nodes" : [
        {
            "mesh" : 0,
            "name" : "Kart-col",
            "translation" : [
                33.234527587890625,
                2.539653778076172,
                1.377331256866455
            ]
        }
    ],
    "materials" : [
        {
            "doubleSided" : true,
            "name" : "BrightWood",
            "pbrMetallicRoughness" : {
                "baseColorFactor" : [
                    0.1940414160490036,
                    0.10934598743915558,
                    0.03253602981567383,
                    1
                ],
                "metallicFactor" : 0,
                "roughnessFactor" : 0.5
            }
        },
        {
            "doubleSided" : true,
            "name" : "Beams1",
            "pbrMetallicRoughness" : {
                "baseColorFactor" : [
                    0.13563333451747894,
                    0.07818735390901566,
                    0.024157647043466568,
                    1
                ],
                "metallicFactor" : 0,
                "roughnessFactor" : 0.5
            }
        },
        {
            "doubleSided" : true,
            "name" : "Dark2",
            "pbrMetallicRoughness" : {
                "baseColorFactor" : [
                    0.09084168821573257,
                    0.043734997510910034,
                    0.00856813881546259,
                    1
                ],
                "metallicFactor" : 0,
                "roughnessFactor" : 0.5
            }
        },
        {
            "doubleSided" : true,
            "name" : "Push3",
            "pbrMetallicRoughness" : {
                "baseColorFactor" : [
                    1,
                    0,
                    0,
                    1
                ],
                "metallicFactor" : 0,
                "roughnessFactor" : 0.5
            }
        },
        {
            "doubleSided" : true,
            "name" : "Green4",
            "pbrMetallicRoughness" : {
                "baseColorFactor" : [
                    0.09758708626031876,
                    0.26225051283836365,
                    0.14995986223220825,
                    1
                ],
                "metallicFactor" : 0,
                "roughnessFactor" : 0.5
            }
        },
        {
            "doubleSided" : true,
            "emissiveFactor" : [
                1,
                0.04139069467782974,
                0.01735471561551094
            ],
            "extensions" : {
                "KHR_materials_emissive_strength" : {
                    "emissiveStrength" : 25
                }
            },
            "name" : "Windows5",
            "pbrMetallicRoughness" : {
                "baseColorFactor" : [
                    0,
                    0,
                    0,
                    1
                ]
            }
        },
        {
            "doubleSided" : true,
            "name" : "Gold6",
            "pbrMetallicRoughness" : {
                "baseColorFactor" : [
                    1,
                    0.6795420050621033,
                    0,
                    1
                ],
                "metallicFactor" : 0,
                "roughnessFactor" : 0.5
            }
        },
        {
            "doubleSided" : true,
            "name" : "Orange7",
            "pbrMetallicRoughness" : {
                "baseColorFactor" : [
                    1,
                    0.3864291310310364,
                    0.043735161423683167,
                    1
                ],
                "metallicFactor" : 0,
                "roughnessFactor" : 0.5
            }
        },
        {
            "doubleSided" : true,
            "name" : "BrightGray8",
            "pbrMetallicRoughness" : {
                "baseColorFactor" : [
                    0.2581826448440552,
                    0.25818270444869995,
                    0.25818294286727905,
                    1
                ],
                "metallicFactor" : 0,
                "roughnessFactor" : 0.5
            }
        },
        {
            "doubleSided" : true,
            "name" : "MidGray9",
            "pbrMetallicRoughness" : {
                "baseColorFactor" : [
                    0.10224159806966782,
                    0.1022416204214096,
                    0.10224170982837677,
                    1
                ],
                "metallicFactor" : 0,
                "roughnessFactor" : 0.5
            }
        },
        {
            "doubleSided" : true,
            "name" : "DarkGrey10",
            "pbrMetallicRoughness" : {
                "baseColorFactor" : [
                    0.06480319797992706,
                    0.06480321288108826,
                    0.06480327248573303,
                    1
                ],
                "metallicFactor" : 0,
                "roughnessFactor" : 0.5
            }
        }
    ],
    "meshes" : [
        {
            "name" : "Cube.014",
            "primitives" : [
                {
                    "attributes" : {
                        "POSITION" : 0,
                        "TEXCOORD_0" : 1,
                        "NORMAL" : 2
                    },
                    "indices" : 3,
                    "material" : 0
                },
                {
                    "attributes" : {
                        "POSITION" : 4,
                        "TEXCOORD_0" : 5,
                        "NORMAL" : 6
                    },
                    "indices" : 7,
                    "material" : 1
                },
                {
                    "attributes" : {
                        "POSITION" : 8,
                        "TEXCOORD_0" : 9,
                        "NORMAL" : 10
                    },
                    "indices" : 11,
                    "material" : 2
                },
                {
                    "attributes" : {
                        "POSITION" : 12,
                        "TEXCOORD_0" : 13,
                        "NORMAL" : 14
                    },
                    "indices" : 15,
                    "material" : 3
                },
                {
                    "attributes" : {
                        "POSITION" : 16,
                        "TEXCOORD_0" : 17,
                        "NORMAL" : 18
                    },
                    "indices" : 19,
                    "material" : 4
                },
                {
                    "attributes" : {
                        "POSITION" : 20,
                        "TEXCOORD_0" : 21,
                        "NORMAL" : 22
                    },
                    "indices" : 23,
                    "material" : 5
                },
                {
                    "attributes" : {
                        "POSITION" : 24,
                        "TEXCOORD_0" : 25,
                        "NORMAL" : 26
                    },
                    "indices" : 27,
                    "material" : 6
                },
                {
                    "attributes" : {
                        "POSITION" : 28,
                        "TEXCOORD_0" : 29,
                        "NORMAL" : 30
                    },
                    "indices" : 31,
                    "material" : 7
                },
                {
                    "attributes" : {
                        "POSITION" : 32,
                        "TEXCOORD_0" : 33,
                        "NORMAL" : 34
                    },
                    "indices" : 35,
                    "material" : 8
                },
                {
                    "attributes" : {
                        "POSITION" : 36,
                        "TEXCOORD_0" : 37,
                        "NORMAL" : 38
                    },
                    "indices" : 39,
                    "material" : 9
                },
                {
                    "attributes" : {
                        "POSITION" : 40,
                        "TEXCOORD_0" : 41,
                        "NORMAL" : 42
                    },
                    "indices" : 43,
                    "material" : 10
                }
            ]
        }
    ],
    "accessors" : [
        {
            "bufferView" : 0,
            "componentType" : 5126,
            "count" : 3281,
            "max" : [
                4.932703018188477,
                7.7017340660095215,
                17.46206283569336
            ],
            "min" : [
                -4.316993713378906,
                0.0024085044860839844,
                -5.659301280975342
            ],
            "type" : "VEC3"
        },
        {
            "bufferView" : 1,
            "componentType" : 5126,
            "count" : 3281,
            "type" : "VEC2"
        },
        {
            "bufferView" : 2,
            "componentType" : 5126,
            "count" : 3281,
            "type" : "VEC3"
        },
        {
            "bufferView" : 3,
            "componentType" : 5123,
            "count" : 5085,
            "type" : "SCALAR"
        },
        {
            "bufferView" : 4,
            "componentType" : 5126,
            "count" : 9781,
            "max" : [
                5.084940433502197,
                7.646330833435059,
                17.5678653717041
            ],
            "min" : [
                -4.43394136428833,
                -1.2451773881912231,
                -5.6828765869140625
            ],
            "type" : "VEC3"
        },
        {
            "bufferView" : 5,
            "componentType" : 5126,
            "count" : 9781,
            "type" : "VEC2"
        },
        {
            "bufferView" : 6,
            "componentType" : 5126,
            "count" : 9781,
            "type" : "VEC3"
        },
        {
            "bufferView" : 7,
            "componentType" : 5123,
            "count" : 14463,
            "type" : "SCALAR"
        },
        {
            "bufferView" : 8,
            "componentType" : 5126,
            "count" : 1040,
            "max" : [
                4.114245414733887,
                5.385311126708984,
                13.090343475341797
            ],
            "min" : [
                -3.796966552734375,
                3.1068644523620605,
                -2.6083436012268066
            ],
            "type" : "VEC3"
        },
        {
            "bufferView" : 9,
            "componentType" : 5126,
            "count" : 1040,
            "type" : "VEC2"
        },
        {
            "bufferView" : 10,
            "componentType" : 5126,
            "count" : 1040,
            "type" : "VEC3"
        },
        {
            "bufferView" : 11,
            "componentType" : 5123,
            "count" : 1506,
            "type" : "SCALAR"
        },
        {
            "bufferView" : 12,
            "componentType" : 5126,
            "count" : 1186,
            "max" : [
                4.304882049560547,
                0.26978540420532227,
                20.116901397705078
            ],
            "min" : [
                -4.140773773193359,
                -1.3374955654144287,
                17.479982376098633
            ],
            "type" : "VEC3"
        },
        {
            "bufferView" : 13,
            "componentType" : 5126,
            "count" : 1186,
            "type" : "VEC2"
        },
        {
            "bufferView" : 14,
            "componentType" : 5126,
            "count" : 1186,
            "type" : "VEC3"
        },
        {
            "bufferView" : 15,
            "componentType" : 5123,
            "count" : 1698,
            "type" : "SCALAR"
        },
        {
            "bufferView" : 16,
            "componentType" : 5126,
            "count" : 2617,
            "max" : [
                4.480863571166992,
                6.606626510620117,
                17.5696964263916
            ],
            "min" : [
                -3.924656391143799,
                0.1961503028869629,
                -3.8953158855438232
            ],
            "type" : "VEC3"
        },
        {
            "bufferView" : 17,
            "componentType" : 5126,
            "count" : 2617,
            "type" : "VEC2"
        },
        {
            "bufferView" : 18,
            "componentType" : 5126,
            "count" : 2617,
            "type" : "VEC3"
        },
        {
            "bufferView" : 19,
            "componentType" : 5123,
            "count" : 4227,
            "type" : "SCALAR"
        },
        {
            "bufferView" : 20,
            "componentType" : 5126,
            "count" : 181,
            "max" : [
                4.019007205963135,
                5.202600002288818,
                17.199981689453125
            ],
            "min" : [
                -3.688098907470703,
                3.2880799770355225,
                -2.4267659187316895
            ],
            "type" : "VEC3"
        },
        {
            "bufferView" : 21,
            "componentType" : 5126,
            "count" : 181,
            "type" : "VEC2"
        },
        {
            "bufferView" : 22,
            "componentType" : 5126,
            "count" : 181,
            "type" : "VEC3"
        },
        {
            "bufferView" : 23,
            "componentType" : 5123,
            "count" : 315,
            "type" : "SCALAR"
        },
        {
            "bufferView" : 24,
            "componentType" : 5126,
            "count" : 3378,
            "max" : [
                3.5008163452148438,
                5.190423011779785,
                18.024816513061523
            ],
            "min" : [
                -3.01727294921875,
                -0.09191370010375977,
                12.986688613891602
            ],
            "type" : "VEC3"
        },
        {
            "bufferView" : 25,
            "componentType" : 5126,
            "count" : 3378,
            "type" : "VEC2"
        },
        {
            "bufferView" : 26,
            "componentType" : 5126,
            "count" : 3378,
            "type" : "VEC3"
        },
        {
            "bufferView" : 27,
            "componentType" : 5123,
            "count" : 5322,
            "type" : "SCALAR"
        },
        {
            "bufferView" : 28,
            "componentType" : 5126,
            "count" : 2561,
            "max" : [
                4.748970031738281,
                2.1031718254089355,
                15.785438537597656
            ],
            "min" : [
                -4.748973846435547,
                -0.6987094879150391,
                7.215087890625
            ],
            "type" : "VEC3"
        },
        {
            "bufferView" : 29,
            "componentType" : 5126,
            "count" : 2561,
            "type" : "VEC2"
        },
        {
            "bufferView" : 30,
            "componentType" : 5126,
            "count" : 2561,
            "type" : "VEC3"
        },
        {
            "bufferView" : 31,
            "componentType" : 5123,
            "count" : 3996,
            "type" : "SCALAR"
        },
        {
            "bufferView" : 32,
            "componentType" : 5126,
            "count" : 1248,
            "max" : [
                4.6375732421875,
                3.105191230773926,
                13.559053421020508
            ],
            "min" : [
                -4.637577056884766,
                -0.1827082633972168,
                -5.492647171020508
            ],
            "type" : "VEC3"
        },
        {
            "bufferView" : 33,
            "componentType" : 5126,
            "count" : 1248,
            "type" : "VEC2"
        },
        {
            "bufferView" : 34,
            "componentType" : 5126,
            "count" : 1248,
            "type" : "VEC3"
        },
        {
            "bufferView" : 35,
            "componentType" : 5123,
            "count" : 1716,
            "type" : "SCALAR"
        },
        {
            "bufferView" : 36,
            "componentType" : 5126,
            "count" : 2421,
            "max" : [
                4.821929931640625,
                6.594769477844238,
                17.58539581298828
            ],
            "min" : [
                -4.821933746337891,
                -0.7567849159240723,
                -5.602176189422607
            ],
            "type" : "VEC3"
        },
        {
            "bufferView" : 37,
            "componentType" : 5126,
            "count" : 2421,
            "type" : "VEC2"
        },
        {
            "bufferView" : 38,
            "componentType" : 5126,
            "count" : 2421,
            "type" : "VEC3"
        },
        {
            "bufferView" : 39,
            "componentType" : 5123,
            "count" : 3777,
            "type" : "SCALAR"
        },
        {
            "bufferView" : 40,
            "componentType" : 5126,
            "count" : 11742,
            "max" : [
                4.0234527587890625,
                1.3397388458251953,
                13.401500701904297
            ],
            "min" : [
                -4.0234527587890625,
                -1.397280216217041,
                -5.0730743408203125
            ],
            "type" : "VEC3"
        },
        {
            "bufferView" : 41,
            "componentType" : 5126,
            "count" : 11742,
            "type" : "VEC2"
        },
        {
            "bufferView" : 42,
            "componentType" : 5126,
            "count" : 11742,
            "type" : "VEC3"
        },
        {
            "bufferView" : 43,
            "componentType" : 5123,
            "count" : 18462,
            "type" : "SCALAR"
        }
    ],
    "bufferViews" : [
        {
            "buffer" : 0,
            "byteLength" : 39372,
            "byteOffset" : 0,
            "target" : 34962
        },
        {
            "buffer" : 0,
            "byteLength" : 26248,
            "byteOffset" : 39372,
            "target" : 34962
        },
        {
            "buffer" : 0,
            "byteLength" : 39372,
            "byteOffset" : 65620,
            "target" : 34962
        },
        {
            "buffer" : 0,
            "byteLength" : 10170,
            "byteOffset" : 104992,
            "target" : 34963
        },
        {
            "buffer" : 0,
            "byteLength" : 117372,
            "byteOffset" : 115164,
            "target" : 34962
        },
        {
            "buffer" : 0,
            "byteLength" : 78248,
            "byteOffset" : 232536,
            "target" : 34962
        },
        {
            "buffer" : 0,
            "byteLength" : 117372,
            "byteOffset" : 310784,
            "target" : 34962
        },
        {
            "buffer" : 0,
            "byteLength" : 28926,
            "byteOffset" : 428156,
            "target" : 34963
        },
        {
            "buffer" : 0,
            "byteLength" : 12480,
            "byteOffset" : 457084,
            "target" : 34962
        },
        {
            "buffer" : 0,
            "byteLength" : 8320,
            "byteOffset" : 469564,
            "target" : 34962
        },
        {
            "buffer" : 0,
            "byteLength" : 12480,
            "byteOffset" : 477884,
            "target" : 34962
        },
        {
            "buffer" : 0,
            "byteLength" : 3012,
            "byteOffset" : 490364,
            "target" : 34963
        },
        {
            "buffer" : 0,
            "byteLength" : 14232,
            "byteOffset" : 493376,
            "target" : 34962
        },
        {
            "buffer" : 0,
            "byteLength" : 9488,
            "byteOffset" : 507608,
            "target" : 34962
        },
        {
            "buffer" : 0,
            "byteLength" : 14232,
            "byteOffset" : 517096,
            "target" : 34962
        },
        {
            "buffer" : 0,
            "byteLength" : 3396,
            "byteOffset" : 531328,
            "target" : 34963
        },
        {
            "buffer" : 0,
            "byteLength" : 31404,
            "byteOffset" : 534724,
            "target" : 34962
        },
        {
            "buffer" : 0,
            "byteLength" : 20936,
            "byteOffset" : 566128,
            "target" : 34962
        },
        {
            "buffer" : 0,
            "byteLength" : 31404,
            "byteOffset" : 587064,
            "target" : 34962
        },
        {
            "buffer" : 0,
            "byteLength" : 8454,
            "byteOffset" : 618468,
            "target" : 34963
        },
        {
            "buffer" : 0,
            "byteLength" : 2172,
            "byteOffset" : 626924,
            "target" : 34962
        },
        {
            "buffer" : 0,
            "byteLength" : 1448,
            "byteOffset" : 629096,
            "target" : 34962
        },
        {
            "buffer" : 0,
            "byteLength" : 2172,
            "byteOffset" : 630544,
            "target" : 34962
        },
        {
            "buffer" : 0,
            "byteLength" : 630,
            "byteOffset" : 632716,
            "target" : 34963
        },
        {
            "buffer" : 0,
            "byteLength" : 40536,
            "byteOffset" : 633348,
            "target" : 34962
        },
        {
            "buffer" : 0,
            "byteLength" : 27024,
            "byteOffset" : 673884,
            "target" : 34962
        },
        {
            "buffer" : 0,
            "byteLength" : 40536,
            "byteOffset" : 700908,
            "target" : 34962
        },
        {
            "buffer" : 0,
            "byteLength" : 10644,
            "byteOffset" : 741444,
            "target" : 34963
        },
        {
            "buffer" : 0,
            "byteLength" : 30732,
            "byteOffset" : 752088,
            "target" : 34962
        },
        {
            "buffer" : 0,
            "byteLength" : 20488,
            "byteOffset" : 782820,
            "target" : 34962
        },
        {
            "buffer" : 0,
            "byteLength" : 30732,
            "byteOffset" : 803308,
            "target" : 34962
        },
        {
            "buffer" : 0,
            "byteLength" : 7992,
            "byteOffset" : 834040,
            "target" : 34963
        },
        {
            "buffer" : 0,
            "byteLength" : 14976,
            "byteOffset" : 842032,
            "target" : 34962
        },
        {
            "buffer" : 0,
            "byteLength" : 9984,
            "byteOffset" : 857008,
            "target" : 34962
        },
        {
            "buffer" : 0,
            "byteLength" : 14976,
            "byteOffset" : 866992,
            "target" : 34962
        },
        {
            "buffer" : 0,
            "byteLength" : 3432,
            "byteOffset" : 881968,
            "target" : 34963
        },
        {
            "buffer" : 0,
            "byteLength" : 29052,
            "byteOffset" : 885400,
            "target" : 34962
        },
        {
            "buffer" : 0,
            "byteLength" : 19368,
            "byteOffset" : 914452,
            "target" : 34962
        },
        {
            "buffer" : 0,
            "byteLength" : 29052,
            "byteOffset" : 933820,
            "target" : 34962
        },
        {
            "buffer" : 0,
            "byteLength" : 7554,
            "byteOffset" : 962872,
            "target" : 34963
        },
        {
            "buffer" : 0,
            "byteLength" : 140904,
            "byteOffset" : 970428,
            "target" : 34962
        },
        {
            "buffer" : 0,
            "byteLength" : 93936,
            "byteOffset" : 1111332,
            "target" : 34962
        },
        {
            "buffer" : 0,
            "byteLength" : 140904,
            "byteOffset" : 1205268,
            "target" : 34962
        },
        {
            "buffer" : 0,
            "byteLength" : 36924,
            "byteOffset" : 1346172,
            "target" : 34963
        }
    ],
    "buffers" : [
        {
            "byteLength" : 1383096,
            "uri" : "Train-ec002597b060d5288dd95d7217296370.bin"
        }
    ]
}
