{
    "asset" : {
        "generator" : "Khronos glTF Blender I/O v3.4.50",
        "version" : "2.0"
    },
    "extensionsUsed" : [
        "KHR_materials_emissive_strength"
    ],
    "scene" : 0,
    "scenes" : [
        {
            "extras" : {
                "vseqf" : {
                    "vu" : -60.0
                }
            },
            "name" : "Scene",
            "nodes" : [
                0
            ]
        }
    ],
    "nodes" : [
        {
            "mesh" : 0,
            "name" : "Kart-col",
            "scale" : [
                0.3499999940395355,
                0.3499999940395355,
                0.3499999940395355
            ]
        }
    ],
    "materials" : [
        {
            "doubleSided" : true,
            "name" : "BrightWood",
            "pbrMetallicRoughness" : {
                "baseColorFactor" : [
                    0.1940414160490036,
                    0.10934598743915558,
                    0.03253602981567383,
                    1
                ],
                "metallicFactor" : 0,
                "roughnessFactor" : 0.5
            }
        },
        {
            "doubleSided" : true,
            "name" : "Beams1",
            "pbrMetallicRoughness" : {
                "baseColorFactor" : [
                    0.13563333451747894,
                    0.07818735390901566,
                    0.024157647043466568,
                    1
                ],
                "metallicFactor" : 0,
                "roughnessFactor" : 0.5
            }
        },
        {
            "doubleSided" : true,
            "name" : "Dark2",
            "pbrMetallicRoughness" : {
                "baseColorFactor" : [
                    0.09084168821573257,
                    0.043734997510910034,
                    0.00856813881546259,
                    1
                ],
                "metallicFactor" : 0,
                "roughnessFactor" : 0.5
            }
        },
        {
            "doubleSided" : true,
            "name" : "Push3",
            "pbrMetallicRoughness" : {
                "baseColorFactor" : [
                    1,
                    0,
                    0,
                    1
                ],
                "metallicFactor" : 0,
                "roughnessFactor" : 0.5
            }
        },
        {
            "doubleSided" : true,
            "name" : "Green4",
            "pbrMetallicRoughness" : {
                "baseColorFactor" : [
                    0.09758708626031876,
                    0.26225051283836365,
                    0.14995986223220825,
                    1
                ],
                "metallicFactor" : 0,
                "roughnessFactor" : 0.5
            }
        },
        {
            "doubleSided" : true,
            "emissiveFactor" : [
                1,
                0.04139069467782974,
                0.01735471561551094
            ],
            "extensions" : {
                "KHR_materials_emissive_strength" : {
                    "emissiveStrength" : 25
                }
            },
            "name" : "Windows5",
            "pbrMetallicRoughness" : {
                "baseColorFactor" : [
                    0,
                    0,
                    0,
                    1
                ]
            }
        },
        {
            "doubleSided" : true,
            "name" : "Gold6",
            "pbrMetallicRoughness" : {
                "baseColorFactor" : [
                    1,
                    0.6795420050621033,
                    0,
                    1
                ],
                "metallicFactor" : 0,
                "roughnessFactor" : 0.5
            }
        },
        {
            "doubleSided" : true,
            "name" : "Orange7",
            "pbrMetallicRoughness" : {
                "baseColorFactor" : [
                    1,
                    0.3864291310310364,
                    0.043735161423683167,
                    1
                ],
                "metallicFactor" : 0,
                "roughnessFactor" : 0.5
            }
        },
        {
            "doubleSided" : true,
            "name" : "BrightGray8",
            "pbrMetallicRoughness" : {
                "baseColorFactor" : [
                    0.2581826448440552,
                    0.25818270444869995,
                    0.25818294286727905,
                    1
                ],
                "metallicFactor" : 0,
                "roughnessFactor" : 0.5
            }
        },
        {
            "doubleSided" : true,
            "name" : "MidGray9",
            "pbrMetallicRoughness" : {
                "baseColorFactor" : [
                    0.10224159806966782,
                    0.1022416204214096,
                    0.10224170982837677,
                    1
                ],
                "metallicFactor" : 0,
                "roughnessFactor" : 0.5
            }
        },
        {
            "doubleSided" : true,
            "name" : "DarkGrey10",
            "pbrMetallicRoughness" : {
                "baseColorFactor" : [
                    0.06480319797992706,
                    0.06480321288108826,
                    0.06480327248573303,
                    1
                ],
                "metallicFactor" : 0,
                "roughnessFactor" : 0.5
            }
        }
    ],
    "meshes" : [
        {
            "name" : "Cube.014",
            "primitives" : [
                {
                    "attributes" : {
                        "POSITION" : 0,
                        "TEXCOORD_0" : 1,
                        "NORMAL" : 2
                    },
                    "indices" : 3,
                    "material" : 0
                },
                {
                    "attributes" : {
                        "POSITION" : 4,
                        "TEXCOORD_0" : 5,
                        "NORMAL" : 6
                    },
                    "indices" : 7,
                    "material" : 1
                },
                {
                    "attributes" : {
                        "POSITION" : 8,
                        "TEXCOORD_0" : 9,
                        "NORMAL" : 10
                    },
                    "indices" : 11,
                    "material" : 2
                },
                {
                    "attributes" : {
                        "POSITION" : 12,
                        "TEXCOORD_0" : 13,
                        "NORMAL" : 14
                    },
                    "indices" : 15,
                    "material" : 3
                },
                {
                    "attributes" : {
                        "POSITION" : 16,
                        "TEXCOORD_0" : 17,
                        "NORMAL" : 18
                    },
                    "indices" : 19,
                    "material" : 4
                },
                {
                    "attributes" : {
                        "POSITION" : 20,
                        "TEXCOORD_0" : 21,
                        "NORMAL" : 22
                    },
                    "indices" : 23,
                    "material" : 5
                },
                {
                    "attributes" : {
                        "POSITION" : 24,
                        "TEXCOORD_0" : 25,
                        "NORMAL" : 26
                    },
                    "indices" : 27,
                    "material" : 6
                },
                {
                    "attributes" : {
                        "POSITION" : 28,
                        "TEXCOORD_0" : 29,
                        "NORMAL" : 30
                    },
                    "indices" : 31,
                    "material" : 7
                },
                {
                    "attributes" : {
                        "POSITION" : 32,
                        "TEXCOORD_0" : 33,
                        "NORMAL" : 34
                    },
                    "indices" : 35,
                    "material" : 8
                },
                {
                    "attributes" : {
                        "POSITION" : 36,
                        "TEXCOORD_0" : 37,
                        "NORMAL" : 38
                    },
                    "indices" : 39,
                    "material" : 9
                },
                {
                    "attributes" : {
                        "POSITION" : 40,
                        "TEXCOORD_0" : 41,
                        "NORMAL" : 42
                    },
                    "indices" : 43,
                    "material" : 10
                }
            ]
        }
    ],
    "accessors" : [
        {
            "bufferView" : 0,
            "componentType" : 5126,
            "count" : 3267,
            "max" : [
                4.814764022827148,
                6.064759254455566,
                10.148507118225098
            ],
            "min" : [
                -4.434932708740234,
                -1.634566068649292,
                -12.972856521606445
            ],
            "type" : "VEC3"
        },
        {
            "bufferView" : 1,
            "componentType" : 5126,
            "count" : 3267,
            "type" : "VEC2"
        },
        {
            "bufferView" : 2,
            "componentType" : 5126,
            "count" : 3267,
            "type" : "VEC3"
        },
        {
            "bufferView" : 3,
            "componentType" : 5123,
            "count" : 5085,
            "type" : "SCALAR"
        },
        {
            "bufferView" : 4,
            "componentType" : 5126,
            "count" : 9765,
            "max" : [
                4.967001438140869,
                6.009356498718262,
                10.25430965423584
            ],
            "min" : [
                -4.551880359649658,
                -2.8821520805358887,
                -12.996432304382324
            ],
            "type" : "VEC3"
        },
        {
            "bufferView" : 5,
            "componentType" : 5126,
            "count" : 9765,
            "type" : "VEC2"
        },
        {
            "bufferView" : 6,
            "componentType" : 5126,
            "count" : 9765,
            "type" : "VEC3"
        },
        {
            "bufferView" : 7,
            "componentType" : 5123,
            "count" : 14463,
            "type" : "SCALAR"
        },
        {
            "bufferView" : 8,
            "componentType" : 5126,
            "count" : 1034,
            "max" : [
                3.9963064193725586,
                3.7483365535736084,
                5.776787757873535
            ],
            "min" : [
                -3.914905548095703,
                1.4698898792266846,
                -9.921899795532227
            ],
            "type" : "VEC3"
        },
        {
            "bufferView" : 9,
            "componentType" : 5126,
            "count" : 1034,
            "type" : "VEC2"
        },
        {
            "bufferView" : 10,
            "componentType" : 5126,
            "count" : 1034,
            "type" : "VEC3"
        },
        {
            "bufferView" : 11,
            "componentType" : 5123,
            "count" : 1506,
            "type" : "SCALAR"
        },
        {
            "bufferView" : 12,
            "componentType" : 5126,
            "count" : 1184,
            "max" : [
                4.186943054199219,
                -1.3671891689300537,
                12.803345680236816
            ],
            "min" : [
                -4.2587127685546875,
                -2.9744701385498047,
                10.166426658630371
            ],
            "type" : "VEC3"
        },
        {
            "bufferView" : 13,
            "componentType" : 5126,
            "count" : 1184,
            "type" : "VEC2"
        },
        {
            "bufferView" : 14,
            "componentType" : 5126,
            "count" : 1184,
            "type" : "VEC3"
        },
        {
            "bufferView" : 15,
            "componentType" : 5123,
            "count" : 1698,
            "type" : "SCALAR"
        },
        {
            "bufferView" : 16,
            "componentType" : 5126,
            "count" : 2640,
            "max" : [
                4.362924575805664,
                4.96965217590332,
                10.25614070892334
            ],
            "min" : [
                -4.042595386505127,
                -1.440824270248413,
                -11.208871841430664
            ],
            "type" : "VEC3"
        },
        {
            "bufferView" : 17,
            "componentType" : 5126,
            "count" : 2640,
            "type" : "VEC2"
        },
        {
            "bufferView" : 18,
            "componentType" : 5126,
            "count" : 2640,
            "type" : "VEC3"
        },
        {
            "bufferView" : 19,
            "componentType" : 5123,
            "count" : 4227,
            "type" : "SCALAR"
        },
        {
            "bufferView" : 20,
            "componentType" : 5126,
            "count" : 181,
            "max" : [
                3.9010682106018066,
                3.5656254291534424,
                9.886425971984863
            ],
            "min" : [
                -3.8060379028320312,
                1.6511054039001465,
                -9.74032211303711
            ],
            "type" : "VEC3"
        },
        {
            "bufferView" : 21,
            "componentType" : 5126,
            "count" : 181,
            "type" : "VEC2"
        },
        {
            "bufferView" : 22,
            "componentType" : 5126,
            "count" : 181,
            "type" : "VEC3"
        },
        {
            "bufferView" : 23,
            "componentType" : 5123,
            "count" : 315,
            "type" : "SCALAR"
        },
        {
            "bufferView" : 24,
            "componentType" : 5126,
            "count" : 3384,
            "max" : [
                3.3828773498535156,
                3.553448438644409,
                10.711260795593262
            ],
            "min" : [
                -3.135211944580078,
                -1.7288882732391357,
                5.67313289642334
            ],
            "type" : "VEC3"
        },
        {
            "bufferView" : 25,
            "componentType" : 5126,
            "count" : 3384,
            "type" : "VEC2"
        },
        {
            "bufferView" : 26,
            "componentType" : 5126,
            "count" : 3384,
            "type" : "VEC3"
        },
        {
            "bufferView" : 27,
            "componentType" : 5123,
            "count" : 5322,
            "type" : "SCALAR"
        },
        {
            "bufferView" : 28,
            "componentType" : 5126,
            "count" : 2538,
            "max" : [
                4.631031036376953,
                0.46619725227355957,
                8.471882820129395
            ],
            "min" : [
                -4.866912841796875,
                -2.335684061050415,
                -0.09846782684326172
            ],
            "type" : "VEC3"
        },
        {
            "bufferView" : 29,
            "componentType" : 5126,
            "count" : 2538,
            "type" : "VEC2"
        },
        {
            "bufferView" : 30,
            "componentType" : 5126,
            "count" : 2538,
            "type" : "VEC3"
        },
        {
            "bufferView" : 31,
            "componentType" : 5123,
            "count" : 3996,
            "type" : "SCALAR"
        },
        {
            "bufferView" : 32,
            "componentType" : 5126,
            "count" : 1248,
            "max" : [
                4.519634246826172,
                1.4682166576385498,
                6.245497703552246
            ],
            "min" : [
                -4.755516052246094,
                -1.8196828365325928,
                -12.80620288848877
            ],
            "type" : "VEC3"
        },
        {
            "bufferView" : 33,
            "componentType" : 5126,
            "count" : 1248,
            "type" : "VEC2"
        },
        {
            "bufferView" : 34,
            "componentType" : 5126,
            "count" : 1248,
            "type" : "VEC3"
        },
        {
            "bufferView" : 35,
            "componentType" : 5123,
            "count" : 1716,
            "type" : "SCALAR"
        },
        {
            "bufferView" : 36,
            "componentType" : 5126,
            "count" : 2430,
            "max" : [
                4.703990936279297,
                4.957795143127441,
                10.27184009552002
            ],
            "min" : [
                -4.939872741699219,
                -2.3937594890594482,
                -12.915731430053711
            ],
            "type" : "VEC3"
        },
        {
            "bufferView" : 37,
            "componentType" : 5126,
            "count" : 2430,
            "type" : "VEC2"
        },
        {
            "bufferView" : 38,
            "componentType" : 5126,
            "count" : 2430,
            "type" : "VEC3"
        },
        {
            "bufferView" : 39,
            "componentType" : 5123,
            "count" : 3777,
            "type" : "SCALAR"
        },
        {
            "bufferView" : 40,
            "componentType" : 5126,
            "count" : 11702,
            "max" : [
                3.9055137634277344,
                -0.29723572731018066,
                6.087944984436035
            ],
            "min" : [
                -4.141391754150391,
                -3.034254789352417,
                -12.386630058288574
            ],
            "type" : "VEC3"
        },
        {
            "bufferView" : 41,
            "componentType" : 5126,
            "count" : 11702,
            "type" : "VEC2"
        },
        {
            "bufferView" : 42,
            "componentType" : 5126,
            "count" : 11702,
            "type" : "VEC3"
        },
        {
            "bufferView" : 43,
            "componentType" : 5123,
            "count" : 18462,
            "type" : "SCALAR"
        }
    ],
    "bufferViews" : [
        {
            "buffer" : 0,
            "byteLength" : 39204,
            "byteOffset" : 0,
            "target" : 34962
        },
        {
            "buffer" : 0,
            "byteLength" : 26136,
            "byteOffset" : 39204,
            "target" : 34962
        },
        {
            "buffer" : 0,
            "byteLength" : 39204,
            "byteOffset" : 65340,
            "target" : 34962
        },
        {
            "buffer" : 0,
            "byteLength" : 10170,
            "byteOffset" : 104544,
            "target" : 34963
        },
        {
            "buffer" : 0,
            "byteLength" : 117180,
            "byteOffset" : 114716,
            "target" : 34962
        },
        {
            "buffer" : 0,
            "byteLength" : 78120,
            "byteOffset" : 231896,
            "target" : 34962
        },
        {
            "buffer" : 0,
            "byteLength" : 117180,
            "byteOffset" : 310016,
            "target" : 34962
        },
        {
            "buffer" : 0,
            "byteLength" : 28926,
            "byteOffset" : 427196,
            "target" : 34963
        },
        {
            "buffer" : 0,
            "byteLength" : 12408,
            "byteOffset" : 456124,
            "target" : 34962
        },
        {
            "buffer" : 0,
            "byteLength" : 8272,
            "byteOffset" : 468532,
            "target" : 34962
        },
        {
            "buffer" : 0,
            "byteLength" : 12408,
            "byteOffset" : 476804,
            "target" : 34962
        },
        {
            "buffer" : 0,
            "byteLength" : 3012,
            "byteOffset" : 489212,
            "target" : 34963
        },
        {
            "buffer" : 0,
            "byteLength" : 14208,
            "byteOffset" : 492224,
            "target" : 34962
        },
        {
            "buffer" : 0,
            "byteLength" : 9472,
            "byteOffset" : 506432,
            "target" : 34962
        },
        {
            "buffer" : 0,
            "byteLength" : 14208,
            "byteOffset" : 515904,
            "target" : 34962
        },
        {
            "buffer" : 0,
            "byteLength" : 3396,
            "byteOffset" : 530112,
            "target" : 34963
        },
        {
            "buffer" : 0,
            "byteLength" : 31680,
            "byteOffset" : 533508,
            "target" : 34962
        },
        {
            "buffer" : 0,
            "byteLength" : 21120,
            "byteOffset" : 565188,
            "target" : 34962
        },
        {
            "buffer" : 0,
            "byteLength" : 31680,
            "byteOffset" : 586308,
            "target" : 34962
        },
        {
            "buffer" : 0,
            "byteLength" : 8454,
            "byteOffset" : 617988,
            "target" : 34963
        },
        {
            "buffer" : 0,
            "byteLength" : 2172,
            "byteOffset" : 626444,
            "target" : 34962
        },
        {
            "buffer" : 0,
            "byteLength" : 1448,
            "byteOffset" : 628616,
            "target" : 34962
        },
        {
            "buffer" : 0,
            "byteLength" : 2172,
            "byteOffset" : 630064,
            "target" : 34962
        },
        {
            "buffer" : 0,
            "byteLength" : 630,
            "byteOffset" : 632236,
            "target" : 34963
        },
        {
            "buffer" : 0,
            "byteLength" : 40608,
            "byteOffset" : 632868,
            "target" : 34962
        },
        {
            "buffer" : 0,
            "byteLength" : 27072,
            "byteOffset" : 673476,
            "target" : 34962
        },
        {
            "buffer" : 0,
            "byteLength" : 40608,
            "byteOffset" : 700548,
            "target" : 34962
        },
        {
            "buffer" : 0,
            "byteLength" : 10644,
            "byteOffset" : 741156,
            "target" : 34963
        },
        {
            "buffer" : 0,
            "byteLength" : 30456,
            "byteOffset" : 751800,
            "target" : 34962
        },
        {
            "buffer" : 0,
            "byteLength" : 20304,
            "byteOffset" : 782256,
            "target" : 34962
        },
        {
            "buffer" : 0,
            "byteLength" : 30456,
            "byteOffset" : 802560,
            "target" : 34962
        },
        {
            "buffer" : 0,
            "byteLength" : 7992,
            "byteOffset" : 833016,
            "target" : 34963
        },
        {
            "buffer" : 0,
            "byteLength" : 14976,
            "byteOffset" : 841008,
            "target" : 34962
        },
        {
            "buffer" : 0,
            "byteLength" : 9984,
            "byteOffset" : 855984,
            "target" : 34962
        },
        {
            "buffer" : 0,
            "byteLength" : 14976,
            "byteOffset" : 865968,
            "target" : 34962
        },
        {
            "buffer" : 0,
            "byteLength" : 3432,
            "byteOffset" : 880944,
            "target" : 34963
        },
        {
            "buffer" : 0,
            "byteLength" : 29160,
            "byteOffset" : 884376,
            "target" : 34962
        },
        {
            "buffer" : 0,
            "byteLength" : 19440,
            "byteOffset" : 913536,
            "target" : 34962
        },
        {
            "buffer" : 0,
            "byteLength" : 29160,
            "byteOffset" : 932976,
            "target" : 34962
        },
        {
            "buffer" : 0,
            "byteLength" : 7554,
            "byteOffset" : 962136,
            "target" : 34963
        },
        {
            "buffer" : 0,
            "byteLength" : 140424,
            "byteOffset" : 969692,
            "target" : 34962
        },
        {
            "buffer" : 0,
            "byteLength" : 93616,
            "byteOffset" : 1110116,
            "target" : 34962
        },
        {
            "buffer" : 0,
            "byteLength" : 140424,
            "byteOffset" : 1203732,
            "target" : 34962
        },
        {
            "buffer" : 0,
            "byteLength" : 36924,
            "byteOffset" : 1344156,
            "target" : 34963
        }
    ],
    "buffers" : [
        {
            "byteLength" : 1381080,
            "uri" : "Train-4b67ad397467df654cb3b1df7bce7367.bin"
        }
    ]
}
