{
	"asset":{
		"generator":"Khronos glTF Blender I/O v4.0.44",
		"version":"2.0"
	},
	"scene":0,
	"scenes":[
		{
			"name":"Scene",
			"nodes":[
				0
			]
		}
	],
	"nodes":[
		{
			"mesh":0,
			"name":"alpine_01 colormap_02 2048"
		}
	],
	"materials":[
		{
			"alphaMode":"BLEND",
			"doubleSided":true,
			"name":"alpine_01 colormap_02 2048",
			"pbrMetallicRoughness":{
				"baseColorTexture":{
					"index":0
				},
				"metallicFactor":0,
				"roughnessFactor":0.5
			}
		}
	],
	"meshes":[
		{
			"name":"alpine_01 colormap_02 2048",
			"primitives":[
				{
					"attributes":{
						"POSITION":0,
						"NORMAL":1,
						"TEXCOORD_0":2,
						"TANGENT":3
					},
					"indices":4,
					"material":0
				}
			]
		}
	],
	"textures":[
		{
			"sampler":0,
			"source":0
		}
	],
	"images":[
		{
			"mimeType":"image/png",
			"name":"alpine_01 colormap_02 2048.png",
			"uri":"../../%5B01%5D%20Assets/Blender/textures/alpine_01%20colormap_02%202048.png"
		}
	],
	"accessors":[
		{
			"bufferView":0,
			"componentType":5126,
			"count":66049,
			"max":[
				0.5000000596046448,
				0.49467408657073975,
				0.5000000596046448
			],
			"min":[
				-0.5000000596046448,
				-0.2733902633190155,
				-0.5000000596046448
			],
			"type":"VEC3"
		},
		{
			"bufferView":1,
			"componentType":5126,
			"count":66049,
			"type":"VEC3"
		},
		{
			"bufferView":2,
			"componentType":5126,
			"count":66049,
			"type":"VEC2"
		},
		{
			"bufferView":3,
			"componentType":5126,
			"count":66049,
			"type":"VEC4"
		},
		{
			"bufferView":4,
			"componentType":5125,
			"count":393216,
			"type":"SCALAR"
		}
	],
	"bufferViews":[
		{
			"buffer":0,
			"byteLength":792588,
			"byteOffset":0,
			"target":34962
		},
		{
			"buffer":0,
			"byteLength":792588,
			"byteOffset":792588,
			"target":34962
		},
		{
			"buffer":0,
			"byteLength":528392,
			"byteOffset":1585176,
			"target":34962
		},
		{
			"buffer":0,
			"byteLength":1056784,
			"byteOffset":2113568,
			"target":34962
		},
		{
			"buffer":0,
			"byteLength":1572864,
			"byteOffset":3170352,
			"target":34963
		}
	],
	"samplers":[
		{
			"magFilter":9729,
			"minFilter":9987,
			"wrapS":33071,
			"wrapT":33071
		}
	],
	"buffers":[
		{
			"byteLength":4743216,
			"uri":"alpine-01-da3c299c6498c1337bf405c126fcd9ba.bin"
		}
	]
}
