{
	"asset":{
		"generator":"Khronos glTF Blender I/O v4.0.44",
		"version":"2.0"
	},
	"scene":0,
	"scenes":[
		{
			"name":"Scene",
			"nodes":[
				0
			]
		}
	],
	"nodes":[
		{
			"mesh":0,
			"name":"Stereo textured mesh"
		}
	],
	"materials":[
		{
			"doubleSided":true,
			"name":"Material.001",
			"normalTexture":{
				"index":0
			},
			"pbrMetallicRoughness":{
				"baseColorTexture":{
					"index":1
				},
				"metallicFactor":0,
				"metallicRoughnessTexture":{
					"index":2
				}
			}
		}
	],
	"meshes":[
		{
			"name":"Stereo textured mesh",
			"primitives":[
				{
					"attributes":{
						"POSITION":0,
						"NORMAL":1,
						"TEXCOORD_0":2,
						"TANGENT":3
					},
					"indices":4,
					"material":0
				}
			]
		}
	],
	"textures":[
		{
			"sampler":0,
			"source":0
		},
		{
			"sampler":0,
			"source":1
		},
		{
			"sampler":0,
			"source":2
		}
	],
	"images":[
		{
			"mimeType":"image/jpeg",
			"name":"Snow008A_2K-JPG_NormalGL.jpg",
			"uri":"../../%5B01%5D%20Assets/Blender/textures/Snow008A_2K-JPG_NormalGL.jpg"
		},
		{
			"mimeType":"image/jpeg",
			"name":"Snow008A_2K-JPG_Color.jpg",
			"uri":"../../%5B01%5D%20Assets/Blender/textures/Snow008A_2K-JPG_Color.jpg"
		},
		{
			"mimeType":"image/jpeg",
			"name":"Snow008A_2K-JPG_Roughness.jpg",
			"uri":"../../%5B01%5D%20Assets/Blender/textures/Snow008A_2K-JPG_Roughness.jpg"
		}
	],
	"accessors":[
		{
			"bufferView":0,
			"componentType":5126,
			"count":305795,
			"max":[
				5.709327697753906,
				1.0830410718917847,
				0.43490949273109436
			],
			"min":[
				-4.290672302246094,
				-1.2418022155761719,
				-1.3199007511138916
			],
			"type":"VEC3"
		},
		{
			"bufferView":1,
			"componentType":5126,
			"count":305795,
			"type":"VEC3"
		},
		{
			"bufferView":2,
			"componentType":5126,
			"count":305795,
			"type":"VEC2"
		},
		{
			"bufferView":3,
			"componentType":5126,
			"count":305795,
			"type":"VEC4"
		},
		{
			"bufferView":4,
			"componentType":5125,
			"count":1196361,
			"type":"SCALAR"
		}
	],
	"bufferViews":[
		{
			"buffer":0,
			"byteLength":3669540,
			"byteOffset":0,
			"target":34962
		},
		{
			"buffer":0,
			"byteLength":3669540,
			"byteOffset":3669540,
			"target":34962
		},
		{
			"buffer":0,
			"byteLength":2446360,
			"byteOffset":7339080,
			"target":34962
		},
		{
			"buffer":0,
			"byteLength":4892720,
			"byteOffset":9785440,
			"target":34962
		},
		{
			"buffer":0,
			"byteLength":4785444,
			"byteOffset":14678160,
			"target":34963
		}
	],
	"samplers":[
		{
			"magFilter":9729,
			"minFilter":9987
		}
	],
	"buffers":[
		{
			"byteLength":19463604,
			"uri":"cliff-09-585cc8a3aedcefe417c8e05a0e6c9fe1.bin"
		}
	]
}
