{
	"asset":{
		"generator":"Khronos glTF Blender I/O v4.0.44",
		"version":"2.0"
	},
	"scene":0,
	"scenes":[
		{
			"name":"Scene",
			"nodes":[
				0
			]
		}
	],
	"nodes":[
		{
			"mesh":0,
			"name":"granite)point_sketchfab"
		}
	],
	"materials":[
		{
			"doubleSided":true,
			"name":"Material.001",
			"normalTexture":{
				"index":0
			},
			"pbrMetallicRoughness":{
				"baseColorTexture":{
					"index":1
				},
				"metallicFactor":0,
				"metallicRoughnessTexture":{
					"index":2
				}
			}
		}
	],
	"meshes":[
		{
			"name":"granite)point_sketchfab",
			"primitives":[
				{
					"attributes":{
						"POSITION":0,
						"NORMAL":1,
						"TEXCOORD_0":2,
						"TANGENT":3
					},
					"indices":4,
					"material":0
				}
			]
		}
	],
	"textures":[
		{
			"sampler":0,
			"source":0
		},
		{
			"sampler":0,
			"source":1
		},
		{
			"sampler":0,
			"source":2
		}
	],
	"images":[
		{
			"mimeType":"image/jpeg",
			"name":"Snow008A_2K-JPG_NormalGL.jpg",
			"uri":"../../%5B01%5D%20Assets/Blender/textures/Snow008A_2K-JPG_NormalGL.jpg"
		},
		{
			"mimeType":"image/jpeg",
			"name":"Snow008A_2K-JPG_Color.jpg",
			"uri":"../../%5B01%5D%20Assets/Blender/textures/Snow008A_2K-JPG_Color.jpg"
		},
		{
			"mimeType":"image/jpeg",
			"name":"Snow008A_2K-JPG_Roughness.jpg",
			"uri":"../../%5B01%5D%20Assets/Blender/textures/Snow008A_2K-JPG_Roughness.jpg"
		}
	],
	"accessors":[
		{
			"bufferView":0,
			"componentType":5126,
			"count":51520,
			"max":[
				23.31060028076172,
				5.13670015335083,
				9.006699562072754
			],
			"min":[
				-23.28339958190918,
				0.28909942507743835,
				-9.297800064086914
			],
			"type":"VEC3"
		},
		{
			"bufferView":1,
			"componentType":5126,
			"count":51520,
			"type":"VEC3"
		},
		{
			"bufferView":2,
			"componentType":5126,
			"count":51520,
			"type":"VEC2"
		},
		{
			"bufferView":3,
			"componentType":5126,
			"count":51520,
			"type":"VEC4"
		},
		{
			"bufferView":4,
			"componentType":5123,
			"count":305523,
			"type":"SCALAR"
		}
	],
	"bufferViews":[
		{
			"buffer":0,
			"byteLength":618240,
			"byteOffset":0,
			"target":34962
		},
		{
			"buffer":0,
			"byteLength":618240,
			"byteOffset":618240,
			"target":34962
		},
		{
			"buffer":0,
			"byteLength":412160,
			"byteOffset":1236480,
			"target":34962
		},
		{
			"buffer":0,
			"byteLength":824320,
			"byteOffset":1648640,
			"target":34962
		},
		{
			"buffer":0,
			"byteLength":611046,
			"byteOffset":2472960,
			"target":34963
		}
	],
	"samplers":[
		{
			"magFilter":9729,
			"minFilter":9987
		}
	],
	"buffers":[
		{
			"byteLength":3084008,
			"uri":"cliff-05-2b488c84ef8cbf0bd4bb1181b7ceb835.bin"
		}
	]
}
