{
	"asset":{
		"generator":"Khronos glTF Blender I/O v4.0.44",
		"version":"2.0"
	},
	"scene":0,
	"scenes":[
		{
			"name":"Scene",
			"nodes":[
				0,
				1
			]
		}
	],
	"nodes":[
		{
			"mesh":0,
			"name":"meshNode"
		},
		{
			"mesh":1,
			"name":"Plane"
		}
	],
	"materials":[
		{
			"doubleSided":true,
			"name":"snow",
			"normalTexture":{
				"index":0
			},
			"pbrMetallicRoughness":{
				"baseColorTexture":{
					"index":1
				},
				"metallicFactor":0,
				"metallicRoughnessTexture":{
					"index":2
				}
			}
		}
	],
	"meshes":[
		{
			"name":"rockface-cliff",
			"primitives":[
				{
					"attributes":{
						"POSITION":0,
						"NORMAL":1,
						"TEXCOORD_0":2,
						"TANGENT":3
					},
					"indices":4,
					"material":0
				}
			]
		},
		{
			"name":"Plane",
			"primitives":[
				{
					"attributes":{
						"POSITION":5,
						"NORMAL":6,
						"TEXCOORD_0":7,
						"TANGENT":8
					},
					"indices":9,
					"material":0
				}
			]
		}
	],
	"textures":[
		{
			"sampler":0,
			"source":0
		},
		{
			"sampler":0,
			"source":1
		},
		{
			"sampler":0,
			"source":2
		}
	],
	"images":[
		{
			"mimeType":"image/jpeg",
			"name":"Snow008A_2K-JPG_NormalGL.jpg",
			"uri":"../../%5B01%5D%20Assets/Blender/textures/Snow008A_2K-JPG_NormalGL.jpg"
		},
		{
			"mimeType":"image/jpeg",
			"name":"Snow008A_2K-JPG_Color.jpg",
			"uri":"../../%5B01%5D%20Assets/Blender/textures/Snow008A_2K-JPG_Color.jpg"
		},
		{
			"mimeType":"image/jpeg",
			"name":"Snow008A_2K-JPG_Roughness.jpg",
			"uri":"../../%5B01%5D%20Assets/Blender/textures/Snow008A_2K-JPG_Roughness.jpg"
		}
	],
	"accessors":[
		{
			"bufferView":0,
			"componentType":5126,
			"count":31095,
			"max":[
				8.70437240600586,
				23.0280818939209,
				14.691186904907227
			],
			"min":[
				-7.704926013946533,
				4.9597086906433105,
				-15.021445274353027
			],
			"type":"VEC3"
		},
		{
			"bufferView":1,
			"componentType":5126,
			"count":31095,
			"type":"VEC3"
		},
		{
			"bufferView":2,
			"componentType":5126,
			"count":31095,
			"type":"VEC2"
		},
		{
			"bufferView":3,
			"componentType":5126,
			"count":31095,
			"type":"VEC4"
		},
		{
			"bufferView":4,
			"componentType":5123,
			"count":74694,
			"type":"SCALAR"
		},
		{
			"bufferView":5,
			"componentType":5126,
			"count":66049,
			"max":[
				-5.547793388366699,
				21.688613891601562,
				8.261272430419922
			],
			"min":[
				-25.253517150878906,
				21.59763526916504,
				-11.444446563720703
			],
			"type":"VEC3"
		},
		{
			"bufferView":6,
			"componentType":5126,
			"count":66049,
			"type":"VEC3"
		},
		{
			"bufferView":7,
			"componentType":5126,
			"count":66049,
			"type":"VEC2"
		},
		{
			"bufferView":8,
			"componentType":5126,
			"count":66049,
			"type":"VEC4"
		},
		{
			"bufferView":9,
			"componentType":5125,
			"count":393216,
			"type":"SCALAR"
		}
	],
	"bufferViews":[
		{
			"buffer":0,
			"byteLength":373140,
			"byteOffset":0,
			"target":34962
		},
		{
			"buffer":0,
			"byteLength":373140,
			"byteOffset":373140,
			"target":34962
		},
		{
			"buffer":0,
			"byteLength":248760,
			"byteOffset":746280,
			"target":34962
		},
		{
			"buffer":0,
			"byteLength":497520,
			"byteOffset":995040,
			"target":34962
		},
		{
			"buffer":0,
			"byteLength":149388,
			"byteOffset":1492560,
			"target":34963
		},
		{
			"buffer":0,
			"byteLength":792588,
			"byteOffset":1641948,
			"target":34962
		},
		{
			"buffer":0,
			"byteLength":792588,
			"byteOffset":2434536,
			"target":34962
		},
		{
			"buffer":0,
			"byteLength":528392,
			"byteOffset":3227124,
			"target":34962
		},
		{
			"buffer":0,
			"byteLength":1056784,
			"byteOffset":3755516,
			"target":34962
		},
		{
			"buffer":0,
			"byteLength":1572864,
			"byteOffset":4812300,
			"target":34963
		}
	],
	"samplers":[
		{
			"magFilter":9729,
			"minFilter":9987
		}
	],
	"buffers":[
		{
			"byteLength":6385164,
			"uri":"cliff-01-399dbcd677672061b7c609fe20db7ad4.bin"
		}
	]
}
