{
	"asset":{
		"generator":"Khronos glTF Blender I/O v4.0.44",
		"version":"2.0"
	},
	"scene":0,
	"scenes":[
		{
			"name":"Scene",
			"nodes":[
				0
			]
		}
	],
	"nodes":[
		{
			"mesh":0,
			"name":"Model"
		}
	],
	"materials":[
		{
			"doubleSided":true,
			"name":"Material.001",
			"normalTexture":{
				"index":0
			},
			"pbrMetallicRoughness":{
				"baseColorTexture":{
					"index":1
				},
				"metallicFactor":0,
				"metallicRoughnessTexture":{
					"index":2
				}
			}
		}
	],
	"meshes":[
		{
			"name":"Model",
			"primitives":[
				{
					"attributes":{
						"POSITION":0,
						"NORMAL":1,
						"TEXCOORD_0":2,
						"TANGENT":3
					},
					"indices":4,
					"material":0
				}
			]
		}
	],
	"textures":[
		{
			"sampler":0,
			"source":0
		},
		{
			"sampler":0,
			"source":1
		},
		{
			"sampler":0,
			"source":2
		}
	],
	"images":[
		{
			"mimeType":"image/jpeg",
			"name":"Snow008A_2K-JPG_NormalGL.jpg",
			"uri":"../../../../../Desktop/snow/Snow008A_2K-JPG/Snow008A_2K-JPG_NormalGL.jpg"
		},
		{
			"mimeType":"image/jpeg",
			"name":"Snow008A_2K-JPG_Color.jpg",
			"uri":"../../../../../Desktop/snow/Snow008A_2K-JPG/Snow008A_2K-JPG_Color.jpg"
		},
		{
			"mimeType":"image/jpeg",
			"name":"Snow008A_2K-JPG_Roughness.jpg",
			"uri":"../../../../../Desktop/snow/Snow008A_2K-JPG/Snow008A_2K-JPG_Roughness.jpg"
		}
	],
	"accessors":[
		{
			"bufferView":0,
			"componentType":5126,
			"count":178599,
			"max":[
				6.823269844055176,
				5.9193339347839355,
				5.3115434646606445
			],
			"min":[
				-6.619010925292969,
				-0.009218931198120117,
				-5.526244163513184
			],
			"type":"VEC3"
		},
		{
			"bufferView":1,
			"componentType":5126,
			"count":178599,
			"type":"VEC3"
		},
		{
			"bufferView":2,
			"componentType":5126,
			"count":178599,
			"type":"VEC2"
		},
		{
			"bufferView":3,
			"componentType":5126,
			"count":178599,
			"type":"VEC4"
		},
		{
			"bufferView":4,
			"componentType":5125,
			"count":1030407,
			"type":"SCALAR"
		}
	],
	"bufferViews":[
		{
			"buffer":0,
			"byteLength":2143188,
			"byteOffset":0,
			"target":34962
		},
		{
			"buffer":0,
			"byteLength":2143188,
			"byteOffset":2143188,
			"target":34962
		},
		{
			"buffer":0,
			"byteLength":1428792,
			"byteOffset":4286376,
			"target":34962
		},
		{
			"buffer":0,
			"byteLength":2857584,
			"byteOffset":5715168,
			"target":34962
		},
		{
			"buffer":0,
			"byteLength":4121628,
			"byteOffset":8572752,
			"target":34963
		}
	],
	"samplers":[
		{
			"magFilter":9729,
			"minFilter":9987
		}
	],
	"buffers":[
		{
			"byteLength":12694380,
			"uri":"cliff-10-c9156a782551f8a663bd5566da996056.bin"
		}
	]
}
