{
	"asset":{
		"generator":"Khronos glTF Blender I/O v4.0.44",
		"version":"2.0"
	},
	"scene":0,
	"scenes":[
		{
			"name":"Scene",
			"nodes":[
				0
			]
		}
	],
	"nodes":[
		{
			"mesh":0,
			"name":"textured_output",
			"rotation":[
				0.7071068286895752,
				0,
				0,
				0.7071068286895752
			],
			"translation":[
				8.426698684692383,
				0,
				0
			]
		}
	],
	"materials":[
		{
			"doubleSided":true,
			"name":"Material.001",
			"normalTexture":{
				"index":0
			},
			"pbrMetallicRoughness":{
				"baseColorTexture":{
					"index":1
				},
				"metallicFactor":0,
				"metallicRoughnessTexture":{
					"index":2
				}
			}
		}
	],
	"meshes":[
		{
			"name":"textured_output",
			"primitives":[
				{
					"attributes":{
						"POSITION":0,
						"NORMAL":1,
						"TEXCOORD_0":2
					},
					"indices":3,
					"material":0
				}
			]
		}
	],
	"textures":[
		{
			"sampler":0,
			"source":0
		},
		{
			"sampler":0,
			"source":1
		},
		{
			"sampler":0,
			"source":2
		}
	],
	"images":[
		{
			"mimeType":"image/jpeg",
			"name":"Snow008A_2K-JPG_NormalGL.jpg",
			"uri":"../../%5B01%5D%20Assets/Blender/textures/Snow008A_2K-JPG_NormalGL.jpg"
		},
		{
			"mimeType":"image/jpeg",
			"name":"Snow008A_2K-JPG_Color.jpg",
			"uri":"../../%5B01%5D%20Assets/Blender/textures/Snow008A_2K-JPG_Color.jpg"
		},
		{
			"mimeType":"image/jpeg",
			"name":"Snow008A_2K-JPG_Roughness.jpg",
			"uri":"../../%5B01%5D%20Assets/Blender/textures/Snow008A_2K-JPG_Roughness.jpg"
		}
	],
	"accessors":[
		{
			"bufferView":0,
			"componentType":5126,
			"count":17324,
			"max":[
				-5.849068641662598,
				6.827000141143799,
				1.3450000286102295
			],
			"min":[
				-11.319068908691406,
				-6.729000091552734,
				-2.8359999656677246
			],
			"type":"VEC3"
		},
		{
			"bufferView":1,
			"componentType":5126,
			"count":17324,
			"type":"VEC3"
		},
		{
			"bufferView":2,
			"componentType":5126,
			"count":17324,
			"type":"VEC2"
		},
		{
			"bufferView":3,
			"componentType":5123,
			"count":29511,
			"type":"SCALAR"
		}
	],
	"bufferViews":[
		{
			"buffer":0,
			"byteLength":207888,
			"byteOffset":0,
			"target":34962
		},
		{
			"buffer":0,
			"byteLength":207888,
			"byteOffset":207888,
			"target":34962
		},
		{
			"buffer":0,
			"byteLength":138592,
			"byteOffset":415776,
			"target":34962
		},
		{
			"buffer":0,
			"byteLength":59022,
			"byteOffset":554368,
			"target":34963
		}
	],
	"samplers":[
		{
			"magFilter":9729,
			"minFilter":9987
		}
	],
	"buffers":[
		{
			"byteLength":613392,
			"uri":"cliff-08-a16bdffe4f70fc39bacdbd3a347754fb.bin"
		}
	]
}
