{
	"asset":{
		"generator":"Khronos glTF Blender I/O v4.0.44",
		"version":"2.0"
	},
	"scene":0,
	"scenes":[
		{
			"name":"Scene",
			"nodes":[
				0
			]
		}
	],
	"nodes":[
		{
			"mesh":0,
			"name":"Stereo textured mesh",
			"rotation":[
				0.7071068286895752,
				0,
				0,
				0.7071068286895752
			],
			"translation":[
				0,
				0.404717355966568,
				0
			]
		}
	],
	"materials":[
		{
			"doubleSided":true,
			"name":"Material.001",
			"normalTexture":{
				"index":0
			},
			"pbrMetallicRoughness":{
				"baseColorTexture":{
					"index":1
				},
				"metallicFactor":0,
				"metallicRoughnessTexture":{
					"index":2
				}
			}
		}
	],
	"meshes":[
		{
			"name":"Stereo textured mesh",
			"primitives":[
				{
					"attributes":{
						"POSITION":0,
						"NORMAL":1,
						"TEXCOORD_0":2
					},
					"indices":3,
					"material":0
				}
			]
		}
	],
	"textures":[
		{
			"sampler":0,
			"source":0
		},
		{
			"sampler":0,
			"source":1
		},
		{
			"sampler":0,
			"source":2
		}
	],
	"images":[
		{
			"mimeType":"image/jpeg",
			"name":"Snow008A_2K-JPG_NormalGL.jpg",
			"uri":"../../%5B01%5D%20Assets/Blender/textures/Snow008A_2K-JPG_NormalGL.jpg"
		},
		{
			"mimeType":"image/jpeg",
			"name":"Snow008A_2K-JPG_Color.jpg",
			"uri":"../../%5B01%5D%20Assets/Blender/textures/Snow008A_2K-JPG_Color.jpg"
		},
		{
			"mimeType":"image/jpeg",
			"name":"Snow008A_2K-JPG_Roughness.jpg",
			"uri":"../../%5B01%5D%20Assets/Blender/textures/Snow008A_2K-JPG_Roughness.jpg"
		}
	],
	"accessors":[
		{
			"bufferView":0,
			"componentType":5126,
			"count":277227,
			"max":[
				5.241424083709717,
				1.709979772567749,
				0.4344073235988617
			],
			"min":[
				-4.758575439453125,
				-2.4976918697357178,
				-1.0629456043243408
			],
			"type":"VEC3"
		},
		{
			"bufferView":1,
			"componentType":5126,
			"count":277227,
			"type":"VEC3"
		},
		{
			"bufferView":2,
			"componentType":5126,
			"count":277227,
			"type":"VEC2"
		},
		{
			"bufferView":3,
			"componentType":5125,
			"count":1096302,
			"type":"SCALAR"
		}
	],
	"bufferViews":[
		{
			"buffer":0,
			"byteLength":3326724,
			"byteOffset":0,
			"target":34962
		},
		{
			"buffer":0,
			"byteLength":3326724,
			"byteOffset":3326724,
			"target":34962
		},
		{
			"buffer":0,
			"byteLength":2217816,
			"byteOffset":6653448,
			"target":34962
		},
		{
			"buffer":0,
			"byteLength":4385208,
			"byteOffset":8871264,
			"target":34963
		}
	],
	"samplers":[
		{
			"magFilter":9729,
			"minFilter":9987
		}
	],
	"buffers":[
		{
			"byteLength":13256472,
			"uri":"cliff-06-3438fa83217c6dc135989989e1d51c5b.bin"
		}
	]
}
