{
	"asset":{
		"generator":"Khronos glTF Blender I/O v4.0.44",
		"version":"2.0"
	},
	"scene":0,
	"scenes":[
		{
			"name":"Scene",
			"nodes":[
				0
			]
		}
	],
	"nodes":[
		{
			"mesh":0,
			"name":"Model",
			"rotation":[
				0.7071068286895752,
				0,
				0,
				0.7071068286895752
			],
			"translation":[
				-0.010627844370901585,
				-0.0018257811898365617,
				0.0006889970973134041
			]
		}
	],
	"materials":[
		{
			"doubleSided":true,
			"name":"Material.001",
			"normalTexture":{
				"index":0
			},
			"pbrMetallicRoughness":{
				"baseColorTexture":{
					"index":1
				},
				"metallicFactor":0,
				"metallicRoughnessTexture":{
					"index":2
				}
			}
		}
	],
	"meshes":[
		{
			"name":"Mesh",
			"primitives":[
				{
					"attributes":{
						"POSITION":0,
						"NORMAL":1,
						"TEXCOORD_0":2,
						"TANGENT":3
					},
					"indices":4,
					"material":0
				}
			]
		}
	],
	"textures":[
		{
			"sampler":0,
			"source":0
		},
		{
			"sampler":0,
			"source":1
		},
		{
			"sampler":0,
			"source":2
		}
	],
	"images":[
		{
			"mimeType":"image/jpeg",
			"name":"Snow008A_2K-JPG_NormalGL.jpg",
			"uri":"../../%5B01%5D%20Assets/Blender/textures/Snow008A_2K-JPG_NormalGL.jpg"
		},
		{
			"mimeType":"image/jpeg",
			"name":"Snow008A_2K-JPG_Color.jpg",
			"uri":"../../%5B01%5D%20Assets/Blender/textures/Snow008A_2K-JPG_Color.jpg"
		},
		{
			"mimeType":"image/jpeg",
			"name":"Snow008A_2K-JPG_Roughness.jpg",
			"uri":"../../%5B01%5D%20Assets/Blender/textures/Snow008A_2K-JPG_Roughness.jpg"
		}
	],
	"accessors":[
		{
			"bufferView":0,
			"componentType":5126,
			"count":66712,
			"max":[
				3.816253662109375,
				2.610424757003784,
				0.14860358834266663
			],
			"min":[
				-3.6294519901275635,
				-1.7885639667510986,
				-3.9150538444519043
			],
			"type":"VEC3"
		},
		{
			"bufferView":1,
			"componentType":5126,
			"count":66712,
			"type":"VEC3"
		},
		{
			"bufferView":2,
			"componentType":5126,
			"count":66712,
			"type":"VEC2"
		},
		{
			"bufferView":3,
			"componentType":5126,
			"count":66712,
			"type":"VEC4"
		},
		{
			"bufferView":4,
			"componentType":5125,
			"count":356262,
			"type":"SCALAR"
		}
	],
	"bufferViews":[
		{
			"buffer":0,
			"byteLength":800544,
			"byteOffset":0,
			"target":34962
		},
		{
			"buffer":0,
			"byteLength":800544,
			"byteOffset":800544,
			"target":34962
		},
		{
			"buffer":0,
			"byteLength":533696,
			"byteOffset":1601088,
			"target":34962
		},
		{
			"buffer":0,
			"byteLength":1067392,
			"byteOffset":2134784,
			"target":34962
		},
		{
			"buffer":0,
			"byteLength":1425048,
			"byteOffset":3202176,
			"target":34963
		}
	],
	"samplers":[
		{
			"magFilter":9729,
			"minFilter":9987
		}
	],
	"buffers":[
		{
			"byteLength":4627224,
			"uri":"cliff-11-d5acb29ac1386856a01ec42e0d913fe6.bin"
		}
	]
}
