{
	"asset":{
		"generator":"Khronos glTF Blender I/O v4.0.44",
		"version":"2.0"
	},
	"scene":0,
	"scenes":[
		{
			"name":"Scene",
			"nodes":[
				0
			]
		}
	],
	"nodes":[
		{
			"mesh":0,
			"name":"Half-Dome",
			"rotation":[
				-0.9147653579711914,
				-0.06014256924390793,
				0.026208052411675453,
				0.39862310886383057
			],
			"translation":[
				0,
				9.188715934753418,
				9.92326545715332
			]
		}
	],
	"materials":[
		{
			"doubleSided":true,
			"name":"Material.001",
			"normalTexture":{
				"index":0
			},
			"pbrMetallicRoughness":{
				"baseColorTexture":{
					"index":1
				},
				"metallicFactor":0,
				"metallicRoughnessTexture":{
					"index":2
				}
			}
		}
	],
	"meshes":[
		{
			"name":"Half-Dome",
			"primitives":[
				{
					"attributes":{
						"POSITION":0,
						"NORMAL":1,
						"TEXCOORD_0":2,
						"TANGENT":3
					},
					"indices":4,
					"material":0
				}
			]
		}
	],
	"textures":[
		{
			"sampler":0,
			"source":0
		},
		{
			"sampler":0,
			"source":1
		},
		{
			"sampler":0,
			"source":2
		}
	],
	"images":[
		{
			"mimeType":"image/jpeg",
			"name":"Snow008A_2K-JPG_NormalGL.jpg",
			"uri":"../../%5B01%5D%20Assets/Blender/textures/Snow008A_2K-JPG_NormalGL.jpg"
		},
		{
			"mimeType":"image/jpeg",
			"name":"Snow008A_2K-JPG_Color.jpg",
			"uri":"../../%5B01%5D%20Assets/Blender/textures/Snow008A_2K-JPG_Color.jpg"
		},
		{
			"mimeType":"image/jpeg",
			"name":"Snow008A_2K-JPG_Roughness.jpg",
			"uri":"../../%5B01%5D%20Assets/Blender/textures/Snow008A_2K-JPG_Roughness.jpg"
		}
	],
	"accessors":[
		{
			"bufferView":0,
			"componentType":5126,
			"count":456479,
			"max":[
				20.636404037475586,
				19.354469299316406,
				7.990474224090576
			],
			"min":[
				-10.85009765625,
				0.7606559991836548,
				-6.062250137329102
			],
			"type":"VEC3"
		},
		{
			"bufferView":1,
			"componentType":5126,
			"count":456479,
			"type":"VEC3"
		},
		{
			"bufferView":2,
			"componentType":5126,
			"count":456479,
			"type":"VEC2"
		},
		{
			"bufferView":3,
			"componentType":5126,
			"count":456479,
			"type":"VEC4"
		},
		{
			"bufferView":4,
			"componentType":5125,
			"count":1957965,
			"type":"SCALAR"
		}
	],
	"bufferViews":[
		{
			"buffer":0,
			"byteLength":5477748,
			"byteOffset":0,
			"target":34962
		},
		{
			"buffer":0,
			"byteLength":5477748,
			"byteOffset":5477748,
			"target":34962
		},
		{
			"buffer":0,
			"byteLength":3651832,
			"byteOffset":10955496,
			"target":34962
		},
		{
			"buffer":0,
			"byteLength":7303664,
			"byteOffset":14607328,
			"target":34962
		},
		{
			"buffer":0,
			"byteLength":7831860,
			"byteOffset":21910992,
			"target":34963
		}
	],
	"samplers":[
		{
			"magFilter":9729,
			"minFilter":9987
		}
	],
	"buffers":[
		{
			"byteLength":29742852,
			"uri":"cliff-12-22a1be3ca419805ef9a978c7a8353e22.bin"
		}
	]
}
