{
	"asset":{
		"generator":"Khronos glTF Blender I/O v4.0.44",
		"version":"2.0"
	},
	"scene":0,
	"scenes":[
		{
			"name":"Scene",
			"nodes":[
				0
			]
		}
	],
	"nodes":[
		{
			"mesh":0,
			"name":"Female base",
			"rotation":[
				0.7071068286895752,
				0,
				0,
				0.7071068286895752
			]
		}
	],
	"meshes":[
		{
			"name":"Female base",
			"primitives":[
				{
					"attributes":{
						"POSITION":0,
						"NORMAL":1
					},
					"indices":2
				}
			]
		}
	],
	"accessors":[
		{
			"bufferView":0,
			"componentType":5126,
			"count":18607,
			"max":[
				0.8908140063285828,
				0.1805109977722168,
				0.006940000224858522
			],
			"min":[
				-0.8908140063285828,
				-0.18779799342155457,
				-1.9999990463256836
			],
			"type":"VEC3"
		},
		{
			"bufferView":1,
			"componentType":5126,
			"count":18607,
			"type":"VEC3"
		},
		{
			"bufferView":2,
			"componentType":5123,
			"count":111264,
			"type":"SCALAR"
		}
	],
	"bufferViews":[
		{
			"buffer":0,
			"byteLength":223284,
			"byteOffset":0,
			"target":34962
		},
		{
			"buffer":0,
			"byteLength":223284,
			"byteOffset":223284,
			"target":34962
		},
		{
			"buffer":0,
			"byteLength":222528,
			"byteOffset":446568,
			"target":34963
		}
	],
	"buffers":[
		{
			"byteLength":669096,
			"uri":"female-base-398578b667fbfe72afaa4a74f9a218df.bin"
		}
	]
}
