{
	"asset":{
		"generator":"Khronos glTF Blender I/O v4.0.44",
		"version":"2.0"
	},
	"extensionsUsed":[
		"KHR_materials_emissive_strength",
		"KHR_materials_specular",
		"KHR_materials_ior"
	],
	"scene":0,
	"scenes":[
		{
			"name":"Scene",
			"nodes":[
				0
			]
		}
	],
	"nodes":[
		{
			"mesh":0,
			"name":"Flashlight_low.001"
		}
	],
	"materials":[
		{
			"doubleSided":true,
			"emissiveFactor":[
				1,
				1,
				1
			],
			"extensions":{
				"KHR_materials_emissive_strength":{
					"emissiveStrength":50
				}
			},
			"name":"Material.001",
			"pbrMetallicRoughness":{
				"baseColorFactor":[
					0.800000011920929,
					0.800000011920929,
					0.800000011920929,
					1
				],
				"metallicFactor":0,
				"roughnessFactor":0.5
			}
		},
		{
			"doubleSided":true,
			"extensions":{
				"KHR_materials_specular":{
					"specularFactor":0
				},
				"KHR_materials_ior":{
					"ior":1.4500000476837158
				}
			},
			"name":"DefaultMaterial",
			"pbrMetallicRoughness":{
				"baseColorFactor":[
					0,
					0,
					0,
					1
				],
				"metallicFactor":0,
				"roughnessFactor":0.5
			}
		}
	],
	"meshes":[
		{
			"name":"meshId1_name.001",
			"primitives":[
				{
					"attributes":{
						"POSITION":0,
						"NORMAL":1,
						"TEXCOORD_0":2,
						"TEXCOORD_1":3,
						"TANGENT":4
					},
					"indices":5,
					"material":0
				},
				{
					"attributes":{
						"POSITION":6,
						"NORMAL":7,
						"TEXCOORD_0":8,
						"TEXCOORD_1":9,
						"TANGENT":10
					},
					"indices":11,
					"material":1
				}
			]
		}
	],
	"accessors":[
		{
			"bufferView":0,
			"componentType":5126,
			"count":33,
			"max":[
				0.16205231845378876,
				0.029819542542099953,
				0.029819542542099953
			],
			"min":[
				0.16205231845378876,
				-0.029819542542099953,
				-0.029819542542099953
			],
			"type":"VEC3"
		},
		{
			"bufferView":1,
			"componentType":5126,
			"count":33,
			"type":"VEC3"
		},
		{
			"bufferView":2,
			"componentType":5126,
			"count":33,
			"type":"VEC2"
		},
		{
			"bufferView":3,
			"componentType":5126,
			"count":33,
			"type":"VEC2"
		},
		{
			"bufferView":4,
			"componentType":5126,
			"count":33,
			"type":"VEC4"
		},
		{
			"bufferView":5,
			"componentType":5123,
			"count":96,
			"type":"SCALAR"
		},
		{
			"bufferView":6,
			"componentType":5126,
			"count":362,
			"max":[
				0.16854150593280792,
				0.03736278414726257,
				0.03736278414726257
			],
			"min":[
				-0.16854150593280792,
				-0.03736278414726257,
				-0.03736278414726257
			],
			"type":"VEC3"
		},
		{
			"bufferView":7,
			"componentType":5126,
			"count":362,
			"type":"VEC3"
		},
		{
			"bufferView":8,
			"componentType":5126,
			"count":362,
			"type":"VEC2"
		},
		{
			"bufferView":9,
			"componentType":5126,
			"count":362,
			"type":"VEC2"
		},
		{
			"bufferView":10,
			"componentType":5126,
			"count":362,
			"type":"VEC4"
		},
		{
			"bufferView":11,
			"componentType":5123,
			"count":1296,
			"type":"SCALAR"
		}
	],
	"bufferViews":[
		{
			"buffer":0,
			"byteLength":396,
			"byteOffset":0,
			"target":34962
		},
		{
			"buffer":0,
			"byteLength":396,
			"byteOffset":396,
			"target":34962
		},
		{
			"buffer":0,
			"byteLength":264,
			"byteOffset":792,
			"target":34962
		},
		{
			"buffer":0,
			"byteLength":264,
			"byteOffset":1056,
			"target":34962
		},
		{
			"buffer":0,
			"byteLength":528,
			"byteOffset":1320,
			"target":34962
		},
		{
			"buffer":0,
			"byteLength":192,
			"byteOffset":1848,
			"target":34963
		},
		{
			"buffer":0,
			"byteLength":4344,
			"byteOffset":2040,
			"target":34962
		},
		{
			"buffer":0,
			"byteLength":4344,
			"byteOffset":6384,
			"target":34962
		},
		{
			"buffer":0,
			"byteLength":2896,
			"byteOffset":10728,
			"target":34962
		},
		{
			"buffer":0,
			"byteLength":2896,
			"byteOffset":13624,
			"target":34962
		},
		{
			"buffer":0,
			"byteLength":5792,
			"byteOffset":16520,
			"target":34962
		},
		{
			"buffer":0,
			"byteLength":2592,
			"byteOffset":22312,
			"target":34963
		}
	],
	"buffers":[
		{
			"byteLength":24904,
			"uri":"flashlight-b71dd219346616c01ad5eb49359552e0.bin"
		}
	]
}
