{
	"asset":{
		"generator":"Khronos glTF Blender I/O v4.0.44",
		"version":"2.0"
	},
	"scene":0,
	"scenes":[
		{
			"name":"Scene",
			"nodes":[
				0,
				1
			]
		}
	],
	"nodes":[
		{
			"mesh":0,
			"name":"tree"
		},
		{
			"extras":{
				"ant_landscape":{},
				"vs":{}
			},
			"mesh":1,
			"name":"twig"
		}
	],
	"materials":[
		{
			"doubleSided":true,
			"name":"Material.001",
			"normalTexture":{
				"index":0
			},
			"pbrMetallicRoughness":{
				"baseColorTexture":{
					"index":1
				},
				"metallicFactor":0,
				"metallicRoughnessTexture":{
					"index":2
				}
			}
		},
		{
			"doubleSided":true,
			"name":"twig_bark",
			"pbrMetallicRoughness":{
				"metallicFactor":0
			}
		},
		{
			"alphaCutoff":0.5,
			"alphaMode":"MASK",
			"doubleSided":true,
			"name":"leaf",
			"normalTexture":{
				"index":3,
				"scale":0.3800000548362732
			},
			"pbrMetallicRoughness":{
				"baseColorTexture":{
					"index":4
				},
				"metallicFactor":0,
				"roughnessFactor":0.5
			}
		}
	],
	"meshes":[
		{
			"name":"tree",
			"primitives":[
				{
					"attributes":{
						"POSITION":0,
						"NORMAL":1,
						"TEXCOORD_0":2,
						"TANGENT":3
					},
					"indices":4,
					"material":0
				}
			]
		},
		{
			"name":"twig",
			"primitives":[
				{
					"attributes":{
						"POSITION":5,
						"NORMAL":6,
						"TEXCOORD_0":7,
						"TANGENT":8
					},
					"indices":9,
					"material":1
				},
				{
					"attributes":{
						"POSITION":10,
						"NORMAL":11,
						"TEXCOORD_0":12,
						"TANGENT":13
					},
					"indices":14,
					"material":2
				}
			]
		}
	],
	"textures":[
		{
			"sampler":0,
			"source":0
		},
		{
			"sampler":0,
			"source":1
		},
		{
			"sampler":0,
			"source":2
		},
		{
			"sampler":0,
			"source":3
		},
		{
			"sampler":0,
			"source":4
		}
	],
	"images":[
		{
			"mimeType":"image/png",
			"name":"Bark001_2K-PNG_NormalGL.png",
			"uri":"../../%5B01%5D%20Assets/Blender/textures/Bark001_2K-PNG_NormalGL.png"
		},
		{
			"mimeType":"image/png",
			"name":"Bark001_2K-PNG_Color.png",
			"uri":"../../%5B01%5D%20Assets/Blender/textures/Bark001_2K-PNG_Color.png"
		},
		{
			"mimeType":"image/png",
			"name":"Bark001_2K-PNG_Roughness.png",
			"uri":"../../%5B01%5D%20Assets/Blender/textures/Bark001_2K-PNG_Roughness.png"
		},
		{
			"mimeType":"image/png",
			"name":"TexturesCom_Branches0025_normal.png",
			"uri":"../../%5B01%5D%20Assets/Blender/textures/TexturesCom_Branches0025_normal.png"
		},
		{
			"mimeType":"image/png",
			"name":"TexturesCom_Branches0025_1_M.png",
			"uri":"../../%5B01%5D%20Assets/Blender/textures/TexturesCom_Branches0025_1_M.png"
		}
	],
	"accessors":[
		{
			"bufferView":0,
			"componentType":5126,
			"count":74389,
			"max":[
				7.3436360359191895,
				15.193737030029297,
				6.812496185302734
			],
			"min":[
				-7.659865856170654,
				-0.5861209034919739,
				-7.389542102813721
			],
			"type":"VEC3"
		},
		{
			"bufferView":1,
			"componentType":5126,
			"count":74389,
			"type":"VEC3"
		},
		{
			"bufferView":2,
			"componentType":5126,
			"count":74389,
			"type":"VEC2"
		},
		{
			"bufferView":3,
			"componentType":5126,
			"count":74389,
			"type":"VEC4"
		},
		{
			"bufferView":4,
			"componentType":5125,
			"count":330432,
			"type":"SCALAR"
		},
		{
			"bufferView":5,
			"componentType":5126,
			"count":280,
			"max":[
				0.08672383427619934,
				0.02901034615933895,
				-0.0006062425673007965
			],
			"min":[
				-0.1049649715423584,
				-0.03395126760005951,
				-0.34631800651550293
			],
			"type":"VEC3"
		},
		{
			"bufferView":6,
			"componentType":5126,
			"count":280,
			"type":"VEC3"
		},
		{
			"bufferView":7,
			"componentType":5126,
			"count":280,
			"type":"VEC2"
		},
		{
			"bufferView":8,
			"componentType":5126,
			"count":280,
			"type":"VEC4"
		},
		{
			"bufferView":9,
			"componentType":5123,
			"count":1062,
			"type":"SCALAR"
		},
		{
			"bufferView":10,
			"componentType":5126,
			"count":570,
			"max":[
				0.15067751705646515,
				0.0241019818931818,
				-0.03180895745754242
			],
			"min":[
				-0.12983955442905426,
				-0.0632561594247818,
				-0.3986647129058838
			],
			"type":"VEC3"
		},
		{
			"bufferView":11,
			"componentType":5126,
			"count":570,
			"type":"VEC3"
		},
		{
			"bufferView":12,
			"componentType":5126,
			"count":570,
			"type":"VEC2"
		},
		{
			"bufferView":13,
			"componentType":5126,
			"count":570,
			"type":"VEC4"
		},
		{
			"bufferView":14,
			"componentType":5123,
			"count":1914,
			"type":"SCALAR"
		}
	],
	"bufferViews":[
		{
			"buffer":0,
			"byteLength":892668,
			"byteOffset":0,
			"target":34962
		},
		{
			"buffer":0,
			"byteLength":892668,
			"byteOffset":892668,
			"target":34962
		},
		{
			"buffer":0,
			"byteLength":595112,
			"byteOffset":1785336,
			"target":34962
		},
		{
			"buffer":0,
			"byteLength":1190224,
			"byteOffset":2380448,
			"target":34962
		},
		{
			"buffer":0,
			"byteLength":1321728,
			"byteOffset":3570672,
			"target":34963
		},
		{
			"buffer":0,
			"byteLength":3360,
			"byteOffset":4892400,
			"target":34962
		},
		{
			"buffer":0,
			"byteLength":3360,
			"byteOffset":4895760,
			"target":34962
		},
		{
			"buffer":0,
			"byteLength":2240,
			"byteOffset":4899120,
			"target":34962
		},
		{
			"buffer":0,
			"byteLength":4480,
			"byteOffset":4901360,
			"target":34962
		},
		{
			"buffer":0,
			"byteLength":2124,
			"byteOffset":4905840,
			"target":34963
		},
		{
			"buffer":0,
			"byteLength":6840,
			"byteOffset":4907964,
			"target":34962
		},
		{
			"buffer":0,
			"byteLength":6840,
			"byteOffset":4914804,
			"target":34962
		},
		{
			"buffer":0,
			"byteLength":4560,
			"byteOffset":4921644,
			"target":34962
		},
		{
			"buffer":0,
			"byteLength":9120,
			"byteOffset":4926204,
			"target":34962
		},
		{
			"buffer":0,
			"byteLength":3828,
			"byteOffset":4935324,
			"target":34963
		}
	],
	"samplers":[
		{
			"magFilter":9729,
			"minFilter":9987
		}
	],
	"buffers":[
		{
			"byteLength":4939152,
			"uri":"Tree-ca1f94c5f37e29eadc092b0151372226.bin"
		}
	]
}
