{
	"asset":{
		"generator":"Khronos glTF Blender I/O v4.0.44",
		"version":"2.0"
	},
	"scene":0,
	"scenes":[
		{
			"name":"Scene",
			"nodes":[
				0
			]
		}
	],
	"nodes":[
		{
			"mesh":0,
			"name":"textured_output",
			"translation":[
				-0.17434611916542053,
				-0.09052740037441254,
				0.10982523113489151
			]
		}
	],
	"materials":[
		{
			"doubleSided":true,
			"name":"Material.001",
			"normalTexture":{
				"index":0
			},
			"pbrMetallicRoughness":{
				"baseColorTexture":{
					"index":1
				},
				"metallicFactor":0,
				"metallicRoughnessTexture":{
					"index":2
				}
			}
		}
	],
	"meshes":[
		{
			"name":"textured_output",
			"primitives":[
				{
					"attributes":{
						"POSITION":0,
						"NORMAL":1,
						"TEXCOORD_0":2
					},
					"indices":3,
					"material":0
				}
			]
		}
	],
	"textures":[
		{
			"sampler":0,
			"source":0
		},
		{
			"sampler":0,
			"source":1
		},
		{
			"sampler":0,
			"source":2
		}
	],
	"images":[
		{
			"mimeType":"image/jpeg",
			"name":"Snow008A_2K-JPG_NormalGL.jpg",
			"uri":"../../%5B01%5D%20Assets/Blender/textures/Snow008A_2K-JPG_NormalGL.jpg"
		},
		{
			"mimeType":"image/jpeg",
			"name":"Snow008A_2K-JPG_Color.jpg",
			"uri":"../../%5B01%5D%20Assets/Blender/textures/Snow008A_2K-JPG_Color.jpg"
		},
		{
			"mimeType":"image/jpeg",
			"name":"Snow008A_2K-JPG_Roughness.jpg",
			"uri":"../../%5B01%5D%20Assets/Blender/textures/Snow008A_2K-JPG_Roughness.jpg"
		}
	],
	"accessors":[
		{
			"bufferView":0,
			"componentType":5126,
			"count":35786,
			"max":[
				6.185919284820557,
				1.7042272090911865,
				3.8104748725891113
			],
			"min":[
				-6.317753791809082,
				-1.4457722902297974,
				-4.001625061035156
			],
			"type":"VEC3"
		},
		{
			"bufferView":1,
			"componentType":5126,
			"count":35786,
			"type":"VEC3"
		},
		{
			"bufferView":2,
			"componentType":5126,
			"count":35786,
			"type":"VEC2"
		},
		{
			"bufferView":3,
			"componentType":5123,
			"count":74232,
			"type":"SCALAR"
		}
	],
	"bufferViews":[
		{
			"buffer":0,
			"byteLength":429432,
			"byteOffset":0,
			"target":34962
		},
		{
			"buffer":0,
			"byteLength":429432,
			"byteOffset":429432,
			"target":34962
		},
		{
			"buffer":0,
			"byteLength":286288,
			"byteOffset":858864,
			"target":34962
		},
		{
			"buffer":0,
			"byteLength":148464,
			"byteOffset":1145152,
			"target":34963
		}
	],
	"samplers":[
		{
			"magFilter":9729,
			"minFilter":9987
		}
	],
	"buffers":[
		{
			"byteLength":1293616,
			"uri":"cliff-03-f0ec715370c3a7596b6372f053a71da6.bin"
		}
	]
}
