{
	"asset":{
		"generator":"Khronos glTF Blender I/O v4.0.44",
		"version":"2.0"
	},
	"scene":0,
	"scenes":[
		{
			"name":"Scene",
			"nodes":[
				0
			]
		}
	],
	"nodes":[
		{
			"mesh":0,
			"name":"tiran_rocas_low",
			"rotation":[
				0.7071068286895752,
				0,
				0,
				0.7071068286895752
			]
		}
	],
	"materials":[
		{
			"doubleSided":true,
			"name":"Material.001",
			"normalTexture":{
				"index":0
			},
			"pbrMetallicRoughness":{
				"baseColorTexture":{
					"index":1
				},
				"metallicFactor":0,
				"metallicRoughnessTexture":{
					"index":2
				}
			}
		}
	],
	"meshes":[
		{
			"name":"tiran_rocas_low",
			"primitives":[
				{
					"attributes":{
						"POSITION":0,
						"NORMAL":1,
						"TEXCOORD_0":2,
						"TANGENT":3
					},
					"indices":4,
					"material":0
				}
			]
		}
	],
	"textures":[
		{
			"sampler":0,
			"source":0
		},
		{
			"sampler":0,
			"source":1
		},
		{
			"sampler":0,
			"source":2
		}
	],
	"images":[
		{
			"mimeType":"image/jpeg",
			"name":"Snow008A_2K-JPG_NormalGL.jpg",
			"uri":"../../%5B01%5D%20Assets/Blender/textures/Snow008A_2K-JPG_NormalGL.jpg"
		},
		{
			"mimeType":"image/jpeg",
			"name":"Snow008A_2K-JPG_Color.jpg",
			"uri":"../../%5B01%5D%20Assets/Blender/textures/Snow008A_2K-JPG_Color.jpg"
		},
		{
			"mimeType":"image/jpeg",
			"name":"Snow008A_2K-JPG_Roughness.jpg",
			"uri":"../../%5B01%5D%20Assets/Blender/textures/Snow008A_2K-JPG_Roughness.jpg"
		}
	],
	"accessors":[
		{
			"bufferView":0,
			"componentType":5126,
			"count":28025,
			"max":[
				3.1077990531921387,
				6.25501012802124,
				-0.030470000579953194
			],
			"min":[
				-0.9326429963111877,
				-3.4289228916168213,
				-2.0016980171203613
			],
			"type":"VEC3"
		},
		{
			"bufferView":1,
			"componentType":5126,
			"count":28025,
			"type":"VEC3"
		},
		{
			"bufferView":2,
			"componentType":5126,
			"count":28025,
			"type":"VEC2"
		},
		{
			"bufferView":3,
			"componentType":5126,
			"count":28025,
			"type":"VEC4"
		},
		{
			"bufferView":4,
			"componentType":5123,
			"count":143505,
			"type":"SCALAR"
		}
	],
	"bufferViews":[
		{
			"buffer":0,
			"byteLength":336300,
			"byteOffset":0,
			"target":34962
		},
		{
			"buffer":0,
			"byteLength":336300,
			"byteOffset":336300,
			"target":34962
		},
		{
			"buffer":0,
			"byteLength":224200,
			"byteOffset":672600,
			"target":34962
		},
		{
			"buffer":0,
			"byteLength":448400,
			"byteOffset":896800,
			"target":34962
		},
		{
			"buffer":0,
			"byteLength":287010,
			"byteOffset":1345200,
			"target":34963
		}
	],
	"samplers":[
		{
			"magFilter":9729,
			"minFilter":9987
		}
	],
	"buffers":[
		{
			"byteLength":1632212,
			"uri":"cliff-13-2b124aba27388a775a7cf7a164611fba.bin"
		}
	]
}
