{
	"asset":{
		"generator":"Khronos glTF Blender I/O v4.0.44",
		"version":"2.0"
	},
	"scene":0,
	"scenes":[
		{
			"name":"Scene",
			"nodes":[
				0,
				1
			]
		}
	],
	"nodes":[
		{
			"mesh":0,
			"name":"Pointer",
			"rotation":[
				-0.5000001192092896,
				-0.5000000596046448,
				0.49999988079071045,
				0.5
			],
			"translation":[
				0.049871038645505905,
				0.05317359417676926,
				-0.0012839122209697962
			]
		},
		{
			"mesh":1,
			"name":"Compass",
			"rotation":[
				-0.5000001192092896,
				-0.5000000596046448,
				0.49999988079071045,
				0.5
			],
			"translation":[
				0.049864981323480606,
				0.036240410059690475,
				0.0012899839784950018
			]
		}
	],
	"materials":[
		{
			"doubleSided":true,
			"name":"Red",
			"pbrMetallicRoughness":{
				"baseColorFactor":[
					0.8000000715255737,
					0.0699291005730629,
					0.0699291005730629,
					1
				],
				"metallicFactor":0,
				"roughnessFactor":0.5
			}
		},
		{
			"doubleSided":true,
			"name":"Black",
			"pbrMetallicRoughness":{
				"metallicFactor":0,
				"roughnessFactor":0.5
			}
		},
		{
			"doubleSided":true,
			"name":"gray",
			"pbrMetallicRoughness":{
				"baseColorFactor":[
					0.02979498915374279,
					0,
					0.026699205860495567,
					1
				],
				"metallicFactor":0,
				"roughnessFactor":0.5
			}
		},
		{
			"doubleSided":true,
			"name":"White",
			"pbrMetallicRoughness":{
				"baseColorFactor":[
					0.8712778091430664,
					0.418708860874176,
					1,
					1
				],
				"metallicFactor":0,
				"roughnessFactor":0.5
			}
		},
		{
			"doubleSided":true,
			"name":"Gold",
			"pbrMetallicRoughness":{
				"baseColorFactor":[
					1,
					0.6950345635414124,
					0.5053322315216064,
					1
				],
				"roughnessFactor":0.3499999940395355
			}
		},
		{
			"doubleSided":true,
			"name":"Dark blue",
			"pbrMetallicRoughness":{
				"baseColorFactor":[
					0.004079842008650303,
					0.013267317786812782,
					0.08806915581226349,
					1
				],
				"metallicFactor":0,
				"roughnessFactor":0.5
			}
		}
	],
	"meshes":[
		{
			"name":"Cylinder.002",
			"primitives":[
				{
					"attributes":{
						"POSITION":0,
						"NORMAL":1,
						"TEXCOORD_0":2,
						"TANGENT":3
					},
					"indices":4,
					"material":0
				},
				{
					"attributes":{
						"POSITION":5,
						"NORMAL":6,
						"TEXCOORD_0":7,
						"TANGENT":8
					},
					"indices":9,
					"material":1
				}
			]
		},
		{
			"name":"Text.002",
			"primitives":[
				{
					"attributes":{
						"POSITION":10,
						"NORMAL":11,
						"TEXCOORD_0":12,
						"TANGENT":13
					},
					"indices":14,
					"material":2
				},
				{
					"attributes":{
						"POSITION":15,
						"NORMAL":16,
						"TEXCOORD_0":17,
						"TANGENT":18
					},
					"indices":19,
					"material":3
				},
				{
					"attributes":{
						"POSITION":20,
						"NORMAL":21,
						"TEXCOORD_0":22,
						"TANGENT":23
					},
					"indices":24,
					"material":4
				},
				{
					"attributes":{
						"POSITION":25,
						"NORMAL":26,
						"TEXCOORD_0":27,
						"TANGENT":28
					},
					"indices":29,
					"material":5
				}
			]
		}
	],
	"accessors":[
		{
			"bufferView":0,
			"componentType":5126,
			"count":12,
			"max":[
				0.007232785224914551,
				0.7036507725715637,
				0.07758048176765442
			],
			"min":[
				-0.007232785224914551,
				7.072861407664277e-09,
				-0.07758048176765442
			],
			"type":"VEC3"
		},
		{
			"bufferView":1,
			"componentType":5126,
			"count":12,
			"type":"VEC3"
		},
		{
			"bufferView":2,
			"componentType":5126,
			"count":12,
			"type":"VEC2"
		},
		{
			"bufferView":3,
			"componentType":5126,
			"count":12,
			"type":"VEC4"
		},
		{
			"bufferView":4,
			"componentType":5123,
			"count":12,
			"type":"SCALAR"
		},
		{
			"bufferView":5,
			"componentType":5126,
			"count":12,
			"max":[
				0.007232785224914551,
				1.7762408432986376e-08,
				0.07758048176765442
			],
			"min":[
				-0.007232785224914551,
				-0.7036507725715637,
				-0.07758048176765442
			],
			"type":"VEC3"
		},
		{
			"bufferView":6,
			"componentType":5126,
			"count":12,
			"type":"VEC3"
		},
		{
			"bufferView":7,
			"componentType":5126,
			"count":12,
			"type":"VEC2"
		},
		{
			"bufferView":8,
			"componentType":5126,
			"count":12,
			"type":"VEC4"
		},
		{
			"bufferView":9,
			"componentType":5123,
			"count":12,
			"type":"SCALAR"
		},
		{
			"bufferView":10,
			"componentType":5126,
			"count":34660,
			"max":[
				0.00016235187649726868,
				0.8307880759239197,
				0.8253676295280457
			],
			"min":[
				-0.04370621591806412,
				-0.8271248936653137,
				-0.8085092902183533
			],
			"type":"VEC3"
		},
		{
			"bufferView":11,
			"componentType":5126,
			"count":34660,
			"type":"VEC3"
		},
		{
			"bufferView":12,
			"componentType":5126,
			"count":34660,
			"type":"VEC2"
		},
		{
			"bufferView":13,
			"componentType":5126,
			"count":34660,
			"type":"VEC4"
		},
		{
			"bufferView":14,
			"componentType":5123,
			"count":198636,
			"type":"SCALAR"
		},
		{
			"bufferView":15,
			"componentType":5126,
			"count":4358,
			"max":[
				-0.027597779408097267,
				0.8600775599479675,
				0.8574976325035095
			],
			"min":[
				-0.030570680275559425,
				-0.8549297451972961,
				-0.8575097322463989
			],
			"type":"VEC3"
		},
		{
			"bufferView":16,
			"componentType":5126,
			"count":4358,
			"type":"VEC3"
		},
		{
			"bufferView":17,
			"componentType":5126,
			"count":4358,
			"type":"VEC2"
		},
		{
			"bufferView":18,
			"componentType":5126,
			"count":4358,
			"type":"VEC4"
		},
		{
			"bufferView":19,
			"componentType":5123,
			"count":23040,
			"type":"SCALAR"
		},
		{
			"bufferView":20,
			"componentType":5126,
			"count":22158,
			"max":[
				0.038745321333408356,
				0.03711998462677002,
				0.03453999385237694
			],
			"min":[
				-0.029636716470122337,
				-0.031972143799066544,
				-0.034552156925201416
			],
			"type":"VEC3"
		},
		{
			"bufferView":21,
			"componentType":5126,
			"count":22158,
			"type":"VEC3"
		},
		{
			"bufferView":22,
			"componentType":5126,
			"count":22158,
			"type":"VEC2"
		},
		{
			"bufferView":23,
			"componentType":5126,
			"count":22158,
			"type":"VEC4"
		},
		{
			"bufferView":24,
			"componentType":5123,
			"count":97920,
			"type":"SCALAR"
		},
		{
			"bufferView":25,
			"componentType":5126,
			"count":16797,
			"max":[
				0.15792545676231384,
				0.9857856035232544,
				0.9832056760787964
			],
			"min":[
				-0.2798767387866974,
				-0.980637788772583,
				-0.9832177758216858
			],
			"type":"VEC3"
		},
		{
			"bufferView":26,
			"componentType":5126,
			"count":16797,
			"type":"VEC3"
		},
		{
			"bufferView":27,
			"componentType":5126,
			"count":16797,
			"type":"VEC2"
		},
		{
			"bufferView":28,
			"componentType":5126,
			"count":16797,
			"type":"VEC4"
		},
		{
			"bufferView":29,
			"componentType":5123,
			"count":82560,
			"type":"SCALAR"
		}
	],
	"bufferViews":[
		{
			"buffer":0,
			"byteLength":144,
			"byteOffset":0,
			"target":34962
		},
		{
			"buffer":0,
			"byteLength":144,
			"byteOffset":144,
			"target":34962
		},
		{
			"buffer":0,
			"byteLength":96,
			"byteOffset":288,
			"target":34962
		},
		{
			"buffer":0,
			"byteLength":192,
			"byteOffset":384,
			"target":34962
		},
		{
			"buffer":0,
			"byteLength":24,
			"byteOffset":576,
			"target":34963
		},
		{
			"buffer":0,
			"byteLength":144,
			"byteOffset":600,
			"target":34962
		},
		{
			"buffer":0,
			"byteLength":144,
			"byteOffset":744,
			"target":34962
		},
		{
			"buffer":0,
			"byteLength":96,
			"byteOffset":888,
			"target":34962
		},
		{
			"buffer":0,
			"byteLength":192,
			"byteOffset":984,
			"target":34962
		},
		{
			"buffer":0,
			"byteLength":24,
			"byteOffset":1176,
			"target":34963
		},
		{
			"buffer":0,
			"byteLength":415920,
			"byteOffset":1200,
			"target":34962
		},
		{
			"buffer":0,
			"byteLength":415920,
			"byteOffset":417120,
			"target":34962
		},
		{
			"buffer":0,
			"byteLength":277280,
			"byteOffset":833040,
			"target":34962
		},
		{
			"buffer":0,
			"byteLength":554560,
			"byteOffset":1110320,
			"target":34962
		},
		{
			"buffer":0,
			"byteLength":397272,
			"byteOffset":1664880,
			"target":34963
		},
		{
			"buffer":0,
			"byteLength":52296,
			"byteOffset":2062152,
			"target":34962
		},
		{
			"buffer":0,
			"byteLength":52296,
			"byteOffset":2114448,
			"target":34962
		},
		{
			"buffer":0,
			"byteLength":34864,
			"byteOffset":2166744,
			"target":34962
		},
		{
			"buffer":0,
			"byteLength":69728,
			"byteOffset":2201608,
			"target":34962
		},
		{
			"buffer":0,
			"byteLength":46080,
			"byteOffset":2271336,
			"target":34963
		},
		{
			"buffer":0,
			"byteLength":265896,
			"byteOffset":2317416,
			"target":34962
		},
		{
			"buffer":0,
			"byteLength":265896,
			"byteOffset":2583312,
			"target":34962
		},
		{
			"buffer":0,
			"byteLength":177264,
			"byteOffset":2849208,
			"target":34962
		},
		{
			"buffer":0,
			"byteLength":354528,
			"byteOffset":3026472,
			"target":34962
		},
		{
			"buffer":0,
			"byteLength":195840,
			"byteOffset":3381000,
			"target":34963
		},
		{
			"buffer":0,
			"byteLength":201564,
			"byteOffset":3576840,
			"target":34962
		},
		{
			"buffer":0,
			"byteLength":201564,
			"byteOffset":3778404,
			"target":34962
		},
		{
			"buffer":0,
			"byteLength":134376,
			"byteOffset":3979968,
			"target":34962
		},
		{
			"buffer":0,
			"byteLength":268752,
			"byteOffset":4114344,
			"target":34962
		},
		{
			"buffer":0,
			"byteLength":165120,
			"byteOffset":4383096,
			"target":34963
		}
	],
	"buffers":[
		{
			"byteLength":4548216,
			"uri":"compass-be1d04dbea900a99b86aae3edcff9044.bin"
		}
	]
}
