{
	"asset":{
		"generator":"Khronos glTF Blender I/O v4.0.44",
		"version":"2.0"
	},
	"extensionsUsed":[
		"KHR_materials_specular",
		"KHR_materials_ior"
	],
	"scene":0,
	"scenes":[
		{
			"name":"Scene",
			"nodes":[
				0
			]
		}
	],
	"nodes":[
		{
			"mesh":0,
			"name":"Frame_L"
		}
	],
	"materials":[
		{
			"doubleSided":true,
			"extensions":{
				"KHR_materials_specular":{
					"specularFactor":0
				},
				"KHR_materials_ior":{
					"ior":1.4500000476837158
				}
			},
			"name":"Chacker",
			"pbrMetallicRoughness":{
				"baseColorFactor":[
					0.014669000171124935,
					0.014669000171124935,
					0.014669000171124935,
					1
				],
				"metallicFactor":0,
				"roughnessFactor":0.5
			}
		},
		{
			"doubleSided":true,
			"name":"Material.001",
			"pbrMetallicRoughness":{
				"baseColorFactor":[
					0.5244448184967041,
					0.024441909044981003,
					0.011473726481199265,
					1
				],
				"metallicFactor":0,
				"roughnessFactor":0.5
			}
		}
	],
	"meshes":[
		{
			"name":"meshId7_name",
			"primitives":[
				{
					"attributes":{
						"POSITION":0,
						"NORMAL":1,
						"TEXCOORD_0":2,
						"TEXCOORD_1":3,
						"TEXCOORD_2":4,
						"TEXCOORD_3":5,
						"TEXCOORD_4":6,
						"TEXCOORD_5":7,
						"TEXCOORD_6":8,
						"TANGENT":9
					},
					"indices":10,
					"material":0
				},
				{
					"attributes":{
						"POSITION":11,
						"NORMAL":12,
						"TEXCOORD_0":13,
						"TEXCOORD_1":14,
						"TEXCOORD_2":15,
						"TEXCOORD_3":16,
						"TEXCOORD_4":17,
						"TEXCOORD_5":18,
						"TEXCOORD_6":19,
						"TANGENT":20
					},
					"indices":21,
					"material":1
				}
			]
		}
	],
	"accessors":[
		{
			"bufferView":0,
			"componentType":5126,
			"count":1490,
			"max":[
				23.334915161132812,
				166.2308807373047,
				22.085386276245117
			],
			"min":[
				-235.55950927734375,
				-156.47750854492188,
				-22.08538818359375
			],
			"type":"VEC3"
		},
		{
			"bufferView":1,
			"componentType":5126,
			"count":1490,
			"type":"VEC3"
		},
		{
			"bufferView":2,
			"componentType":5126,
			"count":1490,
			"type":"VEC2"
		},
		{
			"bufferView":3,
			"componentType":5126,
			"count":1490,
			"type":"VEC2"
		},
		{
			"bufferView":4,
			"componentType":5126,
			"count":1490,
			"type":"VEC2"
		},
		{
			"bufferView":5,
			"componentType":5126,
			"count":1490,
			"type":"VEC2"
		},
		{
			"bufferView":6,
			"componentType":5126,
			"count":1490,
			"type":"VEC2"
		},
		{
			"bufferView":7,
			"componentType":5126,
			"count":1490,
			"type":"VEC2"
		},
		{
			"bufferView":8,
			"componentType":5126,
			"count":1490,
			"type":"VEC2"
		},
		{
			"bufferView":9,
			"componentType":5126,
			"count":1490,
			"type":"VEC4"
		},
		{
			"bufferView":10,
			"componentType":5123,
			"count":4452,
			"type":"SCALAR"
		},
		{
			"bufferView":11,
			"componentType":5126,
			"count":2488,
			"max":[
				229.56253051757812,
				145.1104278564453,
				31.361835479736328
			],
			"min":[
				-239.5009002685547,
				-166.2228546142578,
				-31.361812591552734
			],
			"type":"VEC3"
		},
		{
			"bufferView":12,
			"componentType":5126,
			"count":2488,
			"type":"VEC3"
		},
		{
			"bufferView":13,
			"componentType":5126,
			"count":2488,
			"type":"VEC2"
		},
		{
			"bufferView":14,
			"componentType":5126,
			"count":2488,
			"type":"VEC2"
		},
		{
			"bufferView":15,
			"componentType":5126,
			"count":2488,
			"type":"VEC2"
		},
		{
			"bufferView":16,
			"componentType":5126,
			"count":2488,
			"type":"VEC2"
		},
		{
			"bufferView":17,
			"componentType":5126,
			"count":2488,
			"type":"VEC2"
		},
		{
			"bufferView":18,
			"componentType":5126,
			"count":2488,
			"type":"VEC2"
		},
		{
			"bufferView":19,
			"componentType":5126,
			"count":2488,
			"type":"VEC2"
		},
		{
			"bufferView":20,
			"componentType":5126,
			"count":2488,
			"type":"VEC4"
		},
		{
			"bufferView":21,
			"componentType":5123,
			"count":10572,
			"type":"SCALAR"
		}
	],
	"bufferViews":[
		{
			"buffer":0,
			"byteLength":17880,
			"byteOffset":0,
			"target":34962
		},
		{
			"buffer":0,
			"byteLength":17880,
			"byteOffset":17880,
			"target":34962
		},
		{
			"buffer":0,
			"byteLength":11920,
			"byteOffset":35760,
			"target":34962
		},
		{
			"buffer":0,
			"byteLength":11920,
			"byteOffset":47680,
			"target":34962
		},
		{
			"buffer":0,
			"byteLength":11920,
			"byteOffset":59600,
			"target":34962
		},
		{
			"buffer":0,
			"byteLength":11920,
			"byteOffset":71520,
			"target":34962
		},
		{
			"buffer":0,
			"byteLength":11920,
			"byteOffset":83440,
			"target":34962
		},
		{
			"buffer":0,
			"byteLength":11920,
			"byteOffset":95360,
			"target":34962
		},
		{
			"buffer":0,
			"byteLength":11920,
			"byteOffset":107280,
			"target":34962
		},
		{
			"buffer":0,
			"byteLength":23840,
			"byteOffset":119200,
			"target":34962
		},
		{
			"buffer":0,
			"byteLength":8904,
			"byteOffset":143040,
			"target":34963
		},
		{
			"buffer":0,
			"byteLength":29856,
			"byteOffset":151944,
			"target":34962
		},
		{
			"buffer":0,
			"byteLength":29856,
			"byteOffset":181800,
			"target":34962
		},
		{
			"buffer":0,
			"byteLength":19904,
			"byteOffset":211656,
			"target":34962
		},
		{
			"buffer":0,
			"byteLength":19904,
			"byteOffset":231560,
			"target":34962
		},
		{
			"buffer":0,
			"byteLength":19904,
			"byteOffset":251464,
			"target":34962
		},
		{
			"buffer":0,
			"byteLength":19904,
			"byteOffset":271368,
			"target":34962
		},
		{
			"buffer":0,
			"byteLength":19904,
			"byteOffset":291272,
			"target":34962
		},
		{
			"buffer":0,
			"byteLength":19904,
			"byteOffset":311176,
			"target":34962
		},
		{
			"buffer":0,
			"byteLength":19904,
			"byteOffset":331080,
			"target":34962
		},
		{
			"buffer":0,
			"byteLength":39808,
			"byteOffset":350984,
			"target":34962
		},
		{
			"buffer":0,
			"byteLength":21144,
			"byteOffset":390792,
			"target":34963
		}
	],
	"buffers":[
		{
			"byteLength":411936,
			"uri":"flare-gun-596784d830d22c8ab35b27f03a20a127.bin"
		}
	]
}
