{
	"asset":{
		"generator":"Khronos glTF Blender I/O v4.0.44",
		"version":"2.0"
	},
	"scene":0,
	"scenes":[
		{
			"name":"Scene",
			"nodes":[
				0,
				1,
				2,
				3,
				4,
				5,
				6,
				7
			]
		}
	],
	"nodes":[
		{
			"mesh":0,
			"name":"tree.001-noimp",
			"translation":[
				0,
				0,
				-9.854881286621094
			]
		},
		{
			"mesh":1,
			"name":"tree",
			"translation":[
				0,
				-0.5907161831855774,
				-0.1507011353969574
			]
		},
		{
			"extras":{
				"ant_landscape":{},
				"vs":{}
			},
			"mesh":2,
			"name":"twig"
		},
		{
			"extras":{
				"ant_landscape":{},
				"vs":{}
			},
			"mesh":3,
			"name":"twig.001"
		},
		{
			"mesh":4,
			"name":"58b5b90e-ebba-4cf6-b391-24259d88-noimp",
			"rotation":[
				-0.5000000596046448,
				0.49999991059303284,
				0.5,
				0.5000000596046448
			],
			"scale":[
				-24.345935821533203,
				-24.345935821533203,
				-24.345935821533203
			],
			"translation":[
				0,
				6.391024112701416,
				-5.053639888763428
			]
		},
		{
			"mesh":5,
			"name":"58b5b90e-ebba-4cf6-b391-24259d88.001-noimp",
			"rotation":[
				-0.7071068286895752,
				0,
				0.7071067094802856,
				1.14008291696166e-09
			],
			"scale":[
				-24.345935821533203,
				-24.345935821533203,
				-24.345935821533203
			]
		},
		{
			"mesh":6,
			"name":"Cube-noimp",
			"translation":[
				0,
				15.000564575195312,
				-31.504518508911133
			]
		},
		{
			"mesh":7,
			"name":"Cube.001-noimp",
			"translation":[
				0,
				7.498923301696777,
				-19.734830856323242
			]
		}
	],
	"materials":[
		{
			"doubleSided":true,
			"name":"bark",
			"normalTexture":{
				"index":0
			},
			"pbrMetallicRoughness":{
				"baseColorTexture":{
					"index":1
				},
				"metallicFactor":0,
				"metallicRoughnessTexture":{
					"index":2
				}
			}
		},
		{
			"alphaCutoff":0.5,
			"alphaMode":"MASK",
			"doubleSided":true,
			"name":"leaf",
			"normalTexture":{
				"index":3,
				"scale":0.3800000548362732
			},
			"pbrMetallicRoughness":{
				"baseColorTexture":{
					"index":4
				},
				"metallicFactor":0,
				"roughnessFactor":0.5
			}
		},
		{
			"doubleSided":true,
			"name":"bark",
			"normalTexture":{
				"index":5
			},
			"pbrMetallicRoughness":{
				"baseColorTexture":{
					"index":6
				},
				"metallicFactor":0,
				"metallicRoughnessTexture":{
					"index":7
				}
			}
		},
		{
			"alphaCutoff":0.5,
			"alphaMode":"MASK",
			"doubleSided":true,
			"name":"leaf",
			"normalTexture":{
				"index":8,
				"scale":0.3800000548362732
			},
			"pbrMetallicRoughness":{
				"baseColorTexture":{
					"index":9
				},
				"metallicFactor":0,
				"roughnessFactor":0.5
			}
		},
		{
			"doubleSided":true,
			"name":"twig_bark",
			"pbrMetallicRoughness":{
				"baseColorFactor":[
					0.800000011920929,
					0.800000011920929,
					0.800000011920929,
					1
				],
				"metallicFactor":0,
				"roughnessFactor":0.5
			}
		},
		{
			"alphaMode":"BLEND",
			"doubleSided":true,
			"name":"58b5b90e-ebba-4cf6-b391-24259d88",
			"pbrMetallicRoughness":{
				"baseColorTexture":{
					"index":10
				},
				"metallicFactor":0,
				"roughnessFactor":0.5
			}
		}
	],
	"meshes":[
		{
			"name":"tree",
			"primitives":[
				{
					"attributes":{
						"POSITION":0,
						"NORMAL":1,
						"TEXCOORD_0":2,
						"TANGENT":3
					},
					"indices":4
				}
			]
		},
		{
			"name":"tree",
			"primitives":[
				{
					"attributes":{
						"POSITION":5,
						"NORMAL":6,
						"TEXCOORD_0":7,
						"TANGENT":8
					},
					"indices":9,
					"material":0
				},
				{
					"attributes":{
						"POSITION":10,
						"NORMAL":11,
						"TEXCOORD_0":12,
						"TANGENT":13
					},
					"indices":14,
					"material":1
				}
			]
		},
		{
			"name":"twig",
			"primitives":[
				{
					"attributes":{
						"POSITION":15,
						"NORMAL":16,
						"TEXCOORD_0":17,
						"TANGENT":18
					},
					"indices":19,
					"material":2
				},
				{
					"attributes":{
						"POSITION":20,
						"NORMAL":21,
						"TEXCOORD_0":22,
						"TANGENT":23
					},
					"indices":24,
					"material":3
				}
			]
		},
		{
			"name":"twig.001",
			"primitives":[
				{
					"attributes":{
						"POSITION":25,
						"NORMAL":26,
						"TEXCOORD_0":27,
						"TANGENT":28
					},
					"indices":29,
					"material":4
				}
			]
		},
		{
			"name":"58b5b90e-ebba-4cf6-b391-24259d88",
			"primitives":[
				{
					"attributes":{
						"POSITION":30,
						"NORMAL":31,
						"TEXCOORD_0":32,
						"TANGENT":33
					},
					"indices":34,
					"material":5
				}
			]
		},
		{
			"name":"58b5b90e-ebba-4cf6-b391-24259d88.001",
			"primitives":[
				{
					"attributes":{
						"POSITION":35,
						"NORMAL":36,
						"TEXCOORD_0":37,
						"TANGENT":38
					},
					"indices":34,
					"material":5
				}
			]
		},
		{
			"name":"Cube",
			"primitives":[
				{
					"attributes":{
						"POSITION":39,
						"NORMAL":40,
						"TEXCOORD_0":41,
						"TANGENT":42
					},
					"indices":43
				}
			]
		},
		{
			"name":"Cube.001",
			"primitives":[
				{
					"attributes":{
						"POSITION":44,
						"NORMAL":45,
						"TEXCOORD_0":46,
						"TANGENT":47
					},
					"indices":43
				}
			]
		}
	],
	"textures":[
		{
			"sampler":0,
			"source":0
		},
		{
			"sampler":0,
			"source":1
		},
		{
			"sampler":0,
			"source":2
		},
		{
			"sampler":0,
			"source":3
		},
		{
			"sampler":0,
			"source":4
		},
		{
			"sampler":0,
			"source":0
		},
		{
			"sampler":0,
			"source":1
		},
		{
			"sampler":0,
			"source":2
		},
		{
			"sampler":0,
			"source":3
		},
		{
			"sampler":0,
			"source":4
		},
		{
			"sampler":1,
			"source":5
		}
	],
	"images":[
		{
			"mimeType":"image/png",
			"name":"pine_bark_nor_gl_4k.exr",
			"uri":"../../%5B01%5D%20Assets/Blender/textures/pine_bark_nor_gl_4k.exr"
		},
		{
			"mimeType":"image/jpeg",
			"name":"pine_bark_diff_4k.jpg",
			"uri":"../../%5B01%5D%20Assets/Blender/textures/pine_bark_diff_4k.jpg"
		},
		{
			"mimeType":"image/png",
			"name":"pine_bark_rough_4k.exr",
			"uri":"../../%5B01%5D%20Assets/Blender/textures/pine_bark_rough_4k.exr"
		},
		{
			"mimeType":"image/png",
			"name":"TexturesCom_Branches0025_normal.png",
			"uri":"../../%5B01%5D%20Assets/Blender/textures/TexturesCom_Branches0025_normal.png"
		},
		{
			"mimeType":"image/png",
			"name":"TexturesCom_Branches0025_1_M.png",
			"uri":"../../%5B01%5D%20Assets/Blender/textures/TexturesCom_Branches0025_1_M.png"
		},
		{
			"mimeType":"image/png",
			"name":"58b5b90e-ebba-4cf6-b391-24259d88.png",
			"uri":"../../%5B01%5D%20Assets/Blender/textures/58b5b90e-ebba-4cf6-b391-24259d88.png"
		}
	],
	"accessors":[
		{
			"bufferView":0,
			"componentType":5126,
			"count":3315,
			"max":[
				3.8704376220703125,
				17.31098175048828,
				3.9088778495788574
			],
			"min":[
				-3.88057541847229,
				0,
				-4.045105457305908
			],
			"type":"VEC3"
		},
		{
			"bufferView":1,
			"componentType":5126,
			"count":3315,
			"type":"VEC3"
		},
		{
			"bufferView":2,
			"componentType":5126,
			"count":3315,
			"type":"VEC2"
		},
		{
			"bufferView":3,
			"componentType":5126,
			"count":3315,
			"type":"VEC4"
		},
		{
			"bufferView":4,
			"componentType":5123,
			"count":15168,
			"type":"SCALAR"
		},
		{
			"bufferView":5,
			"componentType":5126,
			"count":188950,
			"max":[
				5.624510765075684,
				17.366043090820312,
				5.996574401855469
			],
			"min":[
				-6.469816207885742,
				-1.4130678176879883,
				-5.542655944824219
			],
			"type":"VEC3"
		},
		{
			"bufferView":6,
			"componentType":5126,
			"count":188950,
			"type":"VEC3"
		},
		{
			"bufferView":7,
			"componentType":5126,
			"count":188950,
			"type":"VEC2"
		},
		{
			"bufferView":8,
			"componentType":5126,
			"count":188950,
			"type":"VEC4"
		},
		{
			"bufferView":9,
			"componentType":5125,
			"count":730644,
			"type":"SCALAR"
		},
		{
			"bufferView":10,
			"componentType":5126,
			"count":347130,
			"max":[
				5.929891586303711,
				17.738101959228516,
				6.395359039306641
			],
			"min":[
				-6.791071891784668,
				-1.82571542263031,
				-5.921382427215576
			],
			"type":"VEC3"
		},
		{
			"bufferView":11,
			"componentType":5126,
			"count":347130,
			"type":"VEC3"
		},
		{
			"bufferView":12,
			"componentType":5126,
			"count":347130,
			"type":"VEC2"
		},
		{
			"bufferView":13,
			"componentType":5126,
			"count":347130,
			"type":"VEC4"
		},
		{
			"bufferView":14,
			"componentType":5125,
			"count":1165626,
			"type":"SCALAR"
		},
		{
			"bufferView":15,
			"componentType":5126,
			"count":280,
			"max":[
				0.08672383427619934,
				0.02901034615933895,
				-0.0006062425673007965
			],
			"min":[
				-0.1049649715423584,
				-0.03395126760005951,
				-0.34631800651550293
			],
			"type":"VEC3"
		},
		{
			"bufferView":16,
			"componentType":5126,
			"count":280,
			"type":"VEC3"
		},
		{
			"bufferView":17,
			"componentType":5126,
			"count":280,
			"type":"VEC2"
		},
		{
			"bufferView":18,
			"componentType":5126,
			"count":280,
			"type":"VEC4"
		},
		{
			"bufferView":19,
			"componentType":5123,
			"count":1062,
			"type":"SCALAR"
		},
		{
			"bufferView":20,
			"componentType":5126,
			"count":570,
			"max":[
				0.15067751705646515,
				0.0241019818931818,
				-0.03180895745754242
			],
			"min":[
				-0.12983955442905426,
				-0.0632561594247818,
				-0.3986647129058838
			],
			"type":"VEC3"
		},
		{
			"bufferView":21,
			"componentType":5126,
			"count":570,
			"type":"VEC3"
		},
		{
			"bufferView":22,
			"componentType":5126,
			"count":570,
			"type":"VEC2"
		},
		{
			"bufferView":23,
			"componentType":5126,
			"count":570,
			"type":"VEC4"
		},
		{
			"bufferView":24,
			"componentType":5123,
			"count":1914,
			"type":"SCALAR"
		},
		{
			"bufferView":25,
			"componentType":5126,
			"count":108,
			"max":[
				0.08705250918865204,
				0.0023303453344851732,
				-0.0006083048647269607
			],
			"min":[
				-0.012110070325434208,
				-0.0023303453344851732,
				-0.18441665172576904
			],
			"type":"VEC3"
		},
		{
			"bufferView":26,
			"componentType":5126,
			"count":108,
			"type":"VEC3"
		},
		{
			"bufferView":27,
			"componentType":5126,
			"count":108,
			"type":"VEC2"
		},
		{
			"bufferView":28,
			"componentType":5126,
			"count":108,
			"type":"VEC4"
		},
		{
			"bufferView":29,
			"componentType":5123,
			"count":180,
			"type":"SCALAR"
		},
		{
			"bufferView":30,
			"componentType":5126,
			"count":4,
			"max":[
				0.8888888955116272,
				0,
				0.5
			],
			"min":[
				-0.8888888955116272,
				0,
				-0.5
			],
			"type":"VEC3"
		},
		{
			"bufferView":31,
			"componentType":5126,
			"count":4,
			"type":"VEC3"
		},
		{
			"bufferView":32,
			"componentType":5126,
			"count":4,
			"type":"VEC2"
		},
		{
			"bufferView":33,
			"componentType":5126,
			"count":4,
			"type":"VEC4"
		},
		{
			"bufferView":34,
			"componentType":5123,
			"count":6,
			"type":"SCALAR"
		},
		{
			"bufferView":35,
			"componentType":5126,
			"count":4,
			"max":[
				0.8888888955116272,
				0,
				0.5
			],
			"min":[
				-0.8888888955116272,
				0,
				-0.5
			],
			"type":"VEC3"
		},
		{
			"bufferView":36,
			"componentType":5126,
			"count":4,
			"type":"VEC3"
		},
		{
			"bufferView":37,
			"componentType":5126,
			"count":4,
			"type":"VEC2"
		},
		{
			"bufferView":38,
			"componentType":5126,
			"count":4,
			"type":"VEC4"
		},
		{
			"bufferView":39,
			"componentType":5126,
			"count":24,
			"max":[
				15,
				15,
				15
			],
			"min":[
				-15,
				-15,
				-15
			],
			"type":"VEC3"
		},
		{
			"bufferView":40,
			"componentType":5126,
			"count":24,
			"type":"VEC3"
		},
		{
			"bufferView":41,
			"componentType":5126,
			"count":24,
			"type":"VEC2"
		},
		{
			"bufferView":42,
			"componentType":5126,
			"count":24,
			"type":"VEC4"
		},
		{
			"bufferView":43,
			"componentType":5123,
			"count":36,
			"type":"SCALAR"
		},
		{
			"bufferView":44,
			"componentType":5126,
			"count":24,
			"max":[
				7.5,
				7.5,
				7.5
			],
			"min":[
				-7.5,
				-7.5,
				-7.5
			],
			"type":"VEC3"
		},
		{
			"bufferView":45,
			"componentType":5126,
			"count":24,
			"type":"VEC3"
		},
		{
			"bufferView":46,
			"componentType":5126,
			"count":24,
			"type":"VEC2"
		},
		{
			"bufferView":47,
			"componentType":5126,
			"count":24,
			"type":"VEC4"
		}
	],
	"bufferViews":[
		{
			"buffer":0,
			"byteLength":39780,
			"byteOffset":0,
			"target":34962
		},
		{
			"buffer":0,
			"byteLength":39780,
			"byteOffset":39780,
			"target":34962
		},
		{
			"buffer":0,
			"byteLength":26520,
			"byteOffset":79560,
			"target":34962
		},
		{
			"buffer":0,
			"byteLength":53040,
			"byteOffset":106080,
			"target":34962
		},
		{
			"buffer":0,
			"byteLength":30336,
			"byteOffset":159120,
			"target":34963
		},
		{
			"buffer":0,
			"byteLength":2267400,
			"byteOffset":189456,
			"target":34962
		},
		{
			"buffer":0,
			"byteLength":2267400,
			"byteOffset":2456856,
			"target":34962
		},
		{
			"buffer":0,
			"byteLength":1511600,
			"byteOffset":4724256,
			"target":34962
		},
		{
			"buffer":0,
			"byteLength":3023200,
			"byteOffset":6235856,
			"target":34962
		},
		{
			"buffer":0,
			"byteLength":2922576,
			"byteOffset":9259056,
			"target":34963
		},
		{
			"buffer":0,
			"byteLength":4165560,
			"byteOffset":12181632,
			"target":34962
		},
		{
			"buffer":0,
			"byteLength":4165560,
			"byteOffset":16347192,
			"target":34962
		},
		{
			"buffer":0,
			"byteLength":2777040,
			"byteOffset":20512752,
			"target":34962
		},
		{
			"buffer":0,
			"byteLength":5554080,
			"byteOffset":23289792,
			"target":34962
		},
		{
			"buffer":0,
			"byteLength":4662504,
			"byteOffset":28843872,
			"target":34963
		},
		{
			"buffer":0,
			"byteLength":3360,
			"byteOffset":33506376,
			"target":34962
		},
		{
			"buffer":0,
			"byteLength":3360,
			"byteOffset":33509736,
			"target":34962
		},
		{
			"buffer":0,
			"byteLength":2240,
			"byteOffset":33513096,
			"target":34962
		},
		{
			"buffer":0,
			"byteLength":4480,
			"byteOffset":33515336,
			"target":34962
		},
		{
			"buffer":0,
			"byteLength":2124,
			"byteOffset":33519816,
			"target":34963
		},
		{
			"buffer":0,
			"byteLength":6840,
			"byteOffset":33521940,
			"target":34962
		},
		{
			"buffer":0,
			"byteLength":6840,
			"byteOffset":33528780,
			"target":34962
		},
		{
			"buffer":0,
			"byteLength":4560,
			"byteOffset":33535620,
			"target":34962
		},
		{
			"buffer":0,
			"byteLength":9120,
			"byteOffset":33540180,
			"target":34962
		},
		{
			"buffer":0,
			"byteLength":3828,
			"byteOffset":33549300,
			"target":34963
		},
		{
			"buffer":0,
			"byteLength":1296,
			"byteOffset":33553128,
			"target":34962
		},
		{
			"buffer":0,
			"byteLength":1296,
			"byteOffset":33554424,
			"target":34962
		},
		{
			"buffer":0,
			"byteLength":864,
			"byteOffset":33555720,
			"target":34962
		},
		{
			"buffer":0,
			"byteLength":1728,
			"byteOffset":33556584,
			"target":34962
		},
		{
			"buffer":0,
			"byteLength":360,
			"byteOffset":33558312,
			"target":34963
		},
		{
			"buffer":0,
			"byteLength":48,
			"byteOffset":33558672,
			"target":34962
		},
		{
			"buffer":0,
			"byteLength":48,
			"byteOffset":33558720,
			"target":34962
		},
		{
			"buffer":0,
			"byteLength":32,
			"byteOffset":33558768,
			"target":34962
		},
		{
			"buffer":0,
			"byteLength":64,
			"byteOffset":33558800,
			"target":34962
		},
		{
			"buffer":0,
			"byteLength":12,
			"byteOffset":33558864,
			"target":34963
		},
		{
			"buffer":0,
			"byteLength":48,
			"byteOffset":33558876,
			"target":34962
		},
		{
			"buffer":0,
			"byteLength":48,
			"byteOffset":33558924,
			"target":34962
		},
		{
			"buffer":0,
			"byteLength":32,
			"byteOffset":33558972,
			"target":34962
		},
		{
			"buffer":0,
			"byteLength":64,
			"byteOffset":33559004,
			"target":34962
		},
		{
			"buffer":0,
			"byteLength":288,
			"byteOffset":33559068,
			"target":34962
		},
		{
			"buffer":0,
			"byteLength":288,
			"byteOffset":33559356,
			"target":34962
		},
		{
			"buffer":0,
			"byteLength":192,
			"byteOffset":33559644,
			"target":34962
		},
		{
			"buffer":0,
			"byteLength":384,
			"byteOffset":33559836,
			"target":34962
		},
		{
			"buffer":0,
			"byteLength":72,
			"byteOffset":33560220,
			"target":34963
		},
		{
			"buffer":0,
			"byteLength":288,
			"byteOffset":33560292,
			"target":34962
		},
		{
			"buffer":0,
			"byteLength":288,
			"byteOffset":33560580,
			"target":34962
		},
		{
			"buffer":0,
			"byteLength":192,
			"byteOffset":33560868,
			"target":34962
		},
		{
			"buffer":0,
			"byteLength":384,
			"byteOffset":33561060,
			"target":34962
		}
	],
	"samplers":[
		{
			"magFilter":9729,
			"minFilter":9987
		},
		{
			"magFilter":9729,
			"minFilter":9987,
			"wrapS":33071,
			"wrapT":33071
		}
	],
	"buffers":[
		{
			"byteLength":33561444,
			"uri":"tree-v3-538da05de6344c4b4a321593b90e80d5.bin"
		}
	]
}
