{
	"asset":{
		"generator":"Khronos glTF Blender I/O v4.0.44",
		"version":"2.0"
	},
	"scene":0,
	"scenes":[
		{
			"name":"Scene",
			"nodes":[
				0,
				1
			]
		}
	],
	"nodes":[
		{
			"mesh":0,
			"name":"tree"
		},
		{
			"extras":{
				"ant_landscape":{},
				"vs":{}
			},
			"mesh":1,
			"name":"twig"
		}
	],
	"materials":[
		{
			"doubleSided":true,
			"name":"Material",
			"normalTexture":{
				"index":0
			},
			"pbrMetallicRoughness":{
				"baseColorTexture":{
					"index":1
				},
				"metallicFactor":0,
				"metallicRoughnessTexture":{
					"index":2
				}
			}
		},
		{
			"doubleSided":true,
			"name":"twig_bark",
			"pbrMetallicRoughness":{
				"metallicFactor":0
			}
		},
		{
			"alphaCutoff":0.5,
			"alphaMode":"MASK",
			"doubleSided":true,
			"name":"leaf",
			"normalTexture":{
				"index":3,
				"scale":0.3800000548362732
			},
			"pbrMetallicRoughness":{
				"baseColorTexture":{
					"index":4
				},
				"metallicFactor":0,
				"roughnessFactor":0.5
			}
		}
	],
	"meshes":[
		{
			"name":"tree",
			"primitives":[
				{
					"attributes":{
						"POSITION":0,
						"NORMAL":1,
						"TEXCOORD_0":2,
						"TANGENT":3
					},
					"indices":4,
					"material":0
				}
			]
		},
		{
			"name":"twig",
			"primitives":[
				{
					"attributes":{
						"POSITION":5,
						"NORMAL":6,
						"TEXCOORD_0":7,
						"TANGENT":8
					},
					"indices":9,
					"material":1
				},
				{
					"attributes":{
						"POSITION":10,
						"NORMAL":11,
						"TEXCOORD_0":12,
						"TANGENT":13
					},
					"indices":14,
					"material":2
				}
			]
		}
	],
	"textures":[
		{
			"sampler":0,
			"source":0
		},
		{
			"sampler":0,
			"source":1
		},
		{
			"sampler":0,
			"source":2
		},
		{
			"sampler":0,
			"source":3
		},
		{
			"sampler":0,
			"source":4
		}
	],
	"images":[
		{
			"mimeType":"image/png",
			"name":"Bark001_2K-PNG_NormalGL.png",
			"uri":"../../%5B01%5D%20Assets/Blender/textures/Bark001_2K-PNG_NormalGL.png"
		},
		{
			"mimeType":"image/png",
			"name":"Bark001_2K-PNG_Color.png",
			"uri":"../../%5B01%5D%20Assets/Blender/textures/Bark001_2K-PNG_Color.png"
		},
		{
			"mimeType":"image/png",
			"name":"Bark001_2K-PNG_Roughness.png",
			"uri":"../../%5B01%5D%20Assets/Blender/textures/Bark001_2K-PNG_Roughness.png"
		},
		{
			"mimeType":"image/png",
			"name":"TexturesCom_Branches0025_normal.png",
			"uri":"../../%5B01%5D%20Assets/Blender/textures/TexturesCom_Branches0025_normal.png"
		},
		{
			"mimeType":"image/png",
			"name":"TexturesCom_Branches0025_1_M.png",
			"uri":"../../%5B01%5D%20Assets/Blender/textures/TexturesCom_Branches0025_1_M.png"
		}
	],
	"accessors":[
		{
			"bufferView":0,
			"componentType":5126,
			"count":191715,
			"max":[
				6.621043682098389,
				20.68145751953125,
				8.208775520324707
			],
			"min":[
				-9.16610336303711,
				-0.007665135897696018,
				-7.548242568969727
			],
			"type":"VEC3"
		},
		{
			"bufferView":1,
			"componentType":5126,
			"count":191715,
			"type":"VEC3"
		},
		{
			"bufferView":2,
			"componentType":5126,
			"count":191715,
			"type":"VEC2"
		},
		{
			"bufferView":3,
			"componentType":5126,
			"count":191715,
			"type":"VEC4"
		},
		{
			"bufferView":4,
			"componentType":5125,
			"count":862788,
			"type":"SCALAR"
		},
		{
			"bufferView":5,
			"componentType":5126,
			"count":280,
			"max":[
				0.08672383427619934,
				0.02901034615933895,
				-0.0006062425673007965
			],
			"min":[
				-0.1049649715423584,
				-0.03395126760005951,
				-0.34631800651550293
			],
			"type":"VEC3"
		},
		{
			"bufferView":6,
			"componentType":5126,
			"count":280,
			"type":"VEC3"
		},
		{
			"bufferView":7,
			"componentType":5126,
			"count":280,
			"type":"VEC2"
		},
		{
			"bufferView":8,
			"componentType":5126,
			"count":280,
			"type":"VEC4"
		},
		{
			"bufferView":9,
			"componentType":5123,
			"count":1062,
			"type":"SCALAR"
		},
		{
			"bufferView":10,
			"componentType":5126,
			"count":570,
			"max":[
				0.15067751705646515,
				0.0241019818931818,
				-0.03180895745754242
			],
			"min":[
				-0.12983955442905426,
				-0.0632561594247818,
				-0.3986647129058838
			],
			"type":"VEC3"
		},
		{
			"bufferView":11,
			"componentType":5126,
			"count":570,
			"type":"VEC3"
		},
		{
			"bufferView":12,
			"componentType":5126,
			"count":570,
			"type":"VEC2"
		},
		{
			"bufferView":13,
			"componentType":5126,
			"count":570,
			"type":"VEC4"
		},
		{
			"bufferView":14,
			"componentType":5123,
			"count":1914,
			"type":"SCALAR"
		}
	],
	"bufferViews":[
		{
			"buffer":0,
			"byteLength":2300580,
			"byteOffset":0,
			"target":34962
		},
		{
			"buffer":0,
			"byteLength":2300580,
			"byteOffset":2300580,
			"target":34962
		},
		{
			"buffer":0,
			"byteLength":1533720,
			"byteOffset":4601160,
			"target":34962
		},
		{
			"buffer":0,
			"byteLength":3067440,
			"byteOffset":6134880,
			"target":34962
		},
		{
			"buffer":0,
			"byteLength":3451152,
			"byteOffset":9202320,
			"target":34963
		},
		{
			"buffer":0,
			"byteLength":3360,
			"byteOffset":12653472,
			"target":34962
		},
		{
			"buffer":0,
			"byteLength":3360,
			"byteOffset":12656832,
			"target":34962
		},
		{
			"buffer":0,
			"byteLength":2240,
			"byteOffset":12660192,
			"target":34962
		},
		{
			"buffer":0,
			"byteLength":4480,
			"byteOffset":12662432,
			"target":34962
		},
		{
			"buffer":0,
			"byteLength":2124,
			"byteOffset":12666912,
			"target":34963
		},
		{
			"buffer":0,
			"byteLength":6840,
			"byteOffset":12669036,
			"target":34962
		},
		{
			"buffer":0,
			"byteLength":6840,
			"byteOffset":12675876,
			"target":34962
		},
		{
			"buffer":0,
			"byteLength":4560,
			"byteOffset":12682716,
			"target":34962
		},
		{
			"buffer":0,
			"byteLength":9120,
			"byteOffset":12687276,
			"target":34962
		},
		{
			"buffer":0,
			"byteLength":3828,
			"byteOffset":12696396,
			"target":34963
		}
	],
	"samplers":[
		{
			"magFilter":9729,
			"minFilter":9987
		}
	],
	"buffers":[
		{
			"byteLength":12700224,
			"uri":"tree-v2-34c2ec0ac163e16c56651b538da05874.bin"
		}
	]
}
